<?xml version="1.0" standalone="no"?>
<!DOCTYPE svg PUBLIC "-//W3C//DTD SVG 20010904//EN"
 "http://www.w3.org/TR/2001/REC-SVG-20010904/DTD/svg10.dtd">
<svg version="1.0" xmlns="http://www.w3.org/2000/svg" 
 width="3483.000000pt" height="3450.000000pt" viewBox="0 0 3483.000000 3450.000000"
 preserveAspectRatio="xMidYMid meet">

<g transform="translate(0.000000,3450.000000) scale(0.100000,-0.100000)" fill="rgb(14, 87, 135)" stroke="none">
<path d="M17162 33689 c-80 -10 -119 -23 -207 -67 -372 -186 -614 -710 -684
-1482 -16 -172 -14 -592 4 -771 51 -505 174 -939 355 -1250 l43 -73 -34 -29
c-63 -53 -217 -139 -296 -164 -144 -46 -270 -63 -520 -70 -313 -8 -544 7
-1188 77 -460 50 -564 60 -745 69 -96 5 -223 17 -281 26 -95 15 -108 20 -120
42 -23 43 -109 112 -183 147 -96 46 -176 70 -342 100 -335 61 -626 80 -1674
111 -941 28 -1269 51 -1555 108 -173 35 -219 56 -316 140 -297 258 -607 438
-1114 647 -584 242 -1163 389 -1645 420 -89 6 -207 17 -261 25 -118 18 -283
20 -330 3 -64 -22 -106 -59 -169 -149 -37 -54 -82 -105 -112 -127 -120 -90
-123 -94 -122 -164 0 -60 6 -75 123 -313 68 -137 160 -326 206 -420 45 -93
139 -289 210 -434 71 -145 128 -269 128 -275 0 -6 -71 -139 -158 -296 -87
-157 -170 -307 -185 -335 -15 -27 -61 -111 -102 -185 -97 -174 -538 -972 -873
-1580 -294 -533 -745 -1350 -900 -1630 -96 -173 -225 -407 -900 -1630 -147
-267 -314 -568 -370 -670 -96 -173 -225 -407 -900 -1630 -147 -267 -315 -570
-373 -675 -58 -104 -176 -318 -262 -475 -86 -157 -194 -352 -240 -435 -46 -82
-95 -175 -108 -205 -14 -30 -40 -76 -58 -101 -44 -61 -100 -179 -119 -254 -19
-76 -19 -233 0 -310 8 -33 37 -105 65 -161 l50 -100 -21 -60 c-30 -83 -38
-265 -15 -354 19 -76 72 -190 118 -257 49 -72 183 -208 273 -278 636 -492
1995 -862 3655 -995 843 -68 1896 -70 2730 -5 1538 120 2830 441 3522 875 161
102 245 168 350 280 262 275 311 565 148 868 l-41 75 20 61 c58 174 44 338
-42 511 -42 84 -88 147 -183 245 l-82 85 -247 510 c-136 281 -288 593 -338
695 -49 102 -122 253 -162 335 -40 83 -112 231 -160 330 -48 99 -122 252 -165
340 -43 88 -121 250 -175 360 -54 110 -130 268 -170 350 -119 247 -227 469
-325 670 -51 105 -127 262 -170 350 -42 88 -189 390 -325 670 -136 281 -288
593 -338 695 -49 102 -122 253 -162 335 -128 265 -230 475 -325 670 -51 105
-127 262 -170 350 -67 139 -370 762 -663 1365 -49 102 -120 248 -157 325 -37
77 -114 235 -170 350 -56 116 -128 264 -160 330 -32 66 -108 224 -170 350
l-112 230 43 80 c42 79 230 419 232 421 1 1 85 -2 186 -7 589 -27 1143 -171
1881 -486 239 -103 347 -153 730 -344 599 -297 732 -360 835 -395 110 -37 287
-75 425 -93 93 -11 458 -37 670 -46 495 -22 772 -68 992 -164 173 -76 237
-130 534 -446 103 -110 205 -219 227 -241 l39 -42 49 -348 c90 -644 231 -1798
304 -2484 19 -184 40 -371 45 -415 16 -133 88 -944 106 -1185 9 -124 17 -326
17 -450 l1 -225 -73 -160 c-148 -321 -256 -644 -335 -1000 -92 -412 -141 -872
-148 -1375 -3 -184 -2 -197 18 -230 13 -21 26 -69 34 -120 20 -148 126 -622
281 -1264 349 -1444 453 -1974 454 -2316 l0 -165 -52 -70 c-60 -82 -153 -265
-225 -444 -208 -522 -496 -1563 -718 -2601 -32 -151 -77 -359 -99 -462 -167
-778 -351 -1905 -351 -2152 l0 -64 -37 -6 c-21 -3 -99 -13 -173 -21 -702 -79
-1671 -246 -2370 -410 -1868 -438 -3377 -1082 -4355 -1860 -851 -677 -1273
-1446 -1223 -2230 7 -125 37 -310 63 -395 9 -28 14 -93 14 -174 0 -70 3 -153
6 -185 69 -605 399 -1177 985 -1705 1870 -1686 6042 -2731 10555 -2646 1265
24 2425 124 3546 305 2690 433 4827 1262 6024 2336 822 738 1151 1587 933
2412 -13 51 -19 94 -15 125 8 69 -10 291 -34 416 -203 1078 -1299 2073 -3127
2837 -117 49 -215 89 -217 89 -3 0 -57 21 -122 46 -1192 468 -2826 848 -4493
1044 -140 16 -258 30 -262 30 -5 0 -8 18 -8 41 0 22 -11 69 -25 103 -37 92
-50 141 -89 341 -141 716 -276 2062 -276 2762 0 306 15 412 80 573 227 562
454 1835 569 3195 46 537 55 745 55 1270 1 844 -11 908 -339 1945 -147 464
-225 748 -225 818 0 101 -55 280 -142 462 -100 208 -147 357 -119 374 7 5 3
18 -13 39 -119 159 -161 478 -121 917 69 752 341 1657 745 2475 465 941 1034
1602 1625 1891 400 194 886 235 1590 133 77 -11 302 -47 500 -79 631 -103 805
-122 1110 -122 359 0 457 16 1130 193 1223 321 2230 637 2935 921 239 96 562
251 686 329 33 21 77 46 98 54 58 24 290 84 297 77 13 -13 229 -439 229 -451
0 -6 -163 -314 -361 -684 -199 -370 -425 -789 -502 -932 -77 -143 -156 -291
-177 -330 -21 -38 -83 -153 -138 -255 -55 -102 -229 -426 -387 -720 -158 -294
-304 -566 -325 -605 -31 -57 -222 -412 -500 -930 -21 -38 -83 -153 -138 -255
-55 -102 -229 -426 -387 -720 -158 -294 -304 -566 -325 -605 -70 -130 -735
-1367 -1025 -1905 -158 -294 -304 -566 -325 -605 -21 -38 -181 -335 -355 -660
-205 -381 -340 -620 -381 -676 -116 -156 -164 -288 -164 -449 0 -122 17 -190
80 -316 l50 -100 -21 -60 c-30 -83 -38 -265 -15 -354 19 -76 72 -190 118 -257
49 -72 183 -208 273 -278 636 -492 1995 -862 3655 -995 843 -68 1896 -70 2730
-5 1538 120 2830 441 3522 875 161 102 245 168 350 280 262 275 311 565 148
868 l-41 75 16 46 c12 38 22 49 57 66 48 23 88 82 88 129 0 19 -188 405 -526
1080 -290 578 -530 1056 -534 1061 -4 6 -384 762 -845 1680 -461 919 -920
1832 -1020 2030 -100 198 -476 945 -835 1660 -359 715 -825 1642 -1036 2061
-211 419 -384 767 -384 775 0 8 70 145 156 304 86 160 176 328 201 375 25 47
87 162 138 255 153 282 158 293 153 344 -3 25 -16 69 -29 96 -24 50 -41 62
-150 111 -13 6 -107 54 -209 107 -312 162 -460 212 -635 212 -120 0 -183 -15
-251 -61 -20 -14 -89 -45 -153 -68 -521 -193 -3624 -1165 -4121 -1292 -102
-26 -111 -26 -305 -20 -384 12 -770 64 -1118 152 -184 46 -283 80 -501 171
-206 86 -308 111 -484 122 -261 15 -514 -18 -1037 -138 -482 -110 -632 -132
-1033 -148 l-162 -6 -43 30 c-113 80 -255 142 -487 214 -427 131 -993 232
-1425 254 -155 8 -234 24 -318 66 -68 34 -207 135 -207 151 0 6 49 60 109 121
500 513 922 1192 1097 1766 80 261 88 316 88 571 0 212 -2 231 -27 323 -57
212 -162 378 -344 542 -306 277 -584 397 -841 364z m209 -305 c85 -26 206 -91
304 -164 117 -88 261 -232 304 -303 73 -123 110 -272 111 -444 0 -168 -18
-277 -82 -493 -138 -463 -451 -997 -864 -1475 -62 -71 -143 -161 -181 -198
l-69 -68 -56 113 c-134 270 -220 593 -270 1013 -17 146 -17 674 0 820 67 577
231 985 457 1140 105 72 229 94 346 59z m-11016 -1979 c55 -9 171 -20 258 -25
466 -29 1001 -163 1562 -392 464 -189 787 -375 1050 -603 151 -131 267 -180
530 -224 294 -49 735 -79 1425 -96 950 -24 1440 -55 1735 -111 231 -43 297
-71 345 -145 17 -27 42 -56 53 -64 12 -8 94 -32 182 -55 140 -36 181 -42 335
-51 181 -10 506 -39 715 -64 582 -70 1085 -101 1370 -85 390 22 614 90 843
255 l93 67 42 -39 c114 -105 252 -188 387 -233 68 -23 120 -33 222 -40 300
-23 390 -32 523 -51 594 -84 1136 -238 1330 -376 114 -83 171 -90 500 -69 377
25 464 39 964 152 157 35 368 78 470 96 170 30 204 33 391 32 244 0 275 -7
523 -113 459 -196 1000 -302 1684 -331 l225 -10 122 31 c127 32 489 136 761
219 1608 493 3350 1051 3538 1134 32 14 71 34 86 45 65 46 171 36 351 -36 105
-42 265 -120 397 -195 49 -27 52 -31 42 -51 -58 -111 -464 -864 -470 -871 -4
-5 -38 52 -75 125 -50 99 -69 149 -75 193 -8 67 -31 103 -80 128 -46 24 -130
23 -177 -1 -20 -10 -102 -36 -182 -57 -178 -46 -249 -74 -371 -147 -118 -70
-378 -196 -569 -275 -322 -134 -993 -369 -1440 -506 -553 -168 -840 -250
-1475 -417 -724 -191 -812 -206 -1190 -196 -294 8 -395 20 -1080 132 -633 103
-764 117 -1095 119 -338 1 -569 -30 -815 -110 -369 -120 -689 -335 -1047 -702
-664 -681 -1255 -1826 -1571 -3042 -122 -467 -186 -910 -187 -1277 0 -290 30
-482 104 -657 19 -44 37 -97 41 -116 17 -88 53 -186 130 -354 84 -182 128
-309 118 -344 -14 -55 77 -382 345 -1234 212 -671 236 -827 236 -1543 0 -948
-113 -2121 -310 -3215 -94 -523 -191 -901 -302 -1180 -82 -207 -94 -297 -94
-675 2 -605 81 -1518 203 -2345 46 -310 117 -675 150 -765 38 -107 37 -166
-13 -510 -11 -77 -24 -207 -29 -290 -10 -176 -18 -235 -30 -235 -5 0 -9 -8 -9
-17 0 -10 -9 -36 -19 -58 l-18 -40 -15 35 c-9 19 -41 89 -71 156 -76 165 -168
396 -210 531 -45 141 -100 282 -137 349 -16 29 -40 94 -53 145 -14 52 -37 123
-52 159 -53 123 -213 821 -294 1285 -115 652 -175 1198 -206 1870 -21 439 -20
618 3 653 16 24 17 72 14 692 -9 2340 -143 4115 -393 5190 -125 537 -261 868
-448 1088 -78 93 -128 103 -240 47 -121 -61 -126 -72 -135 -325 -10 -275 -40
-460 -171 -1049 -81 -366 -112 -574 -124 -856 -12 -264 3 -565 43 -830 58
-386 60 -417 60 -995 0 -450 -3 -575 -17 -715 -24 -226 -34 -311 -54 -426
l-16 -95 -48 -17 c-32 -12 -58 -30 -76 -53 -26 -35 -27 -40 -35 -227 -46
-1080 -439 -2499 -1168 -4212 -105 -248 -460 -1041 -558 -1245 -208 -437 -268
-563 -385 -800 l-131 -265 -7 115 c-43 670 -38 895 27 1355 55 388 207 1225
299 1650 25 116 68 314 95 440 91 428 232 1008 346 1428 217 793 405 1305 555
1508 65 88 85 137 99 237 13 98 7 232 -21 452 -49 386 -151 868 -409 1940
-253 1053 -330 1410 -330 1543 0 21 -7 54 -15 74 -19 45 -19 160 0 448 49 738
185 1321 439 1875 104 226 101 212 100 525 -1 284 -13 464 -70 1095 -107 1194
-428 3814 -477 3906 -9 16 -42 56 -73 89 -572 608 -624 655 -845 759 -270 128
-545 176 -1169 206 -528 25 -742 51 -944 112 -99 30 -133 46 -566 263 -912
457 -1445 680 -1974 824 -333 91 -686 149 -1008 164 l-47 2 75 135 c61 112 74
143 74 180 0 136 -179 194 -258 83 -16 -22 -375 -668 -462 -830 l-19 -36 -79
164 c-92 191 -290 599 -378 779 l-61 125 46 55 c26 30 58 71 71 90 60 90 66
91 245 65z m387 -2420 c53 -110 152 -312 219 -450 67 -137 150 -308 184 -380
34 -71 103 -213 153 -315 327 -675 425 -876 505 -1040 49 -102 120 -248 157
-325 37 -77 109 -225 160 -330 51 -104 127 -262 170 -350 43 -88 119 -245 170
-350 51 -104 127 -262 170 -350 69 -142 163 -336 493 -1015 49 -102 122 -252
162 -335 40 -82 150 -310 245 -505 95 -195 208 -427 250 -515 188 -387 546
-1125 672 -1385 271 -556 407 -840 402 -840 -2 0 -39 18 -82 39 -109 55 -399
169 -582 229 -686 226 -1595 392 -2579 472 -856 70 -1915 70 -2781 0 -1319
-106 -2513 -375 -3207 -724 -62 -31 -113 -54 -113 -52 0 3 70 132 156 288 167
302 171 310 286 518 97 175 539 974 876 1585 292 529 738 1337 897 1625 56
102 222 402 369 668 146 265 386 699 532 965 147 265 313 565 369 667 56 102
223 403 370 670 705 1278 805 1458 903 1635 58 105 132 239 165 299 l60 110
76 -155 c42 -85 120 -244 173 -354z m22763 -1680 c318 -632 750 -1492 960
-1910 210 -418 606 -1205 880 -1750 1201 -2390 1508 -3001 1836 -3652 192
-380 349 -694 349 -698 0 -3 -12 2 -27 13 -16 11 -91 51 -169 90 -718 359
-1878 623 -3223 732 -856 70 -1915 70 -2781 0 -974 -78 -1874 -242 -2575 -470
-190 -62 -483 -179 -614 -244 -51 -26 -95 -45 -97 -43 -2 2 7 24 20 48 13 24
171 319 351 654 180 336 343 637 360 670 18 33 207 384 420 780 213 396 404
752 425 790 50 94 438 813 925 1720 219 407 410 763 425 790 15 28 78 145 140
260 150 280 171 319 288 535 55 102 229 426 387 720 361 672 349 650 433 805
38 72 92 171 119 221 194 363 588 1092 589 1091 0 -1 261 -519 579 -1152z
m-13311 -6376 c310 -921 480 -2725 503 -5314 6 -708 6 -732 -13 -760 -18 -27
-19 -48 -16 -300 12 -1168 135 -2165 414 -3360 71 -303 95 -385 150 -502 16
-36 27 -67 25 -70 -3 -2 -90 0 -194 6 -813 47 -1990 45 -2878 -4 -142 -8 -260
-13 -262 -12 -1 2 97 223 218 492 912 2023 1373 3517 1479 4788 8 99 12 111
40 147 90 114 149 359 189 785 62 653 53 1230 -29 1810 -49 345 -63 681 -39
962 10 129 68 491 94 593 25 99 126 582 146 695 10 60 24 168 31 239 l13 129
37 -79 c20 -43 62 -154 92 -245z m-9169 55 c1546 -75 2860 -338 3670 -734 190
-92 393 -224 417 -270 25 -46 83 -100 108 -100 24 0 89 -84 127 -165 25 -53
28 -72 28 -156 0 -90 -2 -99 -39 -175 -104 -210 -454 -455 -906 -633 -1025
-405 -2530 -631 -4211 -631 -1689 0 -3245 235 -4231 641 -269 110 -485 228
-649 355 -93 71 -191 185 -235 270 -37 74 -39 81 -39 174 0 93 2 100 39 174
109 214 407 428 860 616 819 340 2043 565 3456 634 343 17 1258 17 1605 0z
m22500 -1110 c1537 -75 2846 -335 3660 -728 321 -155 568 -353 651 -520 37
-76 39 -85 39 -176 0 -92 -2 -100 -39 -176 -104 -210 -454 -455 -906 -633
-1025 -405 -2530 -631 -4211 -631 -1689 0 -3245 235 -4231 641 -269 110 -485
228 -649 355 -159 122 -268 284 -276 411 l-5 68 82 150 c88 161 103 181 195
255 648 517 2206 892 4085 984 343 17 1258 17 1605 0z m-18075 -905 c62 -257
-163 -522 -655 -769 -937 -473 -2635 -760 -4496 -760 -1689 0 -3245 235 -4231
641 -269 110 -485 228 -649 355 -154 118 -265 281 -276 404 l-6 64 59 -45
c630 -479 1998 -848 3634 -979 843 -68 1896 -70 2730 -5 1357 106 2550 374
3269 735 228 114 449 260 551 364 24 25 47 46 51 46 4 0 13 -23 19 -51z
m22500 -1110 c62 -257 -163 -522 -655 -769 -937 -473 -2635 -760 -4496 -760
-1689 0 -3245 235 -4231 641 -269 110 -485 228 -649 355 -154 118 -265 281
-276 404 l-6 64 59 -45 c630 -479 1998 -848 3634 -979 843 -68 1896 -70 2730
-5 1357 106 2550 374 3269 735 228 114 449 260 551 364 24 25 47 46 51 46 4 0
13 -23 19 -51z m-17455 -7499 c165 -6 426 -17 579 -25 154 -8 287 -15 297 -15
12 0 20 -14 29 -52 51 -222 187 -558 420 -1043 142 -295 172 -361 216 -471 24
-61 46 -130 49 -155 4 -24 14 -64 22 -89 l15 -45 -35 -60 c-55 -92 -114 -232
-144 -341 -37 -135 -39 -335 -5 -464 101 -383 467 -737 1127 -1087 178 -94
226 -110 375 -124 262 -24 408 29 481 173 82 163 120 362 101 526 -28 241
-137 436 -366 660 -151 147 -269 239 -611 477 -302 210 -470 337 -485 366 -26
47 -92 258 -96 304 -18 204 -55 753 -60 906 -7 176 6 387 25 418 5 8 80 2 262
-19 2363 -278 4431 -876 5839 -1687 983 -566 1606 -1212 1819 -1883 60 -188
75 -294 75 -520 0 -224 -14 -322 -74 -516 -185 -601 -719 -1195 -1548 -1723
-1605 -1022 -4236 -1737 -7177 -1951 -1073 -79 -2215 -92 -3285 -40 -3556 175
-6677 1055 -8310 2343 -620 489 -985 1011 -1102 1572 -32 158 -32 468 0 630
113 557 481 1080 1107 1576 1198 949 3290 1706 5755 2082 485 75 964 136 974
126 4 -4 39 -653 52 -976 l7 -163 -28 -41 c-16 -22 -75 -85 -131 -139 -100
-94 -224 -192 -649 -509 -268 -200 -378 -292 -514 -430 -247 -250 -395 -501
-471 -796 -92 -355 -45 -616 142 -792 66 -61 167 -114 274 -143 98 -27 289
-29 409 -6 339 67 681 272 865 519 80 107 129 197 186 342 149 381 214 851
214 1555 l0 346 196 394 c184 371 276 558 404 828 52 109 54 112 86 112 18 0
99 4 181 10 253 17 538 30 788 37 132 3 242 7 244 9 9 8 1197 3 1476 -6z
m-3675 -2125 c-33 -621 -133 -1034 -312 -1298 -167 -246 -548 -447 -848 -447
-179 0 -289 52 -348 164 -26 49 -27 57 -26 196 0 127 3 157 28 243 47 166 101
282 194 417 151 218 358 404 832 751 157 114 371 280 445 343 l40 34 3 -96 c2
-54 -2 -191 -8 -307z m5645 49 c78 -63 202 -152 510 -367 246 -171 345 -249
472 -370 222 -213 309 -404 282 -621 -12 -95 -51 -215 -76 -234 -14 -10 -51
-13 -151 -10 l-132 4 -127 64 c-412 210 -745 458 -895 665 -102 142 -140 253
-140 405 -1 113 16 189 67 310 28 67 106 210 115 210 3 0 37 -25 75 -56z
m8005 -3221 c-47 -232 -177 -516 -351 -763 -413 -587 -1175 -1153 -2179 -1620
-1750 -815 -4143 -1335 -6785 -1475 -873 -46 -1857 -48 -2735 -5 -4486 220
-8194 1560 -9188 3321 -55 98 -75 139 -68 139 1 0 34 -37 72 -82 211 -254 536
-542 887 -787 2079 -1452 5931 -2308 10032 -2231 1616 31 3106 190 4505 480
2552 530 4495 1438 5436 2540 115 135 246 318 320 447 32 56 60 101 62 98 2
-2 -2 -30 -8 -62z"/>
</g>
</svg>
