<?xml version="1.0" standalone="no"?>
<!DOCTYPE svg PUBLIC "-//W3C//DTD SVG 20010904//EN"
 "http://www.w3.org/TR/2001/REC-SVG-20010904/DTD/svg10.dtd">
<svg version="1.0" xmlns="http://www.w3.org/2000/svg"
 width="315.000000pt" height="530.000000pt" viewBox="0 0 315.000000 530.000000"
 preserveAspectRatio="xMidYMid meet">

<g transform="translate(0.000000,530.000000) scale(0.100000,-0.100000)"
fill="rgba(104, 99, 99, 0.205)" stroke="none">
<path d="M1134 5229 c-99 -12 -171 -59 -190 -122 -3 -12 -23 -40 -44 -62 -21
-22 -40 -47 -41 -55 -4 -25 11 -92 33 -144 29 -72 22 -195 -17 -288 l-28 -67
26 -40 c15 -22 27 -46 27 -53 0 -7 -16 -33 -35 -57 -23 -28 -33 -51 -29 -60
17 -41 13 -47 -46 -85 -33 -21 -84 -64 -113 -95 -75 -82 -93 -144 -116 -406
-12 -129 -66 -346 -106 -424 -53 -106 -94 -229 -114 -347 -22 -127 -35 -180
-50 -204 -14 -21 -20 -10 -33 58 -10 55 -10 62 10 87 12 15 22 38 22 50 0 47
-84 90 -129 65 -27 -14 -61 -68 -61 -97 0 -13 16 -35 40 -55 38 -31 43 -41 62
-127 l22 -93 -27 -48 c-38 -67 -36 -120 7 -205 21 -42 29 -68 22 -71 -6 -2
-41 -13 -78 -23 -58 -17 -69 -17 -86 -5 -12 8 -23 11 -26 6 -8 -13 29 -145 42
-150 7 -2 12 3 12 12 0 28 43 45 120 48 l75 3 23 -90 c12 -49 40 -153 62 -230
35 -124 72 -265 180 -690 17 -66 49 -185 70 -265 21 -80 51 -194 65 -255 28
-114 79 -240 108 -264 9 -7 17 -17 17 -22 0 -5 -99 -9 -220 -9 l-220 0 0 -60
0 -59 -93 -3 -92 -3 -3 -112 -3 -113 1091 0 1090 0 0 115 0 115 -90 0 -89 0
-3 57 -3 58 -217 3 -218 2 0 25 c0 38 37 390 60 565 11 85 20 184 20 220 0 38
11 103 25 155 31 112 31 136 0 271 -13 60 -29 143 -35 184 -6 41 -15 95 -21
120 -8 36 -7 53 6 82 23 58 18 118 -24 282 -28 106 -46 209 -62 346 -24 216
-24 210 -14 297 7 56 5 68 -19 115 -29 59 -62 150 -78 217 -16 69 6 450 30
521 26 75 68 156 104 201 53 65 204 129 343 144 33 4 85 13 115 21 30 7 56 12
57 10 5 -4 -63 -246 -77 -278 -17 -36 -7 -69 27 -91 26 -17 18 -17 -23 -1 -15
6 -15 4 -1 -22 81 -154 329 -181 434 -48 52 67 71 114 31 77 -13 -11 -34 -24
-48 -28 -15 -4 -6 5 24 24 l48 32 -7 47 c-3 26 -18 67 -33 92 -14 25 -49 114
-77 198 l-52 154 38 106 c21 59 42 108 46 109 4 2 61 29 126 61 64 32 117 55
117 50 0 -12 -36 -144 -102 -368 -42 -142 -66 -208 -79 -218 -27 -18 -24 -48
7 -68 17 -11 21 -19 14 -24 -34 -21 72 -111 158 -136 68 -20 130 -13 188 21
45 27 107 102 100 122 -3 6 2 17 10 23 21 19 17 46 -11 67 -20 14 -42 69 -109
268 -69 208 -103 313 -132 413 -6 20 -77 14 -151 -13 -37 -13 -69 -22 -72 -19
-2 2 5 23 16 47 11 23 24 56 27 72 20 89 27 103 49 109 32 8 86 106 58 106 -5
0 -11 -10 -14 -22 -8 -30 -34 -65 -42 -56 -9 9 24 108 35 108 5 0 12 -5 15
-10 4 -6 11 -8 16 -4 14 8 -21 61 -50 74 -43 19 -119 24 -137 9 -30 -25 -54
-91 -54 -151 0 -31 -4 -59 -9 -63 -5 -3 -17 -29 -27 -58 -22 -68 -84 -182
-186 -342 l-83 -129 -60 -19 c-49 -15 -83 -18 -180 -14 -102 3 -379 -14 -438
-27 -31 -7 -38 26 -22 103 16 78 16 77 -39 174 -48 85 -47 137 3 187 17 17 33
41 35 53 21 102 6 190 -34 212 -14 7 -38 39 -55 72 -32 62 -74 97 -134 112
-60 15 -133 19 -197 10z m176 -35 c43 -17 54 -35 18 -28 -22 5 -22 4 -4 -8 10
-7 28 -21 40 -31 21 -17 21 -17 -9 -11 -29 6 -28 4 20 -43 28 -26 59 -52 69
-58 14 -8 16 -15 8 -36 -10 -24 -13 -25 -59 -19 -86 11 -124 37 -160 110 l-31
65 -12 -47 c-17 -66 -42 -85 -141 -106 -58 -13 -77 -20 -61 -24 31 -9 28 -43
-8 -79 -36 -36 -54 -30 -46 16 6 30 4 33 -14 28 -34 -9 -24 29 21 81 44 50 42
63 -3 19 -15 -14 -31 -23 -35 -20 -4 4 19 34 51 66 32 33 56 63 52 69 -8 14
14 30 71 52 61 24 177 26 233 4z m1382 -135 c7 -32 -5 -94 -20 -103 -4 -2 -8
30 -9 71 -1 52 2 73 10 70 6 -2 15 -19 19 -38z m48 -15 c0 -11 -9 -38 -21 -60
-13 -25 -18 -30 -14 -14 3 14 8 47 12 73 6 47 23 48 23 1z m-96 20 c3 -9 6
-30 6 -47 -1 -38 -14 -21 -25 31 -7 33 8 46 19 16z m-1425 -77 c7 -13 30 -34
51 -47 50 -31 57 -48 22 -56 -15 -4 -36 -13 -47 -20 -25 -18 -55 -18 -80 0
-11 7 -44 17 -72 21 -34 4 -53 12 -53 20 0 20 29 45 51 45 25 0 71 23 88 44
18 21 25 20 40 -7z m1399 -114 c-3 -21 -23 -85 -45 -143 l-39 -105 -64 -42
c-61 -40 -89 -72 -90 -103 0 -8 -16 -55 -36 -105 -41 -102 -27 -92 -199 -140
-57 -16 -129 -27 -195 -31 -148 -7 -182 -18 -246 -77 l-54 -49 0 32 c0 46 19
103 44 135 30 37 122 54 299 55 112 0 151 4 213 22 72 21 76 24 94 66 11 24
59 100 106 170 78 113 154 248 183 325 16 41 35 34 29 -10z m-1558 -13 c0 -5
-9 -10 -20 -10 -11 0 -20 5 -20 10 0 6 9 10 20 10 11 0 20 -4 20 -10z m291
-36 c38 -9 67 -19 64 -24 -3 -5 0 -12 7 -17 8 -5 -6 -10 -37 -13 l-50 -6 45
-10 c28 -6 45 -15 45 -24 0 -17 -6 -17 -85 0 -68 14 -217 14 -289 0 -71 -13
-81 -13 -81 5 0 8 4 15 8 15 5 0 17 7 28 15 18 14 17 14 -13 9 -21 -4 -33 -2
-33 4 0 6 21 14 48 18 l47 7 -30 11 -30 10 35 7 c70 13 250 9 321 -7z m-111
-113 c0 -6 -15 -11 -32 -13 -50 -5 -39 -23 15 -26 42 -3 49 0 54 17 5 21 19
26 47 15 24 -9 21 -100 -4 -141 -17 -28 -26 -33 -58 -33 -49 0 -57 -8 -29 -31
20 -16 21 -19 6 -34 -23 -23 -82 -10 -124 27 -39 34 -85 120 -85 159 0 27 30
49 85 62 37 9 125 7 125 -2z m1591 -45 c-22 -26 -233 -125 -314 -147 -123 -33
-117 -10 15 61 43 23 82 39 88 35 5 -3 10 -1 10 5 0 23 186 87 204 69 5 -5 4
-14 -3 -23z m-1832 -63 c45 -89 53 -154 27 -218 -17 -41 -29 -46 -20 -10 8 31
-4 115 -16 115 -5 0 -11 -10 -13 -22 -2 -13 -5 3 -6 35 0 31 -4 57 -7 57 -3 0
-14 -10 -24 -22 -30 -37 -33 -15 -9 71 12 45 23 80 25 78 2 -1 21 -39 43 -84z
m1951 -254 c43 -125 81 -240 85 -257 l6 -31 -103 6 c-57 3 -105 7 -107 9 -4 4
17 414 26 479 3 28 8 43 11 35 3 -8 40 -117 82 -241z m-1545 146 c-26 -82 -26
-97 1 -74 14 12 15 9 12 -21 -5 -51 25 -53 45 -3 l16 38 0 -51 c1 -54 -14 -78
-45 -72 -31 6 -54 51 -60 119 -6 60 -4 70 22 114 15 27 29 44 31 38 2 -6 -8
-45 -22 -88z m1408 -195 c-9 -130 -19 -228 -25 -231 -12 -8 -89 -21 -93 -17
-1 2 21 93 51 203 65 245 75 278 78 273 2 -1 -3 -104 -11 -228z m-350 140 c-4
-17 -23 -29 -23 -16 0 2 -3 11 -6 20 -4 11 0 16 14 16 15 0 19 -5 15 -20z
m-33 -46 c0 -22 -23 -54 -39 -54 -4 0 -3 25 3 56 9 50 11 54 23 38 7 -10 13
-28 13 -40z m-1280 6 c48 -41 79 -43 118 -7 28 26 28 10 1 -54 -24 -55 -18
-77 10 -40 12 16 20 20 25 12 22 -35 -45 -97 -95 -87 -16 3 -43 9 -60 12 l-31
7 44 -47 c25 -25 49 -46 54 -46 5 0 36 17 68 37 33 20 76 39 96 43 27 4 36 11
38 28 3 17 8 22 20 17 9 -4 44 -9 76 -12 l59 -6 -24 -20 c-13 -10 -46 -30 -73
-44 -57 -29 -242 -93 -269 -93 -31 0 -226 122 -227 142 0 3 16 16 35 28 39 24
65 66 65 104 0 33 10 56 24 56 6 0 27 -14 46 -30z m-220 -105 c0 -38 -14 -45
-46 -20 -19 14 -18 15 6 35 35 27 40 25 40 -15z m1588 -156 c18 -61 48 -145
67 -187 19 -41 33 -77 31 -79 -2 -3 -14 1 -27 7 -12 7 -79 15 -149 18 l-126 5
13 106 c18 156 19 156 63 176 21 10 49 28 61 41 12 13 25 24 29 24 3 0 20 -50
38 -111z m-945 29 c-37 -61 -103 -149 -131 -176 -19 -18 -33 -34 -31 -36 10
-10 127 47 149 74 l26 29 -4 -162 c-2 -148 -24 -297 -41 -297 -10 0 -71 184
-78 238 l-8 52 -80 -45 c-44 -25 -107 -53 -140 -61 -33 -9 -62 -17 -63 -19 -2
-2 13 -13 35 -24 43 -23 251 -217 242 -226 -4 -3 -49 28 -102 69 -52 41 -128
93 -168 116 -97 55 -141 92 -178 147 -32 48 -42 37 -17 -20 18 -43 60 -94 171
-208 85 -87 100 -98 168 -123 44 -16 91 -42 114 -62 l38 -35 -42 20 c-23 12
-77 32 -120 47 -43 14 -90 35 -105 45 -15 11 -75 73 -134 139 -109 122 -140
146 -86 68 46 -67 98 -177 128 -268 36 -112 69 -147 149 -160 33 -6 78 -8 100
-4 33 5 38 4 27 -7 -17 -18 -137 -24 -189 -10 -23 6 -51 19 -62 29 -12 10 -44
78 -75 159 -37 97 -71 168 -110 227 -52 77 -76 102 -76 77 0 -5 -12 -30 -27
-56 -24 -44 -27 -47 -36 -28 -7 16 3 54 37 155 38 109 47 152 53 231 3 54 7
96 9 95 1 -2 9 -43 18 -92 8 -48 21 -95 28 -104 25 -29 190 -152 213 -158 24
-6 69 19 79 42 3 9 -3 9 -23 1 -26 -10 -34 -6 -106 53 -45 37 -83 77 -91 96
-13 31 -35 146 -29 152 1 2 58 -24 126 -57 80 -38 138 -60 164 -61 60 -3 63
-1 26 19 l-35 18 66 12 c35 6 75 11 87 11 33 0 73 24 99 59 21 29 52 45 35 19z
m-702 -30 c3 -104 -11 -146 -69 -210 -22 -24 -51 -65 -65 -93 -29 -59 -73
-216 -83 -300 -9 -80 -25 -123 -72 -192 -49 -73 -59 -106 -66 -218 -6 -108
-27 -176 -111 -355 -34 -74 -72 -157 -84 -183 -16 -39 -58 -105 -98 -157 -7
-8 -23 24 -23 45 0 12 16 45 36 75 65 100 123 235 150 347 14 59 34 146 45
193 11 47 42 130 69 185 28 56 69 166 94 250 40 138 44 161 49 290 3 78 11
161 18 185 16 54 75 116 139 148 60 30 70 28 71 -10z m1449 0 c0 -24 -28 -240
-32 -243 -2 -2 -20 -6 -40 -10 l-37 -7 15 64 c25 109 54 196 67 201 21 9 27 8
27 -5z m729 -223 c-60 -32 -246 -36 -320 -6 -18 8 -14 9 21 3 61 -10 238 -5
275 7 44 14 54 12 24 -4z m-596 -202 c-24 -2 -62 -2 -85 0 -24 2 -5 4 42 4 47
0 66 -2 43 -4z m-1648 -170 c4 -27 16 -88 27 -138 11 -49 22 -103 25 -120 6
-40 -39 -215 -67 -260 -15 -25 -20 -43 -15 -64 4 -20 -4 -62 -24 -129 -31 -98
-31 -102 -31 -320 0 -191 -3 -239 -24 -354 -48 -260 -50 -291 -37 -542 6 -127
11 -271 10 -321 0 -86 -1 -88 -13 -55 -8 20 -30 107 -51 195 -20 88 -54 225
-76 305 -32 120 -78 313 -106 442 -5 26 -3 27 81 54 l87 27 25 -24 c39 -36 49
-14 29 62 -17 70 -41 113 -55 104 -6 -4 -10 -15 -10 -25 0 -25 -21 -35 -101
-49 -88 -15 -91 -15 -84 9 3 10 9 88 14 172 l7 153 55 91 c81 133 138 268 145
345 4 35 19 96 35 135 15 39 35 100 44 135 17 69 83 219 96 219 4 0 11 -21 14
-47z m113 -108 c16 -38 51 -114 77 -169 44 -89 52 -100 89 -116 24 -11 82 -21
138 -25 l97 -7 66 36 c69 38 87 34 32 -8 -25 -19 -142 -150 -174 -195 -8 -11
-67 33 -155 118 -54 51 -98 90 -98 87 0 -15 171 -265 212 -311 l45 -49 64 49
c35 26 112 96 172 154 59 58 107 102 107 98 0 -4 -5 -51 -11 -105 -17 -154
-73 -356 -120 -432 -5 -8 -21 -37 -35 -65 -81 -153 -157 -255 -323 -435 -167
-182 -199 -225 -211 -289 -18 -97 -52 -236 -61 -251 -12 -19 -2 174 12 248 6
29 21 65 33 80 12 15 70 99 128 187 58 88 152 219 208 290 131 166 167 220
218 325 57 118 122 321 103 320 -3 -1 -46 -62 -94 -135 -49 -74 -93 -135 -98
-135 -5 0 -9 -6 -9 -13 0 -7 -9 -23 -20 -34 -24 -26 -178 -214 -311 -378 -53
-66 -126 -149 -162 -184 l-65 -64 -8 69 c-7 71 9 310 25 374 5 19 12 47 15 63
8 33 18 29 103 -40 l56 -46 74 75 c40 42 73 80 73 86 0 6 -18 2 -40 -9 -21
-10 -49 -19 -62 -19 -24 0 -201 141 -206 165 -4 16 45 115 57 115 9 0 69 -71
124 -146 20 -29 44 -55 53 -58 8 -3 29 4 46 17 28 20 28 22 9 25 -16 3 -34 27
-65 90 -25 48 -69 123 -100 166 -55 79 -55 79 -41 114 8 19 15 36 15 38 0 2 4
4 8 4 4 0 16 -21 25 -47 21 -58 97 -197 103 -190 3 3 -21 74 -54 158 -68 178
-76 206 -97 352 -23 167 -19 174 33 52z m673 -1031 c-41 -202 -113 -427 -221
-689 -18 -44 -40 -100 -49 -125 -55 -150 -250 -523 -388 -738 -28 -45 -24 -14
10 69 19 46 59 155 88 242 30 87 55 148 57 136 2 -12 -4 -44 -13 -71 -9 -28
-14 -52 -12 -54 17 -18 276 587 384 896 78 224 162 485 164 508 1 11 3 10 6
-4 2 -12 -10 -89 -26 -170z m-1087 -118 c-35 -15 -262 -66 -296 -66 -12 0 -18
3 -15 7 9 8 285 71 317 72 24 0 23 -1 -6 -13z m-48 -418 c58 -218 130 -494
162 -623 35 -144 100 -379 125 -450 31 -89 90 -332 84 -348 -7 -21 -40 54 -69
158 -15 55 -51 190 -79 300 -28 110 -80 306 -115 435 -122 443 -188 716 -178
739 8 21 5 30 70 -211z m644 -10 c-28 -66 -70 -190 -95 -285 -59 -228 -144
-457 -161 -440 -7 6 44 274 96 505 l39 172 83 83 c46 45 84 82 85 82 2 -1 -20
-54 -47 -117z m645 -284 l35 -210 -34 -99 c-19 -55 -48 -131 -66 -170 -17 -38
-54 -127 -82 -197 -28 -70 -54 -125 -58 -123 -5 3 -12 20 -16 38 -8 38 -55
137 -65 137 -4 0 -10 -30 -14 -67 -13 -126 -45 -267 -89 -398 -35 -102 -45
-122 -45 -94 -1 20 3 49 8 65 9 26 29 198 46 389 6 63 5 68 -8 50 -8 -11 -30
-56 -48 -100 -31 -76 -78 -159 -85 -152 -2 2 12 43 32 93 58 147 133 372 164
494 16 63 40 149 53 190 l23 75 22 -140 c12 -77 27 -187 33 -245 6 -58 12
-106 13 -107 1 -2 24 104 50 235 47 239 75 423 76 498 0 36 8 60 16 51 2 -2
19 -98 39 -213z m-711 -745 c-14 -35 -37 -95 -51 -134 -33 -90 -104 -245 -113
-245 -4 0 -14 33 -22 73 l-16 72 24 30 c13 17 45 55 69 85 25 30 64 86 87 123
22 37 42 66 44 64 2 -2 -8 -32 -22 -68z m672 -147 c-9 -70 -16 -174 -16 -230
0 -88 -2 -102 -16 -102 -15 0 -16 10 -11 83 3 45 11 150 17 232 6 83 16 164
23 180 l12 30 3 -32 c2 -18 -4 -91 -12 -161z"/>
<path d="M1143 4616 c-35 -19 -17 -26 70 -26 79 0 80 0 62 20 -21 23 -95 26
-132 6z"/>
<path d="M1180 4571 c0 -6 5 -13 11 -16 15 -10 61 4 54 15 -8 13 -65 13 -65 1z"/>
<path d="M1040 4091 c0 -6 9 -34 21 -63 22 -58 56 -98 107 -130 l34 -21 41 42
42 42 -40 -6 c-39 -7 -42 -5 -122 70 -46 42 -83 72 -83 66z"/>
</g>
</svg>
