<?xml version="1.0" standalone="no"?>
<!DOCTYPE svg PUBLIC "-//W3C//DTD SVG 20010904//EN"
 "http://www.w3.org/TR/2001/REC-SVG-20010904/DTD/svg10.dtd">
<svg version="1.0" xmlns="http://www.w3.org/2000/svg"
 width="2814.000000pt" height="2628.000000pt" viewBox="0 0 2814.000000 2628.000000"
 preserveAspectRatio="xMidYMid meet">

<g transform="translate(0.000000,2628.000000) scale(0.100000,-0.100000)"
fill="#000000" stroke="none">
<path d="M14010 25854 c-36 -7 -130 -27 -210 -44 -80 -17 -183 -38 -228 -47
-70 -13 -89 -21 -115 -48 -18 -18 -54 -44 -82 -59 -27 -15 -92 -50 -144 -79
l-93 -52 -147 -282 -147 -282 -23 -224 c-18 -185 -20 -232 -11 -273 11 -42 57
-195 131 -434 11 -35 36 -94 54 -130 18 -36 41 -87 50 -115 9 -27 40 -115 69
-195 112 -304 146 -398 182 -500 21 -62 48 -117 64 -135 15 -16 30 -41 34 -55
3 -14 23 -36 45 -50 22 -14 72 -52 112 -85 41 -33 83 -62 94 -65 11 -3 29 -20
40 -38 14 -21 28 -31 45 -32 14 0 79 -9 144 -19 l119 -20 41 29 c23 15 64 41
91 58 28 16 88 53 135 82 47 29 99 60 115 70 17 10 68 41 115 70 47 29 110 68
141 86 31 19 59 42 62 51 4 10 15 32 24 48 10 17 40 69 66 116 46 85 47 87 47
176 0 64 4 94 13 102 22 17 27 3 27 -77 0 -75 -8 -108 -73 -292 -46 -130 8
-86 -492 -404 l-230 -146 -95 0 c-106 0 -235 26 -294 60 -20 11 -53 30 -73 42
-21 12 -49 27 -64 34 -14 8 -36 25 -49 39 -57 61 -122 -1 -70 -67 18 -24 30
-83 114 -586 3 -22 1 -21 -30 9 -44 42 -50 69 -64 269 -12 178 -22 210 -65
210 -19 0 -34 -13 -61 -50 -28 -40 -63 -66 -182 -139 -143 -87 -485 -252 -549
-266 -17 -3 -116 4 -220 16 -225 26 -653 31 -818 10 -118 -15 -304 -59 -395
-94 -82 -31 -209 -101 -285 -157 -33 -24 -77 -50 -98 -57 -21 -7 -62 -25 -90
-40 -29 -15 -55 -26 -58 -26 -13 4 -301 40 -539 69 -69 8 -133 17 -143 20 -17
5 -266 21 -479 31 -93 4 -108 2 -108 -11 0 -9 -6 -16 -14 -16 -19 0 -180 -53
-236 -78 -76 -33 -106 -40 -151 -32 -24 4 -111 20 -194 34 -82 15 -172 31
-200 36 -75 13 -382 69 -445 80 -144 26 -1559 40 -2145 21 -205 -7 -233 -6
-255 9 -25 16 -127 52 -245 85 -33 9 -80 25 -105 36 -25 10 -70 26 -100 34
-30 9 -116 45 -190 80 -277 130 -331 145 -541 152 -108 4 -151 2 -170 -7 -13
-7 -94 -59 -179 -116 -155 -103 -156 -104 -189 -171 -18 -38 -58 -100 -87
-139 -69 -89 -86 -157 -104 -399 -17 -224 -16 -230 63 -282 34 -22 78 -48 97
-58 19 -9 49 -28 67 -41 17 -13 41 -24 52 -24 26 0 26 -10 2 -41 -10 -13 -35
-55 -55 -94 -21 -38 -59 -108 -86 -155 -27 -47 -67 -119 -90 -160 -23 -41 -66
-118 -95 -170 -29 -52 -72 -129 -95 -170 -23 -41 -63 -113 -90 -160 -26 -47
-87 -157 -135 -245 -48 -88 -109 -198 -135 -245 -27 -47 -69 -123 -95 -170
-26 -47 -68 -123 -95 -170 -27 -47 -67 -119 -90 -160 -23 -41 -63 -113 -90
-160 -27 -47 -67 -119 -90 -160 -23 -41 -63 -113 -90 -160 -27 -47 -69 -123
-95 -170 -26 -47 -68 -123 -95 -170 -27 -47 -67 -119 -90 -160 -23 -41 -63
-113 -90 -160 -27 -47 -67 -119 -90 -160 -23 -41 -63 -113 -90 -160 -27 -47
-69 -123 -95 -170 -26 -47 -68 -123 -95 -170 -27 -47 -67 -121 -90 -165 -22
-44 -63 -118 -90 -165 -27 -47 -67 -119 -90 -160 -23 -41 -63 -113 -90 -160
-27 -47 -69 -123 -95 -170 -26 -47 -68 -123 -95 -170 -27 -47 -67 -119 -90
-160 -23 -41 -63 -113 -90 -160 -27 -47 -67 -119 -90 -160 -23 -41 -63 -113
-90 -160 -27 -47 -69 -123 -95 -170 -26 -47 -68 -123 -95 -170 -27 -47 -67
-119 -90 -160 -23 -41 -63 -113 -90 -160 -27 -47 -65 -116 -85 -154 -20 -37
-62 -95 -94 -127 -107 -108 -170 -207 -171 -269 0 -8 -7 -28 -15 -44 -17 -32
-21 -297 -8 -564 l6 -143 51 -53 c28 -29 74 -78 101 -109 83 -93 225 -191 390
-271 222 -107 327 -146 685 -251 69 -21 293 -72 415 -95 61 -12 139 -27 175
-35 79 -18 361 -61 525 -81 1382 -170 2952 -130 4170 106 220 43 552 128 720
185 39 13 86 29 105 36 73 25 261 104 315 132 90 48 211 121 265 161 118 87
244 236 254 301 4 22 8 193 10 380 2 302 0 345 -15 388 -25 69 -61 124 -121
188 -66 70 -88 100 -127 175 -18 32 -50 88 -71 124 -21 36 -55 94 -75 130 -20
36 -54 94 -75 130 -21 36 -53 90 -70 120 -17 30 -51 89 -75 130 -24 41 -56 98
-70 125 -15 28 -35 58 -44 68 -16 19 -42 62 -106 177 -20 36 -54 94 -75 130
-21 36 -55 94 -75 130 -20 36 -54 94 -75 130 -21 36 -53 90 -70 120 -17 30
-51 89 -75 130 -24 41 -58 100 -75 130 -17 30 -49 84 -70 120 -21 36 -55 94
-75 130 -20 36 -54 94 -75 130 -21 36 -55 94 -75 130 -87 156 -101 179 -116
196 -9 11 -27 37 -39 59 -12 22 -41 74 -65 115 -24 41 -58 100 -75 130 -17 30
-49 84 -70 120 -21 36 -55 94 -75 130 -20 36 -54 94 -75 130 -21 36 -55 94
-75 130 -20 36 -54 94 -75 130 -21 36 -53 90 -70 120 -17 30 -51 89 -75 130
-24 41 -58 100 -75 130 -17 30 -51 89 -75 130 -24 41 -57 101 -74 132 -17 31
-35 59 -41 63 -6 4 -22 27 -36 53 -14 26 -45 81 -69 122 -24 41 -58 100 -75
130 -17 30 -49 84 -70 120 -21 36 -55 94 -75 130 -20 36 -54 94 -75 130 -21
36 -55 94 -75 130 -20 36 -54 94 -75 130 -21 36 -53 90 -70 120 -17 30 -51 89
-75 130 -24 41 -58 100 -75 130 -17 30 -49 84 -70 120 -21 36 -53 92 -71 125
-17 33 -39 68 -48 78 -16 19 -42 62 -106 177 -20 36 -54 94 -75 130 -54 90
-92 161 -88 165 12 11 124 25 196 25 86 0 134 -8 202 -34 19 -8 55 -20 80 -27
61 -17 139 -59 151 -81 7 -14 22 -18 62 -18 29 0 77 -9 107 -21 30 -12 78 -27
105 -34 28 -8 75 -21 105 -30 200 -59 387 -96 875 -175 605 -98 657 -108 725
-136 19 -7 60 -20 90 -28 30 -8 93 -29 140 -46 132 -49 134 -48 780 50 212 32
453 66 535 74 211 22 461 30 510 18 163 -43 598 -140 750 -166 50 -9 113 -21
140 -26 128 -25 351 -43 590 -47 l260 -5 78 31 c43 17 84 31 91 31 8 0 60 -15
117 -34 57 -18 165 -53 239 -76 74 -24 140 -47 147 -52 6 -5 55 -80 108 -166
109 -176 177 -285 242 -384 23 -37 43 -70 43 -73 0 -3 23 -39 50 -80 28 -41
50 -77 50 -80 0 -3 21 -38 48 -78 67 -102 67 -102 107 -307 20 -102 67 -347
106 -545 63 -318 71 -369 66 -435 -4 -41 0 -223 8 -405 8 -181 24 -548 35
-815 11 -267 27 -633 35 -815 8 -181 18 -427 21 -545 l7 -215 -88 -169 c-48
-93 -104 -219 -125 -280 -40 -119 -64 -219 -150 -636 -12 -58 -32 -154 -45
-215 -13 -60 -33 -157 -45 -215 -12 -58 -32 -154 -45 -215 -81 -385 -79 -369
-110 -750 -14 -170 -32 -384 -40 -475 -13 -148 -38 -435 -64 -744 -5 -61 -7
-367 -4 -700 5 -511 7 -593 20 -603 14 -11 13 -53 -6 -386 -16 -286 -25 -384
-38 -416 -14 -36 -15 -50 -5 -87 7 -24 12 -95 12 -157 0 -92 5 -129 26 -202
25 -85 26 -99 22 -260 -3 -101 0 -225 8 -305 7 -74 22 -234 34 -355 11 -121
25 -258 30 -305 5 -47 16 -157 25 -245 44 -468 56 -588 65 -675 6 -52 19 -189
30 -305 11 -115 25 -260 31 -321 8 -74 9 -121 2 -140 -6 -19 -5 -179 4 -474 7
-245 12 -504 11 -576 -3 -116 -5 -135 -23 -154 -11 -12 -30 -26 -42 -31 -12
-4 -34 -30 -48 -56 -14 -26 -39 -66 -55 -88 -16 -22 -34 -56 -40 -75 -8 -26
-43 -63 -142 -150 -72 -63 -163 -144 -203 -180 -39 -36 -123 -110 -186 -165
-225 -197 -384 -345 -409 -381 -14 -19 -59 -78 -100 -130 -138 -172 -119 -136
-170 -329 -61 -232 -90 -346 -90 -350 0 -1 53 -46 118 -98 64 -52 157 -128
206 -169 200 -166 175 -153 327 -167 74 -7 159 -16 190 -20 57 -7 57 -7 142
48 47 31 110 72 141 91 31 19 72 46 90 60 18 14 52 34 74 44 26 12 45 29 52
47 7 16 19 34 27 41 8 6 28 39 45 72 17 34 41 75 53 91 13 17 35 55 50 85 15
30 33 62 41 70 7 9 31 47 53 85 71 124 131 228 181 310 27 44 63 105 79 135
16 30 45 78 63 107 18 28 45 73 60 100 16 26 34 57 40 68 13 19 161 213 258
335 192 244 252 324 260 346 6 14 10 155 10 316 l0 290 -32 131 c-26 112 -32
157 -36 297 -2 91 1 257 8 370 12 204 28 301 89 525 52 191 110 427 120 490 6
39 29 183 52 320 l41 250 -11 424 c-8 319 -8 427 0 438 13 15 8 119 -17 327
-13 105 -14 148 -5 225 8 66 8 107 1 131 -5 19 -10 58 -10 86 0 56 -48 204
-95 294 -12 22 -8 34 39 130 29 58 67 152 85 210 18 58 45 148 61 200 16 52
41 133 55 180 15 47 31 126 35 175 4 50 19 126 33 170 14 44 37 118 50 165 14
47 34 114 45 150 11 36 27 92 37 125 9 33 28 95 41 137 13 43 24 83 24 90 0 7
7 26 15 41 17 33 26 85 55 317 12 91 25 197 30 235 18 132 60 440 75 560 16
119 250 1152 265 1168 4 5 17 -17 29 -48 12 -31 29 -73 40 -93 10 -20 53 -140
95 -267 121 -362 237 -667 262 -695 13 -14 35 -57 48 -95 14 -39 50 -131 82
-205 41 -98 56 -146 55 -176 -1 -33 14 -73 80 -205 44 -90 87 -171 95 -180 7
-8 86 -157 175 -330 89 -173 167 -321 174 -329 7 -8 25 -40 40 -70 15 -30 37
-68 50 -85 12 -16 34 -52 49 -80 15 -27 40 -68 57 -90 16 -22 37 -51 47 -65 9
-14 30 -43 47 -66 28 -37 99 -179 141 -281 9 -24 21 -43 25 -43 23 0 127 -241
205 -476 l84 -253 0 -130 c0 -119 2 -136 29 -208 23 -59 33 -112 45 -223 13
-134 45 -329 97 -590 12 -58 34 -181 50 -275 16 -93 37 -208 45 -255 9 -47 16
-103 15 -126 -1 -37 41 -140 110 -266 19 -37 84 -178 169 -368 57 -127 59
-134 212 -620 53 -166 57 -176 83 -204 12 -13 27 -41 33 -62 6 -22 27 -97 47
-169 20 -71 42 -152 50 -180 7 -27 28 -99 45 -160 17 -60 40 -141 50 -180 10
-38 30 -110 45 -160 14 -49 32 -112 40 -140 7 -27 21 -75 30 -105 9 -30 19
-68 22 -83 3 -17 14 -32 27 -37 48 -18 59 -44 68 -168 8 -106 13 -129 58 -245
28 -70 50 -130 50 -133 0 -4 25 -69 55 -145 78 -195 111 -245 213 -314 37 -25
132 -91 212 -146 80 -55 161 -111 180 -125 20 -13 67 -35 105 -48 39 -13 97
-35 130 -49 167 -69 296 -121 350 -142 253 -95 254 -95 403 -110 l145 -15 261
50 c540 103 511 96 596 141 l79 42 17 70 17 70 -24 18 c-13 10 -55 40 -93 66
-37 27 -82 58 -100 71 -17 12 -47 33 -66 47 -19 14 -60 43 -90 65 -30 23 -71
52 -90 65 -19 14 -49 35 -66 47 -59 43 -139 99 -174 124 -19 13 -70 50 -114
81 -90 66 -184 132 -239 169 -21 13 -70 36 -110 51 -40 14 -83 36 -97 48 -14
13 -42 28 -63 35 -21 6 -50 22 -65 34 -15 13 -43 31 -62 41 -19 9 -44 25 -55
34 -11 9 -45 28 -75 42 -30 13 -69 38 -86 55 -17 17 -57 46 -89 65 -32 19 -66
39 -76 45 -53 31 -55 36 -200 449 -59 170 -64 191 -52 228 10 35 11 31 -142
1337 -36 311 -83 720 -105 910 -21 190 -48 388 -59 440 -12 52 -30 136 -40
185 -11 50 -29 136 -41 192 -20 103 -29 127 -140 418 -34 88 -79 216 -100 285
-21 69 -54 177 -73 240 -19 63 -40 158 -46 210 -6 52 -15 124 -20 160 -5 36
-17 126 -26 200 -9 74 -19 142 -22 150 -3 8 -6 78 -8 155 -2 99 -8 153 -19
185 -12 32 -19 101 -25 242 -5 108 -12 202 -17 209 -4 7 -11 86 -15 174 -4 88
-13 176 -19 195 -10 32 -39 204 -60 345 -11 80 -37 188 -61 256 -10 30 -19 69
-19 87 0 17 -6 51 -14 74 -12 36 -48 199 -87 393 -4 22 -17 74 -28 115 -11 41
-31 118 -45 170 -13 52 -35 129 -49 170 -14 41 -30 104 -36 140 -5 36 -17 107
-26 159 -24 142 -37 260 -36 314 1 27 -13 104 -32 175 -19 70 -41 165 -51 211
-9 47 -23 92 -31 101 -8 9 -27 59 -41 111 -14 52 -37 128 -49 169 -13 41 -40
134 -61 205 -20 72 -43 143 -51 159 -8 16 -28 60 -44 97 -16 38 -42 100 -58
137 -16 38 -43 100 -61 138 -17 38 -44 98 -60 134 -68 155 -165 374 -219 495
-71 160 -74 206 -62 859 21 1075 58 1679 112 1846 6 19 15 62 19 95 5 33 23
121 42 195 37 148 16 108 254 475 174 267 177 272 240 382 152 263 188 333
247 468 35 81 43 101 81 212 17 50 28 66 62 87 l41 26 836 0 c599 0 844 3 864
11 41 17 450 25 509 10 28 -7 50 -8 57 -3 7 5 80 13 162 16 310 14 492 36
1103 131 1343 209 1506 229 2027 241 237 6 691 -8 704 -22 3 -3 -2 -17 -11
-32 -10 -15 -36 -61 -58 -102 -23 -41 -63 -113 -90 -160 -27 -47 -67 -119 -90
-160 -23 -41 -66 -118 -95 -170 -29 -52 -72 -129 -95 -170 -23 -41 -63 -113
-90 -160 -26 -47 -87 -157 -135 -245 -48 -88 -109 -198 -135 -245 -27 -47 -69
-123 -95 -170 -26 -47 -68 -123 -95 -170 -27 -47 -67 -119 -90 -160 -23 -41
-63 -113 -90 -160 -27 -47 -67 -119 -90 -160 -23 -41 -63 -113 -90 -160 -27
-47 -69 -123 -95 -170 -26 -47 -68 -123 -95 -170 -27 -47 -67 -119 -90 -160
-23 -41 -63 -113 -90 -160 -27 -47 -67 -119 -90 -160 -23 -41 -63 -113 -90
-160 -27 -47 -69 -123 -95 -170 -26 -47 -68 -123 -95 -170 -27 -47 -67 -121
-90 -165 -22 -44 -63 -118 -90 -165 -27 -47 -67 -119 -90 -160 -23 -41 -63
-113 -90 -160 -27 -47 -69 -123 -95 -170 -26 -47 -68 -123 -95 -170 -27 -47
-67 -119 -90 -160 -23 -41 -63 -113 -90 -160 -27 -47 -67 -119 -90 -160 -23
-41 -63 -113 -90 -160 -27 -47 -69 -123 -95 -170 -26 -47 -68 -123 -95 -170
-27 -47 -67 -119 -90 -160 -23 -41 -63 -113 -90 -160 -27 -47 -65 -116 -85
-154 -20 -37 -62 -95 -94 -127 -107 -108 -170 -207 -171 -269 0 -8 -7 -28 -15
-44 -17 -32 -21 -297 -8 -564 l6 -143 51 -53 c28 -29 74 -78 101 -109 83 -93
225 -191 390 -271 222 -107 327 -146 685 -251 69 -21 293 -72 415 -95 61 -12
139 -27 175 -35 79 -18 361 -61 525 -81 1382 -170 2952 -130 4170 106 220 43
552 128 720 185 39 13 86 29 105 36 73 25 261 104 315 132 90 48 211 121 265
161 118 87 244 236 254 301 4 22 8 193 10 380 2 302 0 345 -15 388 -25 69 -61
124 -121 188 -66 70 -88 100 -127 175 -18 32 -50 88 -71 124 -21 36 -55 94
-75 130 -20 36 -54 94 -75 130 -21 36 -53 90 -70 120 -17 30 -51 89 -75 130
-24 41 -56 98 -70 125 -15 28 -35 58 -44 68 -16 19 -42 62 -106 177 -20 36
-54 94 -75 130 -21 36 -55 94 -75 130 -20 36 -54 94 -75 130 -21 36 -53 90
-70 120 -17 30 -51 89 -75 130 -24 41 -58 100 -75 130 -17 30 -49 84 -70 120
-21 36 -55 94 -75 130 -20 36 -54 94 -75 130 -21 36 -55 94 -75 130 -87 156
-101 179 -116 196 -9 11 -27 37 -39 59 -12 22 -41 74 -65 115 -24 41 -58 100
-75 130 -17 30 -49 84 -70 120 -21 36 -55 94 -75 130 -20 36 -54 94 -75 130
-21 36 -55 94 -75 130 -20 36 -54 94 -75 130 -21 36 -53 90 -70 120 -17 30
-51 89 -75 130 -24 41 -58 100 -75 130 -17 30 -51 89 -75 130 -24 41 -57 101
-74 132 -17 31 -35 59 -41 63 -6 4 -22 27 -36 53 -14 26 -45 81 -69 122 -24
41 -58 100 -75 130 -17 30 -49 84 -70 120 -21 36 -55 94 -75 130 -20 36 -54
94 -75 130 -21 36 -55 94 -75 130 -20 36 -54 94 -75 130 -21 36 -53 90 -70
120 -17 30 -51 89 -75 130 -24 41 -58 100 -75 130 -17 30 -49 84 -70 120 -21
36 -53 92 -71 125 -17 33 -39 68 -48 78 -18 21 -54 81 -106 180 -34 65 -35 70
-18 83 10 7 30 14 45 14 15 0 109 42 210 94 101 52 197 97 213 100 28 6 51 25
180 146 79 74 178 155 223 183 35 23 42 33 48 72 7 49 -1 144 -17 210 -20 80
-106 240 -153 283 -55 51 -242 146 -316 160 -30 6 -179 19 -330 28 -250 15
-287 15 -410 1 -152 -17 -274 -46 -326 -76 -19 -12 -42 -21 -50 -21 -9 0 -55
-20 -102 -44 -48 -24 -96 -46 -107 -49 -11 -3 -72 -24 -135 -47 -63 -23 -130
-45 -147 -51 -18 -5 -50 -14 -70 -20 -108 -31 -167 -39 -303 -39 -166 0 -315
14 -380 34 -25 8 -70 19 -100 25 -56 10 -199 46 -300 76 -190 57 -154 54 -853
55 -539 0 -669 -3 -775 -16 -70 -9 -138 -22 -152 -29 -14 -7 -43 -17 -64 -21
-21 -3 -62 -15 -90 -26 -28 -10 -87 -31 -131 -44 -44 -14 -133 -43 -198 -63
-65 -21 -120 -34 -122 -30 -3 4 -29 14 -58 23 -28 8 -70 21 -92 27 -25 8 -163
15 -365 20 -518 11 -701 23 -795 53 -44 13 -125 36 -180 51 -55 14 -125 35
-155 46 -30 11 -86 29 -125 40 -84 24 -371 167 -411 205 -44 41 -99 75 -136
84 -18 5 -58 17 -88 29 -200 73 -496 99 -750 65 -63 -9 -188 -18 -278 -21
l-162 -5 -46 38 c-26 20 -60 50 -78 66 -17 17 -51 46 -75 66 -25 21 -56 48
-70 61 -14 13 -51 40 -81 59 -90 57 -158 120 -169 155 -6 18 -31 91 -56 162
-25 72 -65 189 -90 260 -24 72 -53 155 -65 185 -18 49 -19 62 -9 122 14 86 36
170 46 177 19 14 194 477 223 591 l32 124 -17 241 c-13 182 -22 249 -35 275
-10 20 -25 73 -35 118 -16 75 -23 89 -76 151 -31 38 -71 88 -89 112 -108 150
-177 222 -290 302 -63 44 -135 97 -160 117 -25 20 -80 60 -122 88 l-77 52
-218 -1 c-138 -1 -242 -6 -283 -15z m2168 -3726 c9 -9 -1 -16 -46 -30 -31 -10
-84 -22 -117 -27 -157 -24 -427 -85 -510 -115 -105 -40 -201 -55 -595 -97
-211 -22 -389 -43 -395 -47 -5 -3 -65 -50 -131 -104 l-122 -99 -93 7 -94 7
-75 77 -75 78 -345 36 c-294 32 -362 42 -460 71 -63 18 -159 43 -213 55 -85
19 -97 24 -85 36 12 12 52 10 278 -15 146 -17 301 -33 345 -36 44 -4 110 -13
148 -21 38 -8 92 -14 120 -14 29 -1 101 -7 161 -14 l109 -14 69 -76 70 -76 54
0 c53 0 55 1 165 90 61 50 119 94 128 100 10 5 231 32 492 60 412 44 517 59
804 114 349 67 394 73 413 54z m-11741 -1075 c7 -10 27 -43 44 -73 17 -30 48
-84 69 -120 21 -36 55 -94 75 -130 64 -115 90 -158 106 -177 9 -10 31 -45 48
-78 18 -33 50 -89 71 -125 21 -36 53 -90 70 -120 17 -30 51 -89 75 -130 24
-41 58 -100 75 -130 17 -30 49 -84 70 -120 21 -36 55 -94 75 -130 20 -36 54
-94 75 -130 21 -36 55 -94 75 -130 20 -36 54 -94 75 -130 21 -36 53 -90 70
-120 17 -30 51 -89 75 -130 24 -41 55 -96 69 -122 14 -26 30 -49 36 -53 6 -4
24 -32 41 -63 17 -31 50 -91 74 -132 24 -41 58 -100 75 -130 17 -30 51 -89 75
-130 24 -41 58 -100 75 -130 17 -30 49 -84 70 -120 21 -36 55 -94 75 -130 20
-36 54 -94 75 -130 21 -36 55 -94 75 -130 20 -36 54 -94 75 -130 21 -36 53
-90 70 -120 17 -30 51 -89 75 -130 24 -41 53 -93 65 -115 12 -22 30 -48 39
-59 15 -17 29 -40 116 -196 20 -36 54 -94 75 -130 21 -36 55 -94 75 -130 20
-36 54 -94 75 -130 21 -36 53 -90 70 -120 17 -30 51 -89 75 -130 24 -41 58
-100 75 -130 17 -30 49 -84 70 -120 21 -36 55 -94 75 -130 20 -36 54 -94 75
-130 21 -36 55 -94 75 -130 60 -108 89 -156 105 -175 14 -17 34 -50 115 -195
20 -36 54 -94 75 -130 21 -36 51 -87 66 -115 15 -27 35 -61 45 -74 29 -37 23
-42 -23 -22 -72 32 -141 58 -193 75 -27 8 -84 27 -125 42 -75 26 -91 31 -275
79 -152 39 -386 92 -485 110 -363 64 -507 84 -990 135 -483 51 -1349 74 -1915
50 -1172 -49 -2031 -189 -2743 -445 -24 -8 -66 -27 -93 -40 -27 -14 -49 -23
-49 -20 0 7 33 67 100 185 27 47 69 123 95 170 26 47 68 123 95 170 27 47 67
119 90 160 23 41 63 113 90 160 27 47 67 119 90 160 23 41 63 113 90 160 27
47 69 123 95 170 26 47 68 123 95 170 27 47 67 119 90 160 23 41 63 113 90
160 27 47 68 121 91 165 23 44 63 118 90 165 26 47 68 123 94 170 26 47 68
123 95 170 27 47 67 119 90 160 23 41 63 113 90 160 27 47 67 119 90 160 23
41 63 113 90 160 27 47 69 123 95 170 26 47 68 123 95 170 27 47 67 119 90
160 23 41 63 113 90 160 27 47 67 119 90 160 23 41 63 113 90 160 27 47 69
123 95 170 26 47 68 123 95 170 26 47 87 157 135 245 48 88 109 198 135 245
27 47 67 119 90 160 23 41 66 118 95 170 29 52 72 129 95 170 23 41 63 113 90
160 47 82 84 148 173 310 23 42 46 81 50 88 12 18 48 15 64 -5z m19400 -204
c18 -30 46 -79 63 -109 17 -30 51 -89 75 -130 24 -41 55 -96 69 -122 14 -26
30 -49 36 -53 6 -4 26 -37 46 -73 19 -37 53 -96 74 -132 21 -36 53 -90 70
-120 17 -30 51 -89 75 -130 24 -41 58 -100 75 -130 17 -30 49 -84 70 -120 21
-36 55 -94 75 -130 20 -36 54 -94 75 -130 21 -36 55 -94 75 -130 20 -36 54
-94 75 -130 21 -36 53 -90 70 -120 17 -30 51 -89 75 -130 24 -41 55 -96 69
-122 14 -26 30 -49 36 -53 6 -4 24 -32 41 -63 17 -31 50 -91 74 -132 24 -41
58 -100 75 -130 17 -30 51 -89 75 -130 24 -41 58 -100 75 -130 17 -30 49 -84
70 -120 21 -36 55 -94 75 -130 20 -36 54 -94 75 -130 21 -36 55 -94 75 -130
20 -36 54 -94 75 -130 21 -36 53 -90 70 -120 17 -30 51 -89 75 -130 24 -41 53
-93 65 -115 12 -22 30 -48 39 -59 15 -17 29 -40 116 -196 20 -36 54 -94 75
-130 21 -36 55 -94 75 -130 20 -36 54 -94 75 -130 21 -36 53 -90 70 -120 17
-30 51 -89 75 -130 24 -41 58 -100 75 -130 17 -30 49 -84 70 -120 21 -36 55
-94 75 -130 20 -36 54 -94 75 -130 21 -36 55 -94 75 -130 60 -108 89 -156 105
-175 14 -17 34 -50 115 -195 20 -36 54 -94 75 -130 21 -36 51 -87 66 -115 15
-27 35 -61 45 -74 29 -37 23 -42 -23 -22 -72 32 -141 58 -193 75 -27 8 -84 27
-125 42 -75 26 -91 31 -275 79 -152 39 -386 92 -485 110 -363 64 -507 84 -990
135 -483 51 -1349 74 -1915 50 -1172 -49 -2031 -189 -2743 -445 -24 -8 -66
-27 -93 -40 -27 -14 -49 -23 -49 -20 0 7 33 67 100 185 27 47 69 123 95 170
26 47 68 123 95 170 27 47 67 119 90 160 23 41 63 113 90 160 27 47 67 119 90
160 23 41 63 113 90 160 27 47 69 123 95 170 26 47 68 123 95 170 27 47 67
119 90 160 23 41 63 113 90 160 27 47 68 121 91 165 23 44 63 118 90 165 26
47 68 123 94 170 26 47 68 123 95 170 27 47 67 119 90 160 23 41 63 113 90
160 27 47 67 119 90 160 23 41 63 113 90 160 27 47 69 123 95 170 26 47 68
123 95 170 27 47 67 119 90 160 23 41 63 113 90 160 27 47 67 119 90 160 23
41 63 113 90 160 27 47 69 123 95 170 26 47 68 123 95 170 26 47 88 158 136
248 91 166 138 251 224 402 27 47 69 123 95 170 26 47 68 123 95 170 27 47 67
119 90 160 23 41 63 113 90 160 27 47 65 117 86 156 l37 71 46 -12 c41 -10 50
-18 78 -66z m-15565 -6386 c34 -39 46 -77 39 -123 -14 -85 -47 -128 -151 -197
-154 -102 -362 -205 -530 -262 -149 -51 -222 -75 -265 -86 -279 -76 -456 -117
-615 -146 -161 -29 -412 -70 -478 -78 -42 -6 -113 -15 -157 -21 -262 -35 -777
-75 -1155 -90 -939 -36 -2006 38 -2800 196 -302 60 -386 81 -615 149 -44 13
-89 26 -100 28 -11 3 -45 15 -75 27 -30 12 -80 29 -110 39 -81 27 -258 110
-354 165 -77 45 -251 192 -271 231 -16 29 -16 32 14 94 l30 63 15 -35 c16 -40
185 -217 207 -217 7 0 50 -25 96 -56 357 -237 1180 -425 2223 -508 457 -37
591 -41 1295 -41 706 0 839 4 1285 41 1060 87 1865 270 2215 505 82 54 170
144 190 194 8 19 15 59 15 90 0 47 3 55 18 55 11 0 26 -8 34 -17z m7815 -19
c-3 -3 -12 -4 -19 -1 -8 3 -5 6 6 6 11 1 17 -2 13 -5z m11535 -101 c34 -39 46
-77 39 -123 -14 -85 -47 -128 -151 -197 -154 -102 -362 -205 -530 -262 -149
-51 -222 -75 -265 -86 -279 -76 -456 -117 -615 -146 -161 -29 -412 -70 -478
-78 -42 -6 -113 -15 -157 -21 -262 -35 -777 -75 -1155 -90 -939 -36 -2006 38
-2800 196 -302 60 -386 81 -615 149 -44 13 -89 26 -100 28 -11 3 -45 15 -75
27 -30 12 -80 29 -110 39 -81 27 -258 110 -354 165 -77 45 -251 192 -271 231
-16 29 -16 32 14 94 l30 63 15 -35 c16 -40 185 -217 207 -217 7 0 50 -25 96
-56 357 -237 1180 -425 2223 -508 457 -37 591 -41 1295 -41 706 0 839 4 1285
41 1060 87 1865 270 2215 505 82 54 170 144 190 194 8 19 15 59 15 90 0 47 3
55 18 55 11 0 26 -8 34 -17z"/>
<path d="M12181 15450 c0 -33 1 -34 10 -11 6 16 6 28 -1 35 -7 7 -10 -1 -9
-24z"/>
<path d="M14510 5430 c0 -6 -80 -10 -219 -10 -136 0 -222 -4 -226 -10 -4 -6
-73 -10 -175 -10 -102 0 -171 -4 -175 -10 -4 -6 -60 -10 -136 -10 -157 0 -164
-4 -155 -83 4 -28 6 -200 5 -382 l-1 -330 -30 -50 c-17 -27 -41 -61 -53 -75
-13 -14 -40 -49 -59 -79 -29 -42 -36 -63 -36 -100 0 -57 -25 -95 -259 -400
-14 -18 -37 -48 -51 -66 -14 -18 -45 -59 -70 -91 -25 -33 -54 -79 -64 -103
-19 -49 -118 -211 -169 -278 -18 -23 -66 -94 -107 -159 -41 -64 -83 -122 -93
-128 -10 -6 -26 -30 -37 -53 -26 -60 -98 -132 -169 -173 -60 -33 -61 -34 -61
-78 0 -79 -57 -136 -155 -157 -16 -4 -57 -15 -90 -25 -33 -10 -89 -26 -125
-35 -36 -10 -92 -25 -125 -35 -33 -10 -89 -25 -125 -35 -36 -9 -85 -24 -109
-31 -25 -8 -73 -14 -107 -14 -55 0 -68 4 -115 37 -241 164 -337 226 -383 248
-30 14 -72 46 -95 70 -23 25 -58 56 -79 70 -50 33 -73 75 -79 146 -6 63 -4 76
58 334 22 88 39 170 39 183 0 13 4 31 9 40 11 20 48 163 80 307 13 55 30 115
39 133 18 38 68 72 105 72 19 0 54 29 142 118 64 64 129 133 143 152 15 19
102 116 194 215 91 99 181 198 198 219 17 22 39 46 50 53 10 7 40 46 67 86 26
39 72 100 103 134 65 73 98 115 106 137 5 13 -2 16 -44 16 -28 0 -54 -4 -57
-10 -3 -5 -28 -10 -56 -10 -27 0 -49 -4 -49 -9 0 -5 -49 -12 -110 -16 -60 -3
-110 -11 -110 -16 0 -5 -27 -9 -60 -9 -33 0 -60 -4 -60 -10 0 -5 -16 -10 -35
-10 -19 0 -35 -4 -35 -10 0 -5 -22 -10 -49 -10 -28 0 -53 -4 -56 -10 -3 -5
-24 -10 -45 -10 -21 0 -42 -4 -45 -10 -3 -5 -19 -10 -35 -10 -16 0 -32 -4 -35
-10 -3 -5 -30 -10 -60 -10 -30 0 -56 -4 -59 -9 -3 -5 -33 -12 -66 -16 -33 -4
-63 -11 -66 -16 -3 -5 -21 -9 -40 -9 -19 0 -34 -4 -34 -10 0 -5 -18 -10 -39
-10 -22 0 -43 -4 -46 -10 -3 -5 -19 -10 -35 -10 -16 0 -32 -4 -35 -10 -3 -5
-19 -10 -35 -10 -16 0 -32 -4 -35 -10 -3 -5 -24 -10 -45 -10 -21 0 -42 -4 -45
-10 -3 -5 -19 -10 -35 -10 -15 0 -30 -5 -32 -11 -2 -6 -25 -13 -51 -16 -26 -3
-47 -10 -47 -14 0 -5 -16 -9 -35 -9 -19 0 -35 -4 -35 -10 0 -5 -11 -10 -24
-10 -14 0 -28 -4 -31 -10 -3 -5 -19 -10 -35 -10 -16 0 -32 -4 -35 -10 -3 -5
-16 -10 -29 -10 -25 0 -76 -21 -76 -32 0 -5 -11 -8 -25 -8 -13 0 -41 -9 -61
-20 -19 -11 -57 -23 -82 -27 -26 -3 -49 -9 -52 -12 -11 -13 -51 -31 -70 -31
-18 0 -56 -16 -70 -30 -13 -13 -52 -30 -68 -30 -22 0 -72 -22 -72 -32 0 -5 -5
-8 -11 -8 -12 0 -81 -31 -89 -39 -6 -7 -48 -31 -54 -31 -3 0 -7 8 -9 18 -4 16
-5 16 -6 0 -1 -12 -9 -18 -25 -18 -18 0 -25 -6 -28 -22 -2 -18 -11 -24 -35
-26 -25 -2 -33 -8 -33 -23 0 -15 -7 -19 -34 -19 -28 0 -35 -4 -38 -22 -2 -16
-11 -24 -30 -26 -19 -2 -28 -10 -30 -25 -2 -15 -11 -23 -29 -25 -17 -2 -29
-11 -32 -23 -4 -14 -14 -19 -36 -19 -26 0 -31 -4 -31 -25 0 -22 -4 -25 -34
-25 -25 0 -35 -5 -39 -20 -3 -12 -14 -20 -26 -20 -16 0 -21 -6 -21 -25 0 -20
-5 -25 -25 -25 -19 0 -25 -5 -25 -21 0 -12 -8 -23 -20 -26 -13 -3 -20 -14 -20
-29 0 -19 -5 -24 -25 -24 -21 0 -25 -5 -25 -30 0 -25 -4 -30 -24 -30 -18 0
-25 -6 -28 -22 -2 -15 -11 -24 -27 -26 -13 -2 -26 -12 -28 -23 -3 -10 -14 -19
-24 -19 -24 0 -28 -8 -44 -97 -20 -112 -34 -175 -45 -195 -6 -10 -10 -27 -10
-38 0 -11 -7 -23 -15 -26 -22 -9 -23 -1718 -1 -1740 8 -8 19 -14 24 -14 12 0
47 -41 56 -63 3 -11 15 -21 26 -24 11 -3 20 -12 20 -20 0 -16 24 -43 38 -43 6
0 24 -16 41 -35 17 -19 34 -35 39 -35 5 0 17 -9 27 -20 10 -11 23 -20 28 -20
5 0 20 -12 32 -26 22 -26 55 -48 88 -60 9 -3 17 -9 17 -13 0 -4 16 -13 35 -21
19 -8 35 -17 35 -22 0 -4 5 -8 11 -8 6 0 29 -15 52 -34 23 -18 57 -39 75 -47
17 -8 32 -16 32 -20 0 -3 16 -11 35 -19 19 -8 35 -17 35 -20 0 -3 16 -12 35
-20 19 -8 35 -17 35 -22 0 -4 16 -8 35 -8 19 0 35 -3 35 -8 0 -8 73 -42 90
-42 6 0 10 -3 10 -8 0 -4 15 -13 33 -21 17 -8 34 -17 37 -20 11 -13 51 -31 68
-31 22 0 72 -22 72 -32 0 -5 16 -8 35 -8 19 0 35 -4 35 -9 0 -5 13 -12 30 -16
16 -4 32 -11 35 -16 4 -5 16 -9 29 -9 25 0 76 -21 76 -32 0 -5 11 -8 24 -8 14
0 28 -4 31 -10 3 -5 19 -10 35 -10 16 0 32 -5 35 -10 3 -6 16 -10 29 -10 25 0
76 -21 76 -32 0 -5 15 -8 33 -8 18 0 42 -7 53 -15 10 -8 36 -15 56 -15 20 0
40 -5 43 -10 3 -6 16 -10 29 -10 25 0 76 -21 76 -32 0 -5 16 -8 35 -8 19 0 35
-4 35 -10 0 -5 18 -10 39 -10 22 0 43 -4 46 -10 3 -5 19 -10 35 -10 16 0 31
-4 34 -9 3 -5 33 -12 66 -16 33 -4 63 -11 66 -16 3 -5 21 -9 41 -9 20 0 44 -7
53 -15 10 -9 47 -18 93 -21 42 -4 77 -11 77 -15 0 -5 20 -9 45 -9 25 0 45 -4
45 -10 0 -5 13 -10 29 -10 17 0 33 -4 36 -10 3 -5 33 -10 66 -10 33 0 59 -4
59 -10 0 -5 15 -10 34 -10 19 0 36 -4 38 -10 2 -5 43 -13 91 -16 57 -5 91 -12
94 -20 3 -8 40 -15 114 -19 60 -4 109 -11 109 -16 0 -5 22 -9 49 -9 28 0 53
-5 56 -10 3 -6 30 -10 60 -10 30 0 57 -5 60 -10 3 -6 28 -10 56 -10 27 0 49
-4 49 -10 0 -6 31 -10 74 -10 41 0 78 -5 81 -10 3 -6 39 -10 80 -10 41 0 77
-4 80 -10 3 -5 28 -10 56 -10 27 0 49 -4 49 -9 0 -4 73 -11 163 -15 89 -4 166
-11 171 -17 6 -5 52 -9 103 -9 55 0 93 -4 93 -10 0 -6 38 -10 95 -10 57 0 95
-4 95 -10 0 -6 50 -10 130 -10 80 0 130 -4 130 -10 0 -6 51 -10 134 -10 79 0
137 -4 141 -10 4 -6 70 -10 165 -10 95 0 161 -4 165 -10 4 -6 93 -10 235 -10
142 0 231 -4 235 -10 4 -7 250 -10 705 -10 455 0 701 3 705 10 4 6 98 10 250
10 152 0 246 4 250 10 4 6 73 10 176 10 106 0 169 4 169 10 0 6 50 10 129 10
76 0 132 4 136 10 3 6 52 10 110 10 58 0 107 4 110 10 4 6 57 10 126 10 73 0
119 4 119 10 0 6 30 10 70 10 39 0 70 4 70 9 0 5 83 12 185 16 102 4 188 11
191 16 3 5 29 9 59 9 30 0 57 4 60 10 3 5 35 10 70 10 35 0 67 4 70 10 3 5 30
10 60 10 30 0 57 5 60 10 3 6 39 10 80 10 41 0 77 5 80 10 3 6 26 10 50 10 24
0 47 4 50 10 3 5 33 10 66 10 32 0 59 4 59 9 0 4 39 11 88 15 50 4 93 13 102
21 9 9 54 16 118 21 56 4 102 11 102 15 0 5 16 9 35 9 19 0 35 5 35 10 0 6 22
10 49 10 28 0 53 5 56 10 3 6 24 10 46 10 21 0 39 5 39 10 0 6 16 10 35 10 19
0 35 4 35 9 0 4 39 11 86 14 57 4 92 12 104 22 9 8 28 15 43 15 14 0 28 4 31
9 3 5 34 12 68 16 64 7 118 24 118 37 0 5 16 8 35 8 19 0 35 5 35 10 0 6 16
10 35 10 19 0 35 5 35 10 0 6 18 10 39 10 22 0 43 5 46 10 3 6 17 10 31 10 22
0 62 17 74 31 3 4 32 10 64 14 33 4 67 11 78 16 10 5 27 14 38 19 11 6 28 10
38 10 22 0 72 22 72 33 0 4 15 7 33 7 17 0 43 9 57 20 14 11 37 20 52 20 15 0
29 4 33 9 3 5 19 12 35 16 17 4 30 11 30 16 0 5 20 9 45 9 25 0 45 3 45 8 0 4
15 13 33 21 17 8 34 17 37 20 11 13 51 31 68 31 22 0 72 22 72 33 0 4 5 7 11
7 13 0 82 31 89 40 3 4 20 13 38 21 17 8 32 17 32 21 0 5 15 8 33 8 21 0 36 7
45 20 7 11 18 20 26 20 7 0 19 7 27 16 7 9 33 25 58 37 25 11 50 27 54 34 4 7
24 20 45 30 20 9 39 19 42 22 3 4 19 13 35 21 17 8 34 21 38 27 4 7 14 13 22
13 7 0 25 13 38 30 14 16 31 30 37 30 6 0 23 13 37 30 13 16 31 30 39 30 8 0
14 5 14 10 0 6 11 15 25 20 14 5 30 21 37 35 6 14 15 25 20 25 14 0 38 27 38
43 0 8 9 17 20 20 11 3 24 16 29 29 5 12 23 37 40 55 l31 32 -4 678 c-4 707
-10 835 -44 918 -11 28 -26 66 -33 85 -6 19 -18 52 -26 73 -7 20 -13 47 -13
58 0 35 -70 169 -142 270 -37 53 -68 103 -68 112 0 8 -37 46 -82 83 -46 37
-104 87 -129 110 -25 23 -63 53 -85 67 -21 14 -59 44 -84 67 -25 22 -57 47
-72 55 -15 8 -33 23 -40 33 -22 31 -86 74 -93 63 -5 -10 -40 3 -55 20 -11 12
-79 39 -99 39 -20 0 -59 17 -71 31 -3 3 -20 12 -37 20 -18 8 -33 17 -33 21 0
5 -20 8 -45 8 -25 0 -45 3 -45 8 0 10 -50 32 -71 32 -10 0 -39 11 -65 25 -26
14 -55 25 -65 25 -10 0 -34 9 -54 20 -20 11 -47 20 -60 20 -14 0 -25 5 -25 10
0 6 -9 10 -20 10 -11 0 -20 5 -20 10 0 6 -18 10 -39 10 -22 0 -43 5 -46 10 -3
6 -16 10 -29 10 -24 0 -76 21 -76 32 0 3 -34 9 -75 13 -41 4 -75 11 -75 16 0
5 -16 9 -35 9 -19 0 -35 5 -35 10 0 6 -16 10 -35 10 -19 0 -35 3 -35 8 0 12
-52 32 -86 32 -18 0 -36 5 -39 10 -3 6 -19 10 -36 10 -16 0 -29 5 -29 10 0 6
-15 10 -34 10 -19 0 -37 4 -40 8 -3 5 -42 12 -87 15 -46 4 -87 11 -93 17 -5 5
-22 10 -37 10 -15 0 -31 5 -34 10 -3 6 -19 10 -35 10 -16 0 -32 4 -35 10 -3 6
-33 10 -66 10 -33 0 -59 4 -59 10 0 6 -16 10 -35 10 -19 0 -35 5 -35 10 0 6
-27 10 -60 10 -33 0 -60 4 -60 10 0 6 -22 10 -48 10 -26 0 -53 5 -59 11 -6 6
-25 9 -42 7 l-31 -3 45 -55 c24 -30 69 -90 100 -132 38 -52 82 -97 138 -140
106 -81 219 -169 282 -219 28 -22 100 -78 160 -124 61 -46 133 -102 160 -124
28 -22 101 -79 164 -128 62 -48 130 -101 151 -118 53 -42 188 -146 219 -169
14 -11 40 -32 57 -46 17 -15 52 -37 77 -49 26 -13 55 -37 67 -55 27 -44 27
-118 0 -161 -19 -31 -37 -42 -170 -104 -82 -38 -203 -104 -255 -138 -29 -19
-73 -32 -165 -49 -69 -12 -145 -30 -169 -38 -24 -9 -60 -16 -80 -16 -20 0
-124 -16 -231 -35 -252 -45 -327 -46 -435 -4 -44 16 -84 34 -90 39 -6 5 -49
23 -95 40 -46 17 -89 35 -95 40 -7 5 -43 21 -81 36 -38 14 -74 30 -80 35 -6 5
-42 20 -80 35 -38 14 -74 30 -80 35 -6 5 -42 20 -80 34 -38 15 -79 33 -91 41
-12 7 -52 25 -89 39 -37 14 -72 29 -78 34 -6 5 -41 21 -78 34 -36 14 -77 32
-90 40 -13 8 -52 25 -87 37 -36 13 -78 38 -96 56 -35 35 -13 -21 -383 984
l-208 565 -39 3 c-22 2 -44 8 -49 13 -6 5 -65 9 -132 9 -71 0 -125 4 -129 10
-4 6 -78 10 -190 10 -112 0 -186 4 -190 10 -4 6 -90 10 -225 10 -135 0 -221 4
-225 10 -4 7 -255 10 -721 10 -469 0 -714 -3 -714 -10z m7298 -2074 c17 -19
34 -46 38 -60 3 -15 10 -29 15 -32 5 -3 9 -14 9 -25 0 -10 5 -19 10 -19 6 0
10 -9 10 -20 0 -11 -4 -20 -10 -20 -6 0 -10 -27 -10 -60 0 -33 -4 -68 -10 -78
-5 -9 -18 -37 -29 -62 -11 -25 -29 -54 -40 -64 -12 -11 -21 -25 -21 -33 0 -15
-23 -43 -35 -43 -4 0 -26 -16 -49 -35 -24 -19 -46 -35 -51 -35 -4 0 -29 -18
-55 -40 -26 -22 -53 -40 -58 -40 -6 0 -17 -8 -24 -18 -7 -10 -30 -26 -50 -35
-20 -10 -50 -28 -65 -40 -15 -12 -55 -36 -88 -52 -33 -16 -66 -38 -73 -47 -7
-10 -24 -18 -38 -18 -13 0 -24 -4 -24 -9 0 -5 -14 -12 -31 -16 -17 -4 -33 -13
-36 -21 -3 -8 -10 -14 -15 -14 -11 0 -80 -31 -88 -39 -12 -13 -51 -31 -68 -31
-21 0 -72 -22 -72 -32 0 -3 -14 -9 -31 -13 -17 -4 -33 -13 -36 -21 -3 -8 -19
-14 -39 -14 -35 0 -114 -29 -114 -42 0 -5 -16 -8 -35 -8 -19 0 -35 -3 -35 -7
0 -11 -50 -33 -72 -33 -9 0 -33 -9 -53 -20 -20 -11 -45 -20 -56 -20 -12 0 -33
-8 -47 -19 -17 -11 -54 -21 -99 -26 -40 -4 -73 -10 -73 -14 0 -10 -52 -31 -76
-31 -13 0 -26 -4 -29 -10 -3 -5 -19 -10 -35 -10 -16 0 -32 -4 -35 -10 -3 -5
-24 -10 -45 -10 -21 0 -42 -4 -45 -10 -3 -5 -19 -10 -36 -10 -16 0 -29 -3 -29
-8 0 -14 -56 -32 -118 -38 -35 -4 -65 -11 -68 -15 -3 -5 -18 -9 -34 -9 -16 0
-32 -4 -35 -10 -3 -5 -19 -10 -35 -10 -16 0 -32 -4 -35 -10 -3 -5 -30 -10 -60
-10 -30 0 -57 -5 -60 -10 -3 -5 -19 -10 -35 -10 -16 0 -32 -4 -35 -10 -3 -5
-19 -10 -35 -10 -16 0 -32 -4 -35 -10 -3 -5 -33 -10 -65 -10 -32 0 -60 -5 -62
-10 -2 -6 -43 -13 -91 -17 -48 -3 -90 -10 -93 -15 -3 -4 -27 -8 -55 -8 -27 0
-49 -4 -49 -10 0 -5 -18 -10 -39 -10 -22 0 -43 -4 -46 -10 -3 -5 -28 -10 -56
-10 -27 0 -49 -4 -49 -10 0 -6 -26 -10 -59 -10 -33 0 -63 -4 -66 -10 -3 -5
-26 -10 -50 -10 -24 0 -47 -5 -50 -10 -3 -5 -39 -10 -80 -10 -40 0 -75 -4 -77
-10 -1 -5 -58 -12 -126 -16 -67 -4 -125 -11 -128 -16 -3 -4 -32 -8 -65 -8 -33
0 -59 -4 -59 -10 0 -6 -36 -10 -89 -10 -50 0 -93 -4 -96 -10 -3 -6 -48 -10
-101 -10 -56 0 -94 -4 -94 -10 0 -6 -30 -10 -70 -10 -40 0 -70 -4 -70 -10 0
-6 -43 -10 -109 -10 -63 0 -112 -4 -116 -10 -4 -6 -55 -10 -120 -10 -65 0
-116 -4 -120 -10 -4 -6 -58 -10 -129 -10 -67 0 -126 -4 -131 -9 -6 -6 -188
-13 -417 -17 -225 -4 -408 -11 -408 -16 0 -11 -1157 -11 -1164 0 -3 5 -180 12
-393 16 -219 4 -392 11 -397 17 -6 5 -70 9 -143 9 -82 0 -133 4 -133 10 0 6
-50 10 -130 10 -80 0 -130 4 -130 10 0 6 -38 10 -95 10 -57 0 -95 4 -95 10 0
6 -38 10 -94 10 -53 0 -98 4 -101 10 -3 6 -40 10 -81 10 -43 0 -74 4 -74 10 0
6 -38 10 -95 10 -57 0 -95 4 -95 10 0 6 -22 10 -49 10 -28 0 -52 4 -55 9 -3 5
-73 12 -156 16 -82 4 -150 11 -150 16 0 5 -22 9 -49 9 -28 0 -53 5 -56 10 -3
5 -30 10 -60 10 -30 0 -57 5 -60 10 -3 6 -28 10 -56 10 -27 0 -49 5 -49 10 0
6 -26 10 -59 10 -33 0 -63 5 -66 10 -3 5 -26 10 -50 10 -24 0 -47 5 -50 10 -3
6 -33 10 -66 10 -32 0 -59 4 -59 9 0 5 -34 12 -75 16 -41 4 -75 11 -75 16 0 5
-22 9 -49 9 -28 0 -53 5 -56 10 -3 6 -19 10 -35 10 -16 0 -32 5 -35 10 -3 6
-24 10 -46 10 -21 0 -39 5 -39 10 0 6 -22 10 -49 10 -28 0 -53 5 -56 10 -3 6
-19 10 -35 10 -16 0 -32 4 -35 10 -3 5 -24 10 -46 10 -21 0 -39 4 -39 9 0 5
-29 12 -65 16 -36 3 -67 11 -70 16 -4 5 -24 9 -45 9 -21 0 -42 5 -45 10 -3 6
-19 10 -35 10 -16 0 -32 5 -35 10 -3 6 -19 10 -36 10 -16 0 -29 5 -29 10 0 6
-9 10 -20 10 -11 0 -20 5 -20 10 0 6 -13 10 -29 10 -17 0 -33 5 -36 10 -3 6
-21 10 -39 10 -19 0 -47 7 -62 15 -16 8 -40 15 -54 15 -14 0 -36 9 -50 20 -14
11 -37 20 -52 20 -15 0 -30 5 -33 10 -3 6 -22 10 -41 10 -30 0 -67 13 -84 30
-13 13 -52 30 -70 30 -10 0 -39 11 -64 25 -25 14 -58 25 -74 25 -17 0 -32 6
-35 14 -3 8 -23 18 -44 21 -35 6 -81 23 -93 35 -3 3 -18 12 -35 20 -16 8 -32
17 -35 21 -8 8 -77 39 -88 39 -5 0 -12 7 -16 15 -3 8 -17 15 -32 15 -23 0 -92
26 -104 39 -3 4 -18 13 -35 21 -16 8 -37 23 -46 32 -9 10 -21 18 -26 18 -6 0
-16 6 -22 14 -7 8 -42 29 -79 47 -37 19 -78 46 -90 61 -13 16 -29 28 -35 29
-7 0 -37 29 -67 64 -30 35 -60 64 -66 64 -6 1 -30 20 -52 44 -23 23 -58 55
-77 70 -19 16 -35 35 -35 42 0 7 -7 18 -15 25 -8 7 -15 21 -15 31 0 11 -4 19
-10 19 -18 0 -10 37 19 94 17 31 28 56 26 56 -3 0 4 16 15 35 11 20 20 44 20
55 0 45 34 14 44 -40 3 -19 20 -49 36 -67 17 -18 30 -36 30 -42 0 -13 90 -111
102 -111 12 0 47 -41 48 -55 1 -16 93 -109 120 -121 14 -7 41 -19 61 -28 19
-8 56 -33 81 -56 25 -22 51 -40 57 -40 6 0 11 -4 11 -10 0 -5 6 -10 13 -10 8
0 22 -9 32 -20 10 -11 24 -20 32 -20 7 0 16 -6 19 -13 3 -8 20 -20 39 -27 19
-8 35 -17 35 -20 0 -3 16 -12 35 -20 19 -8 35 -17 35 -22 0 -4 8 -8 18 -8 22
0 72 -22 72 -32 0 -5 5 -8 11 -8 6 0 27 -7 47 -16 21 -9 46 -20 57 -24 25 -9
114 -49 137 -61 10 -5 27 -9 38 -9 11 0 20 -4 20 -10 0 -5 11 -10 25 -10 14 0
25 -4 25 -10 0 -5 18 -13 40 -16 22 -4 43 -11 46 -15 3 -5 16 -9 30 -9 13 0
34 -5 47 -12 48 -25 58 -28 81 -28 14 0 28 -5 31 -10 3 -5 17 -10 31 -10 13 0
24 -4 24 -10 0 -5 13 -10 29 -10 17 0 33 -4 36 -10 3 -5 17 -10 31 -10 13 0
24 -4 24 -10 0 -5 15 -10 34 -10 19 0 37 -4 40 -9 3 -5 33 -12 67 -16 33 -4
63 -13 65 -20 3 -7 32 -15 67 -19 33 -3 66 -11 71 -16 6 -6 32 -10 58 -10 26
0 48 -4 48 -10 0 -5 13 -10 29 -10 17 0 33 -4 36 -10 3 -5 24 -10 45 -10 21 0
42 -4 45 -10 3 -5 28 -10 56 -10 27 0 49 -4 49 -9 0 -5 35 -12 78 -16 42 -4
84 -13 92 -20 8 -8 56 -16 108 -20 51 -4 95 -12 98 -16 3 -5 27 -9 55 -9 27 0
49 -4 49 -10 0 -5 22 -10 49 -10 28 0 53 -4 56 -10 3 -5 30 -10 60 -10 30 0
57 -5 60 -10 3 -5 33 -10 66 -10 33 0 59 -4 59 -10 0 -6 31 -10 74 -10 41 0
78 -4 81 -10 3 -5 30 -10 60 -10 30 0 56 -4 59 -9 3 -5 73 -12 156 -16 83 -4
153 -11 156 -16 3 -5 39 -9 80 -9 43 0 74 -4 74 -10 0 -6 38 -10 95 -10 57 0
95 -4 95 -10 0 -6 43 -10 109 -10 63 0 112 -4 116 -10 3 -6 50 -10 105 -10 55
0 102 -4 105 -10 4 -6 62 -10 141 -10 83 0 134 -4 134 -10 0 -6 58 -10 155
-10 97 0 155 -4 155 -10 0 -6 78 -10 214 -10 133 0 217 -4 221 -10 9 -14 1951
-14 1960 0 4 6 90 10 225 10 135 0 221 4 225 10 4 6 67 10 155 10 88 0 151 4
155 10 4 6 58 10 130 10 72 0 126 4 130 10 3 6 50 10 105 10 55 0 102 4 105
10 4 6 53 10 116 10 66 0 109 4 109 10 0 6 35 10 84 10 47 0 88 5 91 10 3 6
44 10 91 10 46 0 84 4 84 9 0 4 66 11 148 15 81 4 151 12 157 17 5 5 37 9 71
9 35 0 66 5 69 10 3 6 30 10 60 10 30 0 57 5 60 10 3 6 35 10 70 10 35 0 67 4
70 10 3 5 30 10 60 10 30 0 57 4 60 10 3 5 28 10 56 10 27 0 49 5 49 10 0 6
22 10 49 10 28 0 52 4 55 9 3 5 48 12 100 16 59 4 99 12 106 20 7 8 45 16 96
20 46 4 87 11 90 16 3 5 23 9 44 9 21 0 42 5 45 10 3 6 19 10 35 10 16 0 32 5
35 10 3 6 28 10 56 10 27 0 49 5 49 10 0 6 16 10 35 10 19 0 35 4 35 9 0 5 33
12 74 16 46 5 77 12 80 20 2 7 31 16 65 20 34 4 64 11 67 16 3 5 21 9 40 9 19
0 34 5 34 10 0 6 11 10 24 10 14 0 28 5 31 10 3 6 19 10 36 10 16 0 29 5 29
10 0 6 11 10 24 10 14 0 28 5 31 10 3 6 17 10 31 10 13 0 33 5 44 10 11 6 29
15 40 20 11 6 31 10 44 10 14 0 27 4 30 9 3 4 22 11 42 14 42 7 94 29 94 39 0
5 9 8 20 8 11 0 29 5 40 10 11 6 29 15 40 20 11 6 29 10 40 10 11 0 20 3 20 8
0 4 15 13 33 21 17 7 46 19 64 27 17 8 36 14 42 14 6 0 11 3 11 8 0 9 49 32
70 32 8 0 21 9 28 20 7 11 22 20 35 20 12 0 28 9 35 20 7 11 23 20 36 20 13 0
26 7 30 15 3 8 12 15 19 15 8 0 22 9 32 20 10 11 23 20 29 20 7 0 18 9 26 20
8 11 21 20 28 20 20 0 239 226 258 266 9 19 20 34 25 34 5 0 9 8 9 18 0 10 6
24 12 30 9 9 14 54 16 130 2 64 5 123 7 130 9 25 61 13 93 -22z"/>
</g>
</svg>
