<?xml version="1.0" standalone="no"?>
<!DOCTYPE svg PUBLIC "-//W3C//DTD SVG 20010904//EN"
 "http://www.w3.org/TR/2001/REC-SVG-20010904/DTD/svg10.dtd">
<svg version="1.0" xmlns="http://www.w3.org/2000/svg"
 width="398.000000pt" height="378.000000pt" viewBox="0 0 398.000000 378.000000"
 preserveAspectRatio="xMidYMid meet">

<g transform="translate(0.000000,378.000000) scale(0.100000,-0.100000)"
fill="rgb(68, 108, 128)" stroke="none">
<path d="M1977 3743 c-2 -4 -95 -291 -206 -638 -111 -346 -211 -658 -222 -692
-11 -35 -26 -66 -32 -70 -7 -5 -347 -10 -757 -13 l-744 -5 499 -363 c275 -199
546 -396 602 -437 120 -87 120 -86 74 -217 -16 -46 -81 -240 -144 -433 -64
-192 -152 -462 -197 -598 -45 -137 -79 -251 -76 -254 3 -3 11 -1 18 4 48 38
1180 864 1186 866 4 1 181 -124 392 -279 212 -154 480 -349 595 -434 116 -84
216 -157 223 -163 9 -7 11 -6 8 4 -3 8 -28 86 -56 174 -28 88 -127 392 -221
676 -93 284 -169 530 -169 546 0 39 12 49 270 233 118 85 377 271 575 414
l359 261 -752 3 c-711 2 -752 3 -761 20 -5 10 -75 223 -155 473 -189 592 -296
922 -300 927 -2 2 -6 0 -9 -5z m276 -1178 l114 -350 614 -5 614 -5 -489 -355
c-269 -195 -491 -360 -493 -367 -4 -9 328 -1055 364 -1150 3 -7 1 -13 -3 -13
-5 0 -225 158 -489 350 -264 193 -488 350 -498 350 -10 0 -26 -4 -36 -9 -10
-6 -231 -165 -492 -355 -260 -189 -475 -344 -476 -342 -1 1 83 259 187 573
105 314 190 578 190 586 0 13 -363 282 -852 631 -70 50 -127 94 -128 99 0 4
265 7 590 7 421 0 596 3 614 11 29 13 18 -16 247 699 78 245 144 449 147 455
6 9 44 -101 275 -810z"/>
</g>
</svg>
