<?xml version="1.0" standalone="no"?>
<!DOCTYPE svg PUBLIC "-//W3C//DTD SVG 20010904//EN"
 "http://www.w3.org/TR/2001/REC-SVG-20010904/DTD/svg10.dtd">
<svg version="1.0" xmlns="http://www.w3.org/2000/svg"
 width="348.000000pt" height="334.000000pt" viewBox="0 0 348.000000 334.000000"
 preserveAspectRatio="xMidYMid meet">

<g transform="translate(0.000000,334.000000) scale(0.100000,-0.100000)"
fill="rgb(68, 108, 128)" stroke="none">
<path d="M2254 3057 c-51 -25 -84 -60 -104 -111 l-10 -26 -344 0 c-331 0 -346
-1 -356 -19 -25 -47 2 -71 81 -71 32 0 59 -4 59 -9 0 -16 -250 -533 -271 -559
-17 -22 -19 -35 -14 -77 15 -114 88 -217 197 -276 60 -32 68 -34 163 -34 89 0
106 3 157 28 111 55 188 157 210 279 10 57 9 61 -14 86 -14 15 -58 97 -98 182
-40 85 -97 206 -126 268 l-53 112 203 0 203 0 30 -48 c19 -31 45 -55 76 -72
l47 -25 0 -426 0 -425 -56 -18 c-109 -34 -214 -172 -214 -281 0 -63 10 -65
320 -65 327 0 327 0 315 84 -17 129 -94 221 -225 267 l-45 16 -2 409 c-1 225
0 416 3 425 2 9 18 22 34 29 37 15 99 77 106 107 l6 23 204 0 c112 0 204 -4
204 -9 0 -19 -253 -538 -272 -558 -46 -49 7 -207 98 -293 71 -67 129 -92 226
-98 127 -7 238 41 315 139 64 82 96 219 59 256 -10 10 -75 140 -145 288 l-128
270 69 5 c46 3 72 10 78 20 14 22 12 36 -6 54 -13 14 -60 16 -357 16 l-342 1
-23 49 c-45 95 -159 134 -258 87z m156 -96 c36 -36 46 -73 30 -112 -31 -73
-114 -92 -172 -40 -28 25 -33 36 -33 76 0 40 5 51 33 76 45 40 102 41 142 0z
m-631 -441 l109 -235 -225 -3 c-124 -1 -227 -1 -229 1 -2 2 47 112 109 245 61
132 115 238 119 234 4 -4 56 -113 117 -242z m1360 0 l110 -235 -226 -3 c-124
-1 -228 -1 -230 1 -2 2 48 112 109 245 62 132 116 238 120 234 4 -4 57 -113
117 -242z m-1209 -342 c-1 -29 -41 -99 -78 -136 -100 -100 -264 -107 -370 -16
-37 32 -92 121 -92 151 0 10 55 13 270 13 209 0 270 -3 270 -12z m1354 4 c11
-18 -43 -110 -88 -149 -109 -96 -252 -96 -359 -2 -42 37 -87 111 -87 144 0 13
35 15 264 15 146 0 267 -4 270 -8z m-904 -443 c63 -14 116 -52 151 -106 16
-26 29 -51 29 -55 0 -4 -99 -8 -220 -8 -121 0 -220 2 -220 5 0 3 9 22 19 43
28 54 73 92 133 113 63 22 52 21 108 8z"/>
<path d="M1216 1525 c-36 -19 -164 -91 -285 -160 -120 -68 -226 -127 -234
-131 -11 -4 -24 9 -42 40 -22 37 -32 46 -55 46 -25 0 -434 -181 -487 -215 -13
-9 -23 -24 -23 -35 0 -22 440 -882 466 -911 9 -11 24 -19 31 -19 28 0 485 235
500 257 13 19 12 26 -12 73 -15 29 -25 53 -23 55 46 38 98 32 343 -40 705
-209 700 -208 776 -181 36 13 1036 622 1119 682 112 80 119 235 16 321 -62 50
-161 68 -237 41 -28 -10 -323 -192 -556 -344 -49 -32 -58 -46 -53 -84 3 -24
33 -41 60 -35 13 4 72 37 130 74 453 293 440 286 502 286 46 0 61 -4 82 -24
14 -13 28 -36 31 -52 14 -61 0 -71 -472 -362 -643 -395 -664 -407 -690 -407
-24 0 -45 6 -589 166 -345 101 -396 109 -475 77 -40 -15 -42 -15 -53 3 -45 76
-246 469 -244 476 2 5 129 81 283 168 231 132 287 160 320 160 24 0 209 -57
490 -151 496 -166 507 -171 507 -244 0 -28 -7 -45 -30 -67 -51 -52 -88 -49
-324 21 -253 76 -272 79 -298 56 -23 -21 -25 -44 -7 -68 7 -10 104 -44 246
-87 305 -91 360 -93 456 -9 99 87 98 220 -2 310 -36 33 -89 53 -509 193 -543
181 -545 181 -658 121z m-589 -437 c29 -57 116 -224 193 -372 78 -147 140
-270 138 -271 -8 -8 -329 -165 -337 -165 -5 0 -44 69 -86 153 -43 83 -97 188
-120 232 -138 261 -186 358 -182 369 3 7 49 32 103 55 55 24 124 56 154 72 30
16 62 29 70 29 9 0 36 -40 67 -102z"/>
<path d="M650 550 c-27 -27 -25 -62 3 -88 29 -27 71 -28 97 -2 41 41 10 110
-50 110 -17 0 -39 -9 -50 -20z"/>
</g>
</svg>
