<?xml version="1.0" standalone="no"?>
<!DOCTYPE svg PUBLIC "-//W3C//DTD SVG 20010904//EN"
 "http://www.w3.org/TR/2001/REC-SVG-20010904/DTD/svg10.dtd">
<svg version="1.0" xmlns="http://www.w3.org/2000/svg"
 width="93.000000pt" height="102.000000pt" viewBox="0 0 93.000000 102.000000"
 preserveAspectRatio="xMidYMid meet">

<g transform="translate(0.000000,102.000000) scale(0.100000,-0.100000)"
fill="rgb(68, 108, 128)" stroke="none">
<path d="M183 860 c-74 -16 -103 -37 -103 -77 0 -32 13 -35 61 -13 50 22 132
26 168 7 43 -22 64 -61 64 -119 0 -88 -36 -128 -122 -138 l-46 -5 -3 -97 c-3
-90 -1 -97 18 -103 11 -3 29 -3 40 0 17 5 20 15 20 63 0 68 6 78 45 87 134 32
188 206 103 328 -41 58 -149 87 -245 67z"/>
<path d="M683 863 c-15 -5 -16 -87 -6 -361 6 -164 8 -182 25 -187 10 -4 26 -4
36 -1 17 6 19 26 25 268 5 186 4 265 -4 275 -11 13 -52 16 -76 6z"/>
<path d="M207 238 c-14 -10 -18 -24 -15 -58 3 -38 7 -45 30 -51 41 -11 73 10
76 51 1 19 -1 41 -6 47 -13 20 -65 26 -85 11z"/>
<path d="M688 243 c-22 -5 -34 -64 -19 -91 21 -39 100 -32 103 10 5 74 -20 98
-84 81z"/>
</g>
</svg>
