<?xml version="1.0" standalone="no"?>
<!DOCTYPE svg PUBLIC "-//W3C//DTD SVG 20010904//EN"
 "http://www.w3.org/TR/2001/REC-SVG-20010904/DTD/svg10.dtd">
<svg version="1.0" xmlns="http://www.w3.org/2000/svg"
 width="279.000000pt" height="274.000000pt" viewBox="0 0 279.000000 274.000000"
 preserveAspectRatio="xMidYMid meet">

<g transform="translate(0.000000,274.000000) scale(0.100000,-0.100000)"
fill="rgb(68, 108, 128)" stroke="none">
<path d="M601 2719 c-117 -36 -191 -137 -191 -261 0 -108 51 -188 150 -240 37
-19 58 -23 120 -21 41 1 86 3 98 5 21 3 38 -22 153 -217 71 -121 132 -226 135
-232 3 -7 -15 -36 -41 -65 -27 -29 -64 -87 -84 -128 -35 -73 -36 -78 -34 -180
1 -58 3 -116 5 -129 3 -27 22 -20 -217 -85 -72 -19 -137 -38 -146 -41 -12 -4
-18 1 -22 22 -4 15 -23 51 -44 78 -121 159 -362 137 -453 -42 -35 -68 -35
-168 0 -236 48 -94 133 -146 240 -147 75 0 148 29 191 76 32 35 69 102 69 126
0 28 -7 26 328 115 l103 27 55 -62 c104 -116 266 -172 418 -143 33 6 61 10 62
8 1 -1 9 -40 18 -87 8 -47 24 -131 34 -187 l19 -103 -51 -23 c-63 -29 -121
-88 -142 -144 -9 -24 -20 -43 -23 -43 -3 0 -89 23 -191 50 -102 28 -190 50
-197 50 -7 0 -15 11 -18 25 -3 14 -8 37 -11 52 -8 38 -72 99 -121 113 -71 22
-148 -7 -197 -73 -30 -41 -30 -153 0 -194 69 -92 184 -106 268 -33 40 35 39
35 124 11 37 -11 129 -37 204 -57 l137 -37 20 -56 c23 -63 75 -122 135 -154
58 -30 174 -30 232 0 88 47 154 151 154 243 0 58 -34 140 -77 183 -38 39 -100
77 -127 77 -27 0 -31 13 -71 240 -13 74 -26 149 -30 165 -5 27 -1 33 34 58 22
15 56 47 75 70 38 46 96 161 96 190 0 9 5 17 11 17 5 0 56 -26 112 -58 56 -33
126 -72 155 -87 l52 -28 0 -56 c0 -107 72 -180 176 -181 65 0 132 41 158 95
26 55 18 142 -17 188 -50 66 -154 88 -229 47 l-37 -19 -185 102 -185 102 -10
56 c-13 74 -58 162 -116 227 -26 29 -45 58 -42 65 3 6 57 107 120 222 l115
210 77 7 c60 6 87 14 126 38 27 16 54 30 59 30 6 0 58 -28 116 -62 l105 -61
-6 -47 c-9 -64 8 -119 47 -157 75 -73 181 -73 256 0 81 78 60 216 -42 278 -37
23 -124 26 -164 5 -26 -13 -32 -11 -127 45 -143 83 -138 79 -126 112 17 45 13
147 -8 193 -26 58 -72 106 -128 134 -39 20 -62 25 -123 25 -64 -1 -82 -5 -122
-29 -92 -54 -137 -132 -138 -236 0 -80 30 -150 84 -198 l37 -32 -36 -65 c-19
-36 -51 -95 -72 -132 -80 -149 -125 -228 -133 -237 -5 -5 -30 0 -57 10 -67 26
-218 26 -290 -1 -29 -10 -54 -17 -56 -14 -3 4 -74 126 -219 375 l-58 102 32
52 c27 44 33 65 36 125 5 82 -14 137 -66 196 -60 68 -185 104 -271 78z m137
-94 c75 -32 112 -86 112 -165 0 -84 -48 -147 -131 -172 -122 -36 -252 90 -219
213 28 105 141 164 238 124z m1253 4 c73 -25 119 -90 119 -169 0 -85 -49 -149
-131 -171 -127 -34 -252 87 -219 212 27 101 134 160 231 128z m589 -509 c68
-68 -4 -186 -91 -150 -90 38 -66 170 31 170 26 0 47 -7 60 -20z m-1095 -406
c36 -13 69 -36 116 -83 80 -80 104 -137 104 -251 0 -114 -24 -171 -104 -251
-80 -80 -137 -104 -251 -104 -99 0 -166 24 -231 83 -65 59 -96 107 -115 185
-18 70 -14 144 12 220 18 52 94 143 148 176 82 51 215 61 321 25z m-1137 -488
c112 -59 133 -207 41 -290 -74 -68 -164 -68 -238 0 -91 81 -74 220 34 285 36
23 124 25 163 5z m2012 -101 c54 -54 15 -145 -62 -145 -101 0 -123 137 -28
173 25 10 64 -3 90 -28z m-1543 -573 c13 -9 27 -31 32 -47 31 -111 -125 -162
-169 -55 -33 80 68 156 137 102z m879 -91 c101 -46 133 -167 69 -263 -68 -103
-223 -101 -292 3 -59 90 -25 216 70 260 53 24 101 24 153 0z"/>
<path d="M1267 1636 c-82 -30 -143 -91 -173 -173 -27 -78 -12 -128 38 -121 18
2 26 13 36 48 30 106 73 152 155 165 51 9 67 20 67 49 0 46 -48 58 -123 32z"/>
</g>
</svg>
