<?xml version="1.0" standalone="no"?>
<!DOCTYPE svg PUBLIC "-//W3C//DTD SVG 20010904//EN"
 "http://www.w3.org/TR/2001/REC-SVG-20010904/DTD/svg10.dtd">
<svg version="1.0" xmlns="http://www.w3.org/2000/svg"
 width="345.000000pt" height="346.000000pt" viewBox="0 0 345.000000 346.000000"
 preserveAspectRatio="xMidYMid meet">

<g transform="translate(0.000000,346.000000) scale(0.100000,-0.100000)"
fill="rgb(68, 108, 128)" stroke="none">
<path d="M237 3417 c-20 -7 -55 -29 -77 -50 -76 -75 -71 60 -68 -1688 l3
-1566 28 -36 c60 -79 -60 -72 1282 -75 660 -2 1219 0 1242 3 51 7 96 42 126
99 22 40 22 50 25 471 3 472 6 457 -53 350 -15 -27 -65 -118 -111 -201 l-84
-151 0 -177 0 -176 -1112 2 -1113 3 0 1480 0 1480 1113 3 1112 2 0 -665 c0
-366 3 -665 8 -665 4 0 34 48 66 108 33 59 85 150 115 202 l56 95 0 490 c0
483 0 491 -22 535 -26 53 -62 93 -106 117 -30 17 -107 18 -1212 20 -884 1
-1189 -1 -1218 -10z"/>
<path d="M544 2787 c-3 -8 -4 -47 -2 -88 l3 -74 683 -3 683 -2 -3 87 -3 88
-678 3 c-561 2 -678 0 -683 -11z"/>
<path d="M3137 2471 c-49 -83 -52 -95 -25 -109 23 -11 99 -54 175 -99 l41 -24
38 68 c20 37 41 73 46 80 6 8 -8 23 -47 47 -30 20 -58 36 -62 36 -3 0 -28 14
-55 30 -26 17 -54 30 -62 30 -8 0 -30 -27 -49 -59z"/>
<path d="M540 2285 l0 -85 894 0 c706 0 895 3 899 13 2 6 4 44 3 82 l-1 70
-897 3 -898 2 0 -85z"/>
<path d="M2966 2198 c-27 -46 -77 -130 -111 -188 -34 -58 -90 -154 -125 -215
-35 -60 -96 -165 -137 -233 -40 -68 -73 -125 -73 -127 0 -2 -25 -45 -55 -95
-30 -50 -55 -93 -55 -95 0 -2 -25 -45 -55 -95 -30 -50 -55 -92 -55 -94 0 -2
-38 -68 -85 -147 l-85 -142 0 -144 c0 -78 2 -143 4 -143 3 0 73 40 110 63 11
7 46 28 78 48 51 31 66 48 113 128 30 51 55 95 55 97 0 2 25 44 55 94 30 50
55 93 55 95 0 2 25 45 55 95 30 50 55 93 55 95 0 3 17 33 38 67 21 35 51 86
66 113 16 28 53 93 84 145 30 52 72 124 92 160 86 149 156 270 207 355 29 50
53 95 53 100 0 10 -55 46 -155 100 -27 15 -54 31 -59 36 -17 15 -21 11 -70
-73z"/>
<path d="M542 1898 l3 -83 680 0 680 0 3 83 3 82 -686 0 -686 0 3 -82z"/>
<path d="M544 1547 c-3 -8 -4 -45 -2 -83 l3 -69 895 0 895 0 0 80 0 80 -893 3
c-743 2 -893 0 -898 -11z"/>
<path d="M544 1157 c-3 -8 -4 -45 -2 -83 l3 -69 680 0 680 0 3 83 3 82 -681 0
c-562 0 -682 -2 -686 -13z"/>
<path d="M634 741 c-23 -10 -54 -35 -69 -56 -24 -30 -28 -46 -28 -96 0 -51 4
-64 30 -97 55 -69 133 -88 207 -53 100 49 126 175 54 257 -55 63 -121 78 -194
45z"/>
<path d="M1195 748 c-42 -15 -93 -65 -106 -106 -17 -50 -6 -116 25 -157 95
-124 296 -57 296 99 0 117 -110 201 -215 164z"/>
</g>
</svg>
