<?xml version="1.0" standalone="no"?>
<!DOCTYPE svg PUBLIC "-//W3C//DTD SVG 20010904//EN"
 "http://www.w3.org/TR/2001/REC-SVG-20010904/DTD/svg10.dtd">
<svg version="1.0" xmlns="http://www.w3.org/2000/svg"
 width="789.000000pt" height="1155.000000pt" viewBox="0 0 789.000000 1155.000000"
 preserveAspectRatio="xMidYMid meet">

<g transform="translate(0.000000,1155.000000) scale(0.100000,-0.100000)"
fill="rgb(192, 192, 192)" stroke="none">
<path d="M6320 10924 c-25 -7 -60 -13 -78 -13 -52 -1 -97 -25 -109 -57 -6 -16
-23 -69 -38 -119 -68 -220 -248 -650 -381 -910 -110 -215 -204 -395 -227 -435
-15 -25 -42 -91 -62 -145 -20 -55 -42 -113 -50 -130 -34 -75 -114 -400 -115
-469 l0 -29 -132 7 c-153 9 -416 9 -429 0 -6 -3 -44 -2 -85 1 -42 4 -71 11
-64 15 12 7 -69 30 -105 30 -8 0 -45 15 -82 33 -64 30 -74 32 -179 32 -104 0
-113 -2 -153 -28 -45 -30 -59 -30 -43 0 8 13 7 22 -5 36 -13 14 -14 22 -5 43
30 64 2 133 -62 154 -30 10 -37 18 -52 67 -10 32 -31 68 -49 87 -64 62 -92 86
-103 86 -11 0 -16 21 -27 115 -3 27 -26 108 -51 180 -52 150 -80 253 -94 346
-8 56 -7 75 9 121 30 87 43 241 27 316 -15 71 -66 176 -111 231 -17 20 -43 55
-58 78 -34 54 -132 131 -175 139 -18 4 -42 14 -55 24 -58 45 -221 66 -340 44
-45 -9 -86 -19 -92 -24 -5 -4 -27 -13 -48 -20 -124 -39 -277 -175 -343 -304
-14 -26 -38 -66 -54 -88 -16 -21 -41 -72 -57 -111 -36 -94 -36 -167 -1 -262
27 -73 52 -200 43 -214 -2 -5 -12 -60 -21 -122 -13 -99 -20 -121 -49 -164 -41
-60 -106 -205 -115 -258 -11 -58 9 -224 36 -295 29 -78 30 -128 3 -207 -12
-33 -22 -82 -23 -109 -3 -45 -5 -49 -37 -60 -19 -7 -48 -21 -65 -32 l-31 -19
56 1 c31 1 62 3 70 5 22 6 32 -69 27 -191 -5 -127 -23 -217 -64 -330 -16 -47
-36 -104 -42 -127 -10 -32 -27 -53 -80 -96 -67 -56 -67 -56 -74 -118 -3 -34
-6 -89 -6 -122 0 -58 -12 -147 -31 -236 -6 -24 -23 -112 -39 -195 -15 -83 -38
-173 -50 -201 -12 -27 -37 -94 -56 -148 -21 -61 -51 -122 -78 -160 -24 -34
-61 -98 -81 -142 l-37 -80 -2 -170 c-2 -115 -8 -194 -19 -245 -10 -41 -22 -97
-28 -125 -31 -137 -89 -287 -184 -475 -41 -82 -105 -233 -145 -345 l-72 -200
-5 -145 c-4 -102 -9 -147 -18 -152 -7 -5 -16 -39 -20 -78 -8 -79 -33 -125 -80
-150 -37 -19 -60 -40 -68 -63 -10 -28 -41 -17 -45 16 -3 22 -6 25 -20 18 -10
-5 -33 -6 -52 -2 -32 6 -35 10 -38 44 -2 23 -8 37 -17 37 -7 0 -16 8 -20 19
-10 32 -3 124 12 161 8 19 26 71 39 115 14 44 34 105 45 136 10 31 19 67 19
81 0 32 32 128 75 226 38 86 63 183 94 352 11 63 35 189 52 280 16 91 37 203
44 250 8 47 33 155 56 240 23 85 51 187 61 225 17 65 69 205 138 370 16 39 34
90 39 115 6 25 35 112 66 194 37 100 63 190 80 279 13 73 34 166 46 207 11 41
27 107 34 145 17 90 62 278 81 333 8 23 21 63 30 90 25 76 46 112 102 176 28
34 52 65 52 69 0 15 -88 -54 -120 -94 -17 -21 -53 -85 -80 -141 -41 -86 -57
-134 -90 -288 -22 -102 -52 -230 -65 -285 -14 -55 -36 -158 -49 -230 -13 -71
-34 -157 -46 -190 -12 -33 -35 -103 -51 -155 -49 -159 -66 -210 -115 -345 -48
-135 -114 -346 -140 -450 -8 -33 -21 -87 -30 -120 -8 -33 -19 -98 -24 -145
-11 -107 -37 -230 -85 -395 -20 -71 -52 -188 -70 -260 -19 -74 -52 -168 -76
-218 l-42 -89 -23 62 c-12 34 -24 64 -28 67 -3 3 7 21 21 40 19 24 28 50 30
86 5 68 -17 104 -91 146 -46 27 -62 31 -93 25 -40 -7 -123 -49 -123 -63 0 -4
-13 -28 -30 -52 -35 -52 -37 -77 -9 -113 27 -35 119 -94 156 -102 30 -6 30 -7
36 -80 4 -41 13 -102 21 -136 8 -35 19 -104 24 -155 11 -94 10 -99 -28 -228
-16 -53 -6 -153 19 -204 11 -21 42 -57 68 -80 30 -26 44 -44 38 -50 -6 -5 -46
-16 -90 -25 -44 -9 -114 -27 -155 -41 l-75 -24 -32 37 c-40 46 -52 37 -59 -44
-5 -55 22 -210 46 -272 14 -32 38 -27 57 13 13 28 26 38 57 46 23 6 80 24 127
40 48 16 106 29 130 29 l44 0 39 -122 c22 -67 45 -147 52 -177 36 -161 56
-242 103 -402 43 -150 74 -280 121 -509 17 -84 40 -161 59 -198 10 -20 46
-149 80 -287 67 -272 71 -286 129 -485 21 -74 45 -160 52 -190 7 -30 23 -93
37 -140 14 -47 40 -141 58 -210 34 -127 73 -240 118 -340 13 -30 36 -93 51
-140 30 -94 65 -170 78 -170 4 0 8 -15 8 -34 0 -19 6 -36 13 -39 39 -14 -29
-19 -245 -19 -134 0 -268 -3 -298 -7 l-55 -9 45 -2 c43 -2 44 -3 18 -13 -30
-12 -42 -41 -24 -56 17 -14 44 -14 256 -2 208 13 1550 6 1810 -9 85 -5 250
-19 365 -31 137 -14 287 -22 430 -23 204 -1 470 9 523 20 29 6 28 25 -3 58
-22 24 -22 26 -5 26 25 0 35 17 13 23 -10 2 -244 1 -520 -1 -431 -4 -503 -3
-503 9 0 17 42 183 70 279 22 76 40 173 44 239 2 26 20 101 40 166 34 114 87
359 106 490 5 33 21 114 35 180 15 66 33 163 41 215 8 52 19 109 24 125 5 17
12 66 15 110 4 44 17 134 30 200 41 211 45 236 66 435 41 392 47 546 36 1020
-3 129 -2 334 2 455 4 121 4 292 0 380 -11 280 -29 626 -39 745 -11 127 -53
415 -70 470 -30 102 -73 437 -90 709 -12 191 -12 191 75 401 101 242 108 270
109 405 1 66 -5 158 -13 204 -19 114 -9 335 16 363 12 14 18 15 24 6 6 -9 17
-8 46 6 54 27 162 31 456 17 332 -16 493 -3 805 65 15 3 21 1 17 -6 -11 -17 1
-11 36 20 19 16 45 35 59 42 14 7 49 38 78 68 50 51 53 53 49 27 -4 -26 -2
-28 22 -23 14 3 47 8 74 11 l47 6 0 69 c0 76 41 340 64 410 15 45 30 169 42
355 4 55 13 117 20 139 8 21 14 53 14 70 0 17 5 38 10 46 19 30 31 2 125 -280
26 -80 70 -206 97 -280 89 -245 147 -424 154 -480 4 -30 10 -65 15 -76 11 -31
0 -36 -31 -14 -15 11 -48 25 -72 31 -41 11 -48 11 -64 -5 -15 -15 -26 -17 -68
-10 -28 5 -96 8 -151 8 -115 -1 -159 -13 -310 -86 -108 -52 -175 -105 -175
-139 0 -26 72 -92 136 -124 125 -63 396 -87 527 -46 18 5 65 15 105 21 101 14
168 50 225 118 34 43 34 68 -4 167 -16 44 -45 121 -63 170 -122 329 -173 462
-211 542 -13 28 -33 88 -44 132 -11 44 -36 117 -55 163 -19 46 -44 112 -55
148 -19 61 -20 65 -3 75 9 5 154 80 322 166 340 173 360 184 492 268 163 104
179 113 183 110 7 -8 -25 -118 -63 -214 -44 -110 -81 -222 -108 -330 -9 -38
-25 -86 -35 -105 -9 -19 -29 -78 -44 -130 -15 -52 -36 -120 -46 -150 -11 -30
-30 -105 -44 -167 -13 -61 -35 -146 -49 -187 -31 -92 -31 -97 -6 -127 l19 -24
1 38 c0 46 22 96 55 127 18 17 23 29 18 50 -8 44 33 202 132 505 26 77 64 201
86 275 23 74 47 149 55 167 8 19 12 44 8 60 -4 22 -3 25 5 13 9 -13 11 -13 11
2 0 9 5 29 12 45 l11 28 7 -36 c3 -20 1 -85 -6 -145 -7 -60 -27 -239 -44 -399
-17 -159 -35 -312 -40 -338 -6 -26 -10 -59 -10 -73 0 -22 4 -25 33 -22 31 3
32 5 39 58 21 168 38 373 43 510 3 85 13 227 21 315 7 88 15 180 17 204 2 46
27 72 27 29 0 -13 17 -52 38 -88 49 -84 113 -217 147 -305 76 -195 99 -252
149 -356 30 -63 66 -149 80 -191 26 -79 62 -256 54 -264 -3 -2 -31 9 -64 25
-68 34 -131 51 -101 28 19 -16 22 -33 7 -42 -5 -3 -51 6 -102 21 -82 23 -104
26 -188 20 -211 -13 -399 -96 -430 -191 -25 -75 25 -105 248 -150 22 -5 32
-11 28 -20 -12 -31 212 -18 384 23 124 30 178 54 222 101 22 22 45 41 53 41
31 0 39 29 27 103 -18 118 -49 248 -72 307 -17 44 -149 313 -190 388 -5 9 -43
89 -83 177 -41 88 -97 207 -125 265 -71 149 -82 178 -82 217 0 48 31 60 -372
-152 -37 -19 -71 -34 -75 -33 -10 2 -86 -31 -93 -40 -6 -10 -73 -48 -185 -107
-44 -23 -120 -64 -170 -92 -49 -28 -107 -54 -129 -57 -21 -4 -49 -18 -63 -32
-13 -13 -28 -24 -33 -24 -6 0 -10 -13 -10 -30 0 -16 -4 -30 -10 -30 -5 0 -10
10 -10 23 0 45 -19 55 -116 63 l-91 6 -7 -41 c-8 -52 6 -81 41 -81 30 0 33 17
-32 -200 -26 -85 -59 -200 -75 -255 -30 -110 -63 -204 -108 -310 -17 -38 -42
-110 -56 -160 -66 -225 -67 -226 -90 -235 -41 -15 -335 -40 -470 -40 -72 1
-189 5 -260 10 -130 8 -292 -1 -331 -19 -11 -6 -46 -17 -77 -26 -35 -9 -58
-21 -58 -29 0 -14 -56 -33 -66 -23 -8 8 50 45 111 72 31 14 58 32 62 41 7 20
-21 44 -51 44 -36 0 -182 -78 -234 -125 -35 -31 -53 -42 -56 -33 -3 7 -10 58
-16 113 -7 55 -18 154 -26 220 -17 147 -18 225 -3 225 6 0 24 11 41 25 69 59
178 51 333 -25 48 -23 115 -45 167 -56 83 -16 96 -16 214 0 104 14 167 16 363
10 202 -6 234 -5 225 7 -17 23 0 230 29 344 14 55 39 136 57 180 27 68 165
345 285 570 17 33 44 94 60 135 15 41 70 161 122 265 52 105 123 267 157 360
35 94 75 202 89 240 14 39 26 60 26 48 1 -13 6 -23 12 -23 7 0 9 -17 7 -43 -4
-53 36 -147 62 -147 24 0 43 -51 38 -102 -8 -68 -85 -347 -133 -478 -21 -57
-76 -252 -72 -256 2 -2 17 9 34 24 22 20 42 59 76 152 24 69 48 145 52 170 4
25 15 68 25 95 10 28 21 66 25 85 8 46 55 192 66 205 4 6 21 11 36 10 25 0 29
-5 40 -50 11 -44 12 -45 8 -10 -3 22 -8 58 -12 79 -6 39 -6 39 23 33 36 -7 60
6 68 36 4 16 19 29 48 41 33 12 39 19 29 26 -12 7 -13 11 -2 24 16 20 10 133
-8 162 -12 18 -12 18 -6 -1 16 -46 17 -140 2 -160 -26 -33 -43 -4 -56 95 -20
142 -35 113 -26 -50 4 -86 3 -140 -3 -140 -23 0 -41 41 -51 116 -16 110 -35
174 -53 174 -6 0 -8 -17 -4 -42 16 -122 27 -261 22 -273 -6 -17 -32 -10 -40
11 -7 18 -41 188 -51 254 -4 25 -11 52 -15 60 -15 26 -23 -14 -12 -52 20 -66
45 -215 39 -231 -19 -50 -57 8 -100 152 -16 55 -28 76 -45 84 -19 9 -22 16
-16 41 13 64 60 98 112 82 11 -4 40 3 66 14 43 18 50 18 82 5 19 -8 60 -38 91
-67 31 -29 51 -44 45 -33 -16 30 -102 100 -141 113 -19 7 -34 11 -35 11 -1 -1
-21 -7 -46 -15z m-3318 -169 c40 -8 82 -17 94 -20 14 -3 20 -12 20 -27 -1 -26
30 -44 100 -57 55 -10 101 -54 150 -144 25 -45 29 -63 28 -132 0 -88 -21 -139
-70 -172 -37 -24 -38 -11 -4 44 21 34 33 68 37 105 7 66 -10 85 -30 36 -27
-64 -134 -191 -182 -216 -48 -25 -150 -22 -212 7 -37 16 -53 29 -53 42 0 26
-7 24 -35 -9 -76 -91 -252 -179 -335 -168 l-45 6 27 -21 c27 -20 27 -20 11
-54 -9 -19 -24 -37 -34 -40 -27 -9 -89 -74 -89 -94 0 -10 9 -29 19 -42 13 -17
17 -34 14 -54 -4 -21 -2 -27 5 -20 6 6 12 21 14 35 l3 25 173 11 c95 6 176 15
180 19 4 4 -81 6 -188 4 l-195 -4 -3 23 c-2 16 3 25 20 31 13 5 27 5 32 0 6
-5 19 -9 29 -9 24 0 213 45 253 60 78 30 153 42 314 50 111 5 192 5 220 -1 25
-6 57 -13 73 -16 22 -4 27 -11 27 -34 l0 -29 -107 2 c-113 3 -245 -12 -280
-30 -25 -14 -49 -42 -35 -42 5 0 25 6 43 14 26 11 74 14 189 12 88 -2 160 1
168 7 9 7 12 4 12 -12 0 -14 -6 -21 -19 -21 -10 0 -21 -7 -25 -15 -3 -8 -15
-15 -26 -15 -40 0 -19 -18 30 -24 47 -6 50 -8 50 -36 0 -16 -4 -31 -9 -34 -4
-3 -46 -10 -92 -16 -46 -6 -129 -19 -184 -30 -55 -11 -140 -26 -190 -34 -49
-8 -118 -21 -153 -30 -68 -18 -238 -21 -248 -4 -3 5 -14 6 -25 3 -21 -7 -24
-1 -33 62 l-6 41 188 1 c171 0 316 11 330 25 6 7 -47 8 -315 8 -203 -1 -260
-9 -234 -35 14 -14 14 -62 1 -87 -14 -26 -3 -47 32 -59 l30 -11 -4 -227 c-4
-180 -8 -237 -21 -272 -21 -53 -21 -61 -3 -61 40 0 66 176 56 382 -6 122 2
129 18 17 6 -43 28 -126 48 -185 32 -97 36 -117 31 -178 -7 -85 -46 -170 -91
-197 -44 -27 -107 -25 -156 6 -50 32 -89 107 -120 234 -38 154 -22 253 61 371
76 110 102 233 88 415 -11 140 -22 185 -65 265 -21 41 -34 78 -34 103 0 46 36
117 87 174 21 23 54 70 73 104 90 160 272 269 482 288 9 0 50 -6 90 -14z m533
-525 c10 -116 -22 -207 -60 -169 -13 13 -12 21 5 67 11 29 23 87 27 128 7 90
19 79 28 -26z m-639 -60 c10 -11 28 -30 39 -41 20 -21 114 -69 134 -69 6 0 11
-4 11 -8 0 -11 -59 -29 -120 -38 -52 -7 -147 -35 -204 -59 -47 -20 -200 -65
-221 -65 -19 0 -21 69 -2 92 6 9 34 18 62 22 98 12 206 80 252 156 21 35 24
36 49 10z m4204 -164 c0 -2 -7 -7 -16 -10 -8 -3 -12 -2 -9 4 6 10 25 14 25 6z
m-120 -66 c0 -5 -5 -10 -11 -10 -5 0 -7 5 -4 10 3 6 8 10 11 10 2 0 4 -4 4
-10z m-46 -24 c-11 -8 -34 -18 -50 -21 -24 -5 -23 -3 11 14 48 23 68 27 39 7z
m-324 -161 c0 -8 -82 -47 -87 -41 -3 3 14 14 38 25 52 23 49 22 49 16z m-3404
-159 c17 -13 19 -30 22 -138 2 -71 -1 -141 -7 -165 -17 -64 -71 -135 -121
-160 -61 -32 -64 -36 -61 -98 2 -52 1 -56 -31 -75 -24 -15 -50 -20 -98 -20
-80 0 -138 25 -171 71 -13 19 -37 45 -52 58 -27 23 -61 86 -94 176 -18 51 -73
251 -73 269 0 10 36 14 153 20 147 6 279 24 306 40 12 8 147 33 187 35 11 1
29 -5 40 -13z m299 -13 c37 -40 50 -67 80 -172 27 -91 27 -96 15 -210 -6 -64
-20 -146 -31 -183 -39 -131 -130 -205 -185 -151 -44 45 -57 149 -30 253 8 30
21 125 30 210 23 208 23 210 46 248 24 39 41 40 75 5z m2581 -98 c-11 -8 -27
-15 -35 -15 -13 1 -12 4 3 15 11 8 27 15 35 15 13 -1 12 -4 -3 -15z m-225
-329 c-57 -412 -99 -644 -126 -695 -8 -17 -15 -39 -15 -50 0 -11 -3 -26 -6
-35 -6 -17 -88 -76 -104 -76 -14 0 4 87 50 245 12 39 44 160 71 270 28 110 57
211 64 225 7 14 16 44 20 65 10 57 48 161 53 145 3 -7 0 -50 -7 -94z m-2082
-109 c26 -50 31 -71 31 -131 0 -140 -80 -195 -166 -114 l-31 29 39 78 c21 44
41 101 44 127 10 91 12 95 34 82 10 -7 33 -39 49 -71z m-1066 -90 c35 -27 66
-38 146 -55 127 -27 150 -27 213 0 61 26 76 19 96 -42 13 -38 13 -49 -2 -96
-19 -61 -74 -132 -126 -163 -19 -11 -55 -41 -80 -66 -44 -45 -60 -54 -60 -35
0 17 -58 40 -120 47 -33 3 -60 2 -60 -3 0 -5 28 -18 62 -29 35 -11 69 -27 76
-35 7 -8 24 -30 38 -47 45 -57 111 -37 148 46 15 32 31 46 87 76 38 20 92 44
121 54 175 62 200 79 159 107 -29 21 -27 44 5 44 18 0 38 -13 65 -42 21 -24
38 -46 39 -49 0 -4 -10 -9 -23 -13 -13 -3 -63 -31 -112 -62 -50 -31 -114 -67
-144 -80 -30 -13 -76 -40 -102 -59 -27 -19 -52 -35 -55 -35 -14 0 -134 -97
-140 -112 -3 -10 -10 -18 -15 -18 -20 0 -186 95 -231 132 -31 25 -48 34 -48
25 0 -12 -16 -8 -72 15 -80 33 -101 48 -79 55 19 8 61 102 61 140 0 18 -5 43
-11 57 -11 23 -7 30 39 82 54 61 86 131 76 170 -8 31 -2 30 49 -9z m1214 -47
c35 -21 49 -55 39 -95 -6 -24 -8 -24 -29 -10 -40 26 -68 72 -61 100 7 30 10
30 51 5z m-42 -232 c-12 -55 -130 -366 -183 -486 -28 -62 -48 -120 -45 -128
10 -28 36 -9 67 48 17 32 36 58 41 58 6 0 38 29 72 66 33 36 63 62 66 57 3 -4
10 -68 17 -140 9 -96 9 -145 2 -175 -6 -24 -12 -83 -13 -133 -4 -204 -40 -498
-69 -563 -27 -60 -96 -161 -133 -193 -32 -28 -121 -65 -227 -94 -110 -30 -130
-36 -135 -45 -3 -5 -36 -6 -73 -3 -92 7 -405 -14 -472 -32 -30 -8 -75 -15
-100 -15 -65 0 -167 -52 -188 -97 -12 -25 -13 -38 -6 -51 20 -31 50 -26 94 18
l41 41 111 10 c61 5 115 12 121 16 5 3 79 7 163 9 l154 3 72 -36 c163 -79 222
-141 316 -328 53 -107 69 -178 53 -242 -26 -104 -102 -324 -154 -444 -61 -141
-98 -203 -202 -334 -39 -49 -83 -108 -97 -131 -15 -22 -43 -61 -65 -86 -80
-93 -118 -141 -122 -152 -2 -6 18 14 45 44 66 74 156 159 174 165 18 7 68 66
291 345 94 118 174 214 178 212 10 -4 1 -113 -14 -167 -7 -27 -25 -91 -39
-141 -14 -51 -28 -116 -31 -145 -4 -30 -16 -79 -27 -109 -31 -87 -195 -415
-266 -529 -35 -58 -67 -114 -72 -125 -4 -12 -46 -74 -92 -138 -45 -64 -103
-154 -128 -200 -25 -45 -70 -110 -100 -144 -31 -34 -94 -121 -140 -195 -47
-73 -95 -146 -108 -161 -13 -15 -57 -78 -98 -140 -68 -104 -88 -145 -65 -136
5 2 68 86 140 188 72 102 148 205 169 230 21 25 51 63 67 85 16 22 62 75 102
117 39 42 84 96 99 120 14 24 39 57 54 73 42 45 190 245 190 257 0 5 26 53 58
107 81 132 153 269 199 376 22 50 63 132 91 184 29 52 55 106 59 120 10 41 64
175 75 186 6 7 9 -44 7 -150 -1 -88 1 -194 5 -235 5 -42 4 -122 -2 -180 -10
-105 -18 -132 -149 -520 -16 -47 -37 -119 -46 -160 -57 -248 -151 -604 -197
-745 -21 -66 -50 -156 -63 -200 -14 -44 -37 -106 -51 -137 -14 -31 -31 -80
-37 -110 -13 -64 -59 -184 -180 -478 -106 -256 -359 -769 -421 -853 -123 -166
-180 -288 -164 -353 6 -22 9 -24 22 -13 8 7 22 26 30 43 19 43 76 127 162 241
83 110 193 300 267 460 28 60 84 175 125 255 128 250 188 377 200 422 7 23 24
67 40 98 15 30 35 85 44 123 9 37 30 98 46 135 15 37 38 101 50 142 12 41 33
102 46 136 40 104 174 608 225 844 12 58 34 139 50 181 93 256 123 368 164
624 20 121 37 221 39 222 2 2 6 -56 9 -129 3 -73 15 -194 27 -268 24 -145 24
-214 0 -700 -5 -107 -9 -386 -9 -620 1 -526 -12 -709 -81 -1130 -21 -129 -41
-260 -45 -290 -12 -115 -49 -325 -85 -490 -12 -52 -25 -126 -30 -165 -15 -117
-69 -380 -95 -457 -13 -40 -36 -125 -50 -188 -14 -63 -32 -131 -39 -150 -8
-19 -17 -67 -21 -105 -4 -39 -15 -109 -26 -158 -10 -48 -15 -95 -12 -104 6
-14 -28 -15 -388 -8 -217 4 -396 9 -398 11 -3 2 5 14 15 27 35 39 54 76 75
145 12 37 37 97 56 134 22 43 33 74 28 87 -3 11 1 37 10 58 9 21 32 81 52 133
19 52 61 154 93 225 32 72 65 153 74 180 9 28 52 113 96 190 44 77 112 217
151 310 39 94 88 208 109 255 43 96 93 275 111 395 6 44 25 148 41 230 17 83
36 183 44 224 7 41 20 95 28 120 92 281 158 723 115 766 -14 14 -17 13 -39
-10 -23 -25 -85 -240 -126 -440 -21 -99 -66 -272 -100 -385 -14 -47 -31 -103
-37 -125 -5 -22 -32 -71 -58 -110 -43 -62 -74 -117 -100 -180 -5 -11 -18 -51
-30 -90 -23 -75 -51 -146 -105 -263 -19 -41 -34 -75 -34 -77 0 -2 -47 -101
-105 -220 -58 -119 -117 -250 -130 -290 -22 -67 -74 -183 -110 -245 -8 -14
-37 -72 -64 -130 -60 -125 -132 -206 -241 -270 -78 -46 -75 -46 -142 12 -35
30 -133 169 -168 238 -51 101 -118 302 -130 390 -6 47 -22 140 -36 208 -31
158 -32 267 -3 325 30 60 86 132 160 207 68 69 143 176 234 335 17 29 45 70
63 91 54 65 137 184 208 300 110 178 133 219 186 330 28 59 66 131 84 161 18
30 43 85 54 121 24 74 53 127 117 220 51 72 51 102 2 102 -47 0 -100 -66 -174
-212 -35 -70 -72 -140 -83 -155 -11 -16 -55 -100 -99 -189 -43 -88 -97 -187
-120 -219 -22 -33 -57 -90 -77 -127 -20 -37 -51 -86 -69 -110 -18 -24 -56 -77
-84 -118 -29 -41 -74 -96 -101 -122 -46 -44 -54 -48 -101 -48 -70 0 -97 30
-136 150 -10 30 -43 104 -73 165 -53 106 -55 115 -73 255 -30 235 -40 398 -44
681 -2 147 -6 297 -10 335 -7 85 3 108 37 78 67 -59 188 -124 231 -124 110 0
331 127 521 301 33 30 77 65 98 78 57 34 108 96 108 131 0 32 -19 41 -26 12
-5 -18 -100 -83 -149 -102 -16 -6 -52 -29 -80 -50 -27 -21 -68 -48 -90 -60
-22 -12 -49 -30 -60 -39 -34 -29 -198 -100 -247 -107 -43 -5 -51 -3 -85 24
-21 16 -52 36 -69 45 -42 22 -108 96 -139 157 -55 109 -67 310 -33 570 11 87
28 130 28 72 0 -100 132 -243 293 -316 31 -14 87 -45 123 -67 36 -23 80 -45
97 -48 23 -5 33 -13 35 -29 4 -26 33 -30 53 -6 7 8 26 22 43 31 48 24 192 159
243 227 25 33 60 76 77 95 19 21 26 35 19 38 -9 3 -8 14 2 44 l14 39 -27 -14
c-15 -8 -69 -60 -121 -116 -93 -100 -95 -102 -130 -95 -20 3 -70 10 -111 14
-120 12 -174 42 -262 147 -40 48 -92 109 -116 135 -96 106 -165 296 -165 459
0 87 5 107 68 259 15 35 35 104 45 155 10 50 18 78 19 61 2 -46 35 -167 81
-300 43 -122 56 -160 83 -250 26 -88 95 -267 106 -278 23 -23 32 7 16 54 -8
24 -28 109 -45 188 -17 79 -33 147 -35 151 -7 11 -33 152 -51 270 -7 52 -20
115 -28 140 -8 25 -26 92 -41 150 -14 58 -35 124 -45 148 -16 37 -70 235 -70
258 0 4 12 -4 28 -18 89 -85 192 -84 192 1 0 12 -39 64 -92 123 -108 122 -140
184 -169 329 -16 83 -19 125 -14 209 3 60 2 128 -4 158 -8 40 -8 58 2 72 9 16
9 24 -1 40 -10 17 -10 26 2 49 9 16 25 64 37 107 19 66 23 105 23 239 0 88 -4
184 -8 212 -7 45 -6 54 9 59 9 4 23 0 32 -9 18 -18 43 -116 43 -171 0 -73 51
-309 75 -351 13 -22 27 -58 30 -80 10 -55 80 -222 109 -260 48 -63 143 -158
154 -154 6 2 -18 42 -54 89 -76 101 -139 219 -164 312 -10 36 -30 84 -43 105
-14 21 -30 65 -37 98 -6 33 -20 87 -30 120 -10 33 -21 91 -25 128 -4 37 -11
82 -16 100 l-8 32 20 -25 c11 -13 38 -54 59 -90 94 -162 274 -363 403 -452 36
-24 65 -37 74 -33 19 7 30 -4 -114 119 -57 49 -103 91 -103 95 0 3 -34 42 -75
86 -42 44 -105 123 -140 175 -36 52 -79 112 -96 133 l-31 37 55 0 c41 0 69 -7
113 -30 32 -17 104 -48 159 -69 55 -21 127 -55 159 -75 33 -20 69 -36 80 -36
12 0 70 -27 131 -60 102 -56 135 -66 135 -41 0 6 -13 20 -30 32 -23 17 -27 26
-19 36 6 7 17 13 23 14 6 0 45 25 86 55 41 30 107 70 145 90 39 20 93 53 120
74 67 50 113 75 121 67 4 -4 -22 -42 -57 -84 -134 -164 -312 -370 -361 -420
-29 -29 -49 -55 -46 -59 15 -14 368 359 484 510 20 26 38 45 41 42 9 -9 -135
-218 -262 -377 -33 -42 -87 -113 -119 -159 -33 -45 -66 -88 -74 -96 -8 -8 -12
-17 -9 -20 6 -6 38 25 89 87 20 24 56 64 80 89 50 54 84 94 170 209 115 152
142 189 206 281 34 49 68 90 76 90 29 0 -159 -488 -225 -582 -19 -25 -56 -95
-143 -264 -23 -44 -53 -95 -65 -113 -13 -18 -20 -35 -17 -38 3 -4 6 0 6 8 0
10 2 11 8 2 15 -24 56 12 95 82 161 292 330 646 379 790 34 103 43 122 71 153
27 29 30 28 22 -10z m-1585 -3 c24 -12 42 -13 101 -5 40 6 74 8 77 5 7 -6 -18
-62 -33 -75 -16 -14 -178 -40 -204 -33 -27 7 -44 58 -29 86 21 40 42 46 88 22z
m5205 5 c3 -6 -1 -7 -9 -4 -18 7 -21 14 -7 14 6 0 13 -4 16 -10z m105 -26 c0
-8 -4 -12 -10 -9 -5 3 -10 10 -10 16 0 5 5 9 10 9 6 0 10 -7 10 -16z m-255
-250 c-27 -7 -66 -13 -85 -13 -26 1 -19 4 30 14 88 17 116 16 55 -1z m-138
-20 c-3 -3 -12 -4 -19 -1 -8 3 -5 6 6 6 11 1 17 -2 13 -5z m-74 -11 c-18 -2
-48 -2 -65 0 -18 2 -4 4 32 4 36 0 50 -2 33 -4z m-5123 -1308 c7 -33 26 -91
42 -129 27 -61 32 -92 46 -245 12 -141 13 -194 4 -266 -13 -102 -61 -253 -124
-388 l-43 -92 0 -150 c0 -125 -4 -161 -22 -215 -12 -36 -24 -90 -28 -119 -3
-30 -15 -80 -26 -110 -10 -30 -21 -91 -25 -135 -3 -45 -14 -124 -25 -177 -15
-72 -19 -126 -17 -220 3 -167 -27 -459 -54 -517 -17 -37 -21 -70 -25 -200 -3
-87 0 -206 6 -267 6 -60 18 -189 26 -285 8 -96 23 -229 32 -295 9 -66 21 -169
28 -230 7 -60 20 -164 29 -230 68 -517 77 -609 66 -679 -12 -75 1 -189 40
-366 10 -47 22 -107 25 -135 3 -27 17 -88 30 -135 13 -47 29 -123 35 -170 6
-47 22 -114 34 -150 20 -56 24 -92 29 -255 10 -314 36 -414 119 -453 21 -9 38
-20 38 -23 0 -10 -375 3 -378 12 -2 5 -14 9 -27 9 -18 0 -27 9 -39 42 -48 137
-61 189 -136 558 -11 52 -27 120 -36 150 -19 66 -65 238 -89 335 -9 39 -30
147 -46 240 -43 253 -52 290 -144 585 -19 58 -43 150 -55 205 -11 55 -30 138
-40 185 -11 47 -23 105 -28 130 -6 25 -21 90 -35 145 -14 55 -40 165 -57 245
-17 80 -46 197 -64 260 -44 151 -71 259 -87 343 -15 79 -8 100 37 105 16 2 51
10 78 18 27 8 51 14 52 14 2 0 6 -17 9 -37 4 -21 15 -69 25 -108 32 -119 59
-238 65 -290 4 -27 15 -77 25 -110 10 -33 26 -123 35 -200 9 -77 27 -176 40
-220 27 -87 90 -345 101 -410 3 -22 15 -60 25 -85 10 -25 34 -124 54 -220 45
-221 82 -384 107 -480 35 -130 48 -191 44 -199 -6 -10 30 -231 53 -323 11 -42
24 -137 31 -210 16 -184 25 -235 65 -373 l34 -120 -5 70 c-3 39 -11 126 -19
195 -8 69 -19 184 -25 255 -6 72 -17 157 -25 190 -8 33 -33 155 -54 271 -24
127 -51 240 -68 285 -48 122 -80 245 -120 464 -8 44 -21 112 -28 150 -32 179
-50 258 -81 367 -32 111 -65 299 -79 453 -3 39 -17 106 -30 150 -13 44 -30
116 -39 160 -8 44 -20 98 -25 120 -6 22 -15 78 -21 125 -6 47 -14 99 -17 116
-5 30 -3 31 44 44 26 7 58 19 71 27 27 17 38 12 47 -24 12 -51 24 -56 57 -25
25 25 27 33 19 55 -9 23 -52 226 -71 332 -5 31 -9 36 -14 22 -5 -9 -6 -31 -4
-47 4 -24 1 -30 -11 -28 -24 4 -41 -11 -41 -36 0 -21 -5 -24 -72 -29 -40 -3
-90 -13 -110 -21 -20 -9 -39 -12 -41 -8 -2 4 0 75 4 157 17 290 25 359 44 395
10 19 24 55 31 80 22 77 88 230 152 350 107 202 186 409 211 555 7 39 19 102
27 142 8 40 14 97 14 127 0 31 7 77 16 103 9 26 22 72 30 102 8 31 25 76 38
101 13 25 40 86 59 135 19 50 56 137 82 195 75 169 102 239 129 335 36 125 36
123 46 105 4 -8 13 -42 20 -75z m-1312 -2195 l0 -35 -8 30 c-4 17 -8 44 -8 60
0 29 0 29 8 5 4 -14 8 -41 8 -60z m1162 -255 c0 -8 -4 -15 -10 -15 -5 0 -7 7
-4 15 4 8 8 15 10 15 2 0 4 -7 4 -15z m-1485 -575 c3 -5 3 -15 -1 -21 -6 -11
-23 6 -24 24 0 10 18 9 25 -3z m4165 -3670 c-18 -11 -213 -12 -285 0 -35 5 2
8 125 9 116 0 170 -3 160 -9z m-529 -41 c74 -6 150 -15 169 -19 59 -13 -150
-11 -288 4 -227 24 -135 36 119 15z"/>
<path d="M2972 9485 c0 -16 2 -22 5 -12 2 9 2 23 0 30 -3 6 -5 -1 -5 -18z"/>
<path d="M2860 9435 c0 -8 10 -21 22 -29 24 -17 68 -22 68 -7 0 5 -9 7 -19 4
-13 -3 -29 4 -45 21 -17 16 -26 20 -26 11z"/>
<path d="M2950 9305 c-15 -18 -34 -19 -59 -3 -15 9 -24 7 -50 -11 -55 -39 -42
-47 84 -49 127 -2 136 4 87 51 -32 31 -44 33 -62 12z"/>
<path d="M2840 9160 c0 -5 7 -10 15 -10 8 0 15 -4 15 -10 0 -15 72 -12 93 4
28 22 20 26 -53 26 -40 0 -70 -4 -70 -10z"/>
<path d="M3003 7233 c-47 -9 -21 -23 42 -23 36 0 65 4 65 9 0 19 -49 25 -107
14z"/>
<path d="M2890 7129 c-19 -4 -53 -17 -75 -29 -21 -11 -45 -20 -53 -20 -7 0
-12 -6 -9 -12 5 -16 57 -13 121 8 33 11 63 14 95 9 61 -9 74 -9 154 -7 70 2
82 12 45 36 -27 16 -226 28 -278 15z"/>
<path d="M860 10754 c0 -9 5 -14 12 -12 18 6 21 28 4 28 -9 0 -16 -7 -16 -16z"/>
<path d="M6423 10285 c0 -27 2 -38 4 -22 2 15 2 37 0 50 -2 12 -4 0 -4 -28z"/>
<path d="M6427 10163 c-9 -93 -9 -213 1 -213 4 0 7 63 8 140 0 77 0 140 -1
140 -1 0 -5 -30 -8 -67z"/>
<path d="M6948 10063 c6 -2 18 -2 25 0 6 3 1 5 -13 5 -14 0 -19 -2 -12 -5z"/>
<path d="M7220 8790 c36 -5 79 -11 95 -14 25 -5 27 -4 12 5 -10 6 -53 12 -95
14 l-77 4 65 -9z"/>
<path d="M7668 8495 c-7 -17 -17 -24 -28 -20 -9 3 -25 -3 -35 -15 -10 -11 -23
-20 -30 -20 -6 0 -22 -12 -36 -26 -31 -34 -84 -60 -183 -92 -73 -23 -97 -26
-246 -26 -154 -1 -171 1 -255 28 -49 15 -108 32 -129 37 -22 6 -61 28 -88 51
-40 33 -52 39 -59 27 -16 -23 -2 -81 31 -124 16 -22 49 -70 71 -108 23 -37 53
-76 68 -85 58 -40 219 -112 262 -118 53 -7 148 15 226 51 28 14 55 25 59 25
27 0 146 72 190 114 29 28 72 65 96 81 45 32 60 56 76 120 5 22 17 57 26 77
10 23 12 39 6 43 -5 3 -15 -5 -22 -20z"/>
<path d="M1930 8450 c-19 -16 -30 -30 -25 -30 10 0 65 47 65 55 0 8 -3 6 -40
-25z"/>
<path d="M5359 7993 c-17 -42 3 -116 53 -203 57 -98 92 -132 227 -217 87 -56
129 -75 186 -89 l74 -17 108 27 c178 46 233 77 371 210 64 61 132 160 132 190
0 21 -22 20 -51 -2 -113 -88 -223 -132 -328 -132 -30 0 -82 -5 -115 -11 -50
-8 -93 -6 -222 10 -163 20 -178 24 -333 100 -38 18 -96 112 -88 143 8 28 -2
21 -14 -9z m621 -293 c0 -5 -4 -10 -10 -10 -5 0 -10 5 -10 10 0 6 5 10 10 10
6 0 10 -4 10 -10z"/>
</g>
</svg>
