<?xml version="1.0" standalone="no"?>
<!DOCTYPE svg PUBLIC "-//W3C//DTD SVG 20010904//EN"
 "http://www.w3.org/TR/2001/REC-SVG-20010904/DTD/svg10.dtd">
<svg version="1.0" xmlns="http://www.w3.org/2000/svg"
 width="789.000000pt" height="1155.000000pt" viewBox="0 0 789.000000 1155.000000"
 preserveAspectRatio="xMidYMid meet">

<g transform="translate(0.000000,1155.000000) scale(0.100000,-0.100000)"
fill="white" stroke="none">
<path d="M6155 11275 c-16 -8 -51 -14 -76 -15 -26 0 -51 -6 -57 -12 -31 -39
43 -325 79 -302 19 11 4 92 -37 207 -8 20 -14 41 -14 46 0 10 70 5 80 -6 5 -4
14 -66 20 -138 13 -136 22 -175 41 -175 14 0 6 153 -13 238 -10 48 -10 54 8
67 48 36 61 9 70 -146 5 -73 11 -108 18 -106 11 4 12 187 0 236 -5 21 -3 23
23 16 15 -3 30 -9 33 -11 2 -3 9 -40 15 -82 8 -56 15 -77 25 -77 20 0 18 81
-4 122 -26 52 -118 135 -161 146 -11 3 -33 -1 -50 -8z"/>
<path d="M2594 11104 c-131 -35 -270 -149 -294 -241 -6 -26 -13 -53 -15 -60
-2 -6 -17 -14 -34 -18 -34 -7 -102 -78 -132 -137 -31 -60 -25 -99 26 -175 25
-37 45 -72 45 -78 0 -7 9 -20 20 -30 11 -10 20 -24 20 -30 0 -7 6 -18 14 -24
10 -9 16 -8 26 4 16 19 6 56 -25 93 -30 35 -31 48 -7 54 10 3 24 23 32 47 13
41 15 42 98 68 60 18 94 35 117 58 18 18 42 38 54 44 12 7 31 32 42 56 23 50
33 54 63 26 34 -30 114 -51 196 -51 63 0 82 4 104 21 47 37 31 -7 -21 -62 -52
-53 -70 -58 -126 -34 -70 29 -79 12 -12 -22 67 -34 123 -31 176 10 62 47 99
124 99 204 0 35 -6 76 -14 91 -25 47 -170 177 -214 190 -52 16 -174 14 -238
-4z"/>
<path d="M5932 11033 c-11 -27 -24 -61 -28 -78 -16 -68 -122 -321 -199 -475
-45 -91 -104 -217 -129 -280 -26 -63 -75 -167 -108 -230 -215 -403 -280 -555
-313 -735 -20 -104 -17 -240 5 -240 11 0 14 11 11 47 -7 114 55 369 123 508
44 90 219 425 226 435 10 12 94 209 105 245 4 13 51 114 105 225 53 110 111
232 128 270 32 75 112 317 112 341 0 29 -18 13 -38 -33z"/>
<path d="M3040 10984 c0 -9 10 -29 23 -45 12 -16 32 -42 45 -58 12 -16 25 -43
28 -61 5 -23 11 -29 22 -25 8 3 19 0 24 -7 5 -8 8 0 8 23 0 41 -42 111 -96
159 -39 34 -54 38 -54 14z"/>
<path d="M2616 10653 c-20 -39 -49 -64 -136 -117 -62 -38 -82 -46 -125 -46
-46 -1 -48 -2 -31 -15 11 -8 40 -15 65 -15 82 0 261 139 261 201 0 28 -17 23
-34 -8z"/>
<path d="M6680 10395 c-36 -19 -83 -39 -105 -46 -21 -6 -102 -41 -180 -79
-259 -125 -319 -153 -513 -236 -212 -92 -271 -126 -272 -156 0 -5 28 -8 63 -8
34 0 79 -4 100 -9 26 -6 41 -5 50 2 6 7 82 46 167 87 85 41 211 103 280 139
339 174 434 220 540 265 63 27 119 53 125 57 5 5 -26 9 -70 9 -44 0 -89 2
-100 5 -11 3 -49 -11 -85 -30z"/>
<path d="M2845 10329 c-166 -10 -293 -39 -303 -68 -4 -11 15 -12 89 -7 71 5
90 4 76 -4 -10 -6 -97 -15 -195 -19 -99 -4 -187 -13 -198 -19 -24 -14 -31 -14
176 -12 158 1 173 0 155 -14 -11 -8 -57 -25 -102 -37 -45 -12 -80 -26 -77 -30
9 -15 182 -10 364 11 207 24 290 39 290 53 0 11 -308 3 -365 -10 -29 -6 -29
-6 -14 18 36 54 113 75 298 84 89 5 111 12 71 23 -25 6 -25 6 5 12 28 6 26 7
-23 18 -56 13 -62 13 -247 1z m180 -19 c-33 -4 -82 -10 -110 -14 l-50 -6 45
14 c25 7 74 13 110 13 l65 0 -60 -7z m-181 -30 c-6 -6 -35 -13 -65 -15 l-54
-4 50 13 c64 18 82 19 69 6z"/>
<path d="M2271 10126 c-17 -20 -4 -24 67 -21 66 3 78 7 67 24 -10 17 -120 14
-134 -3z"/>
<path d="M2956 10109 c-71 -4 -132 -12 -135 -17 -10 -15 -99 -31 -236 -42
-294 -23 -276 -21 -273 -38 5 -27 204 -29 322 -3 232 52 370 73 454 69 58 -2
87 1 89 9 10 28 -41 33 -221 22z"/>
<path d="M2851 9948 l-53 -10 6 -48 c5 -35 2 -59 -13 -91 -23 -53 -49 -71 -91
-62 -24 4 -32 12 -37 35 -3 15 -10 31 -14 34 -5 3 -9 17 -9 32 0 51 -26 61
-145 57 -58 -1 -109 -5 -112 -8 -11 -11 68 -224 106 -286 41 -67 55 -97 65
-143 8 -37 48 -81 100 -112 49 -29 71 -31 126 -15 51 16 68 47 51 96 -12 32
-11 38 6 62 11 14 35 36 53 48 75 52 130 171 132 286 2 68 1 71 -35 103 -39
36 -49 38 -136 22z m-133 -270 c10 -10 17 -10 32 0 34 21 76 15 99 -14 25 -31
26 -50 6 -70 -8 -8 -12 -20 -10 -27 6 -20 -62 -68 -104 -74 -44 -6 -96 20 -87
44 3 8 -6 24 -20 37 -31 26 -27 53 14 91 30 28 52 31 70 13z"/>
<path d="M2673 9603 c-13 -2 -23 -11 -23 -20 0 -14 11 -15 81 -10 76 6 98 11
88 21 -7 7 -123 14 -146 9z"/>
<path d="M2723 9908 c-14 -17 -25 -82 -17 -101 16 -44 64 -17 64 36 0 67 -22
97 -47 65z"/>
<path d="M3263 9899 c8 -29 -10 -392 -24 -479 -5 -36 -19 -83 -30 -104 -23
-45 -17 -58 35 -63 61 -6 107 69 133 217 20 111 12 201 -26 320 -42 126 -41
124 -47 117 -3 -3 1 -34 10 -70 54 -215 48 -398 -17 -511 -27 -48 -57 -65 -34
-20 31 61 41 147 41 349 0 110 -5 213 -10 229 -12 37 -40 50 -31 15z"/>
<path d="M2236 9868 c-2 -18 -10 -91 -16 -163 -7 -71 -21 -163 -31 -204 -10
-41 -20 -89 -20 -105 -1 -23 -3 -25 -6 -9 -2 12 5 86 17 165 23 155 27 227 12
237 -5 3 -11 12 -14 20 -2 9 -9 1 -17 -20 -7 -19 -21 -54 -31 -79 -74 -185
-87 -246 -69 -331 23 -112 103 -209 171 -209 66 0 121 45 146 118 16 48 -9 54
-52 13 -37 -36 -73 -40 -107 -11 l-24 20 38 -15 c42 -17 65 -10 91 27 18 25
21 68 6 68 -5 0 -22 -13 -37 -30 -14 -16 -35 -30 -46 -30 -17 0 -18 5 -12 63
4 34 13 87 21 117 20 79 20 390 -1 390 -8 0 -16 -13 -19 -32z"/>
<path d="M3222 9750 c0 -19 2 -27 5 -17 2 9 2 25 0 35 -3 9 -5 1 -5 -18z"/>
<path d="M3207 9617 c-5 -43 -12 -89 -17 -103 -14 -35 -25 -191 -13 -179 12
12 47 299 41 335 -2 14 -7 -10 -11 -53z"/>
<path d="M3542 9433 c-5 -10 -12 -40 -16 -68 -4 -27 -21 -78 -37 -113 -17 -35
-28 -66 -25 -69 16 -16 67 64 81 127 7 33 25 41 25 12 0 -36 -32 -124 -52
-144 -16 -16 -18 -22 -7 -29 43 -27 77 9 91 95 11 63 10 75 -12 138 -24 71
-33 80 -48 51z"/>
<path d="M2546 9278 c-2 -7 -9 -47 -15 -88 -13 -84 -30 -138 -48 -158 -29 -30
-10 -62 36 -62 10 0 28 -9 41 -20 13 -11 30 -20 39 -20 9 0 26 -3 39 -6 l23
-7 -1 134 c-2 179 -6 197 -44 220 -36 22 -65 25 -70 7z"/>
<path d="M6865 9139 c-206 -23 -362 -113 -380 -217 -16 -94 26 -150 132 -175
83 -21 143 -24 169 -9 23 13 25 12 -109 43 -107 25 -102 23 -135 60 -74 84 77
214 300 257 142 28 210 27 316 -2 104 -30 102 -29 102 -16 0 28 -163 71 -262
69 -35 -1 -94 -5 -133 -10z"/>
<path d="M2064 9040 c-15 -15 -4 -79 16 -90 16 -9 127 8 174 26 48 18 -18 49
-73 34 -50 -14 -55 -13 -66 12 -11 26 -35 34 -51 18z"/>
<path d="M3904 9024 c-22 -8 -58 -32 -79 -54 l-38 -39 17 -142 c9 -79 18 -145
20 -147 2 -2 12 10 22 27 33 57 158 106 284 112 57 3 157 -8 290 -31 214 -39
619 -36 700 5 14 7 43 16 65 20 52 9 95 32 95 50 0 21 -69 95 -89 95 -9 0 -27
-7 -39 -16 -24 -17 -42 -16 -285 7 -78 8 -164 8 -304 -1 -259 -15 -364 1 -438
70 -19 17 -54 33 -97 44 -78 19 -71 19 -124 0z"/>
<path d="M3135 8990 c-22 -11 -47 -20 -57 -20 -27 0 -151 -69 -168 -93 -35
-50 -103 -116 -126 -121 -39 -10 -58 0 -88 48 -20 31 -37 47 -58 51 -16 4 -41
13 -56 21 -15 8 -32 14 -39 14 -7 0 -16 6 -20 13 -4 7 -34 19 -67 26 -49 11
-60 11 -67 0 -19 -29 -4 -44 51 -53 31 -4 68 -19 86 -32 17 -13 34 -24 38 -24
10 0 118 -83 135 -104 17 -20 64 -21 80 -2 7 8 44 36 83 62 38 26 72 54 75 61
3 7 53 36 112 64 100 47 151 82 151 101 0 13 -24 9 -65 -12z"/>
<path d="M3480 8822 c-30 -48 -81 -121 -115 -163 -33 -41 -81 -102 -107 -135
-110 -138 -179 -216 -272 -306 -55 -54 -95 -101 -92 -107 4 -6 22 -11 41 -11
29 0 46 13 132 98 54 53 127 139 163 191 36 51 106 151 157 223 50 71 95 144
99 161 3 18 18 51 31 74 48 83 17 62 -37 -25z"/>
<path d="M1784 8820 c-33 -22 -64 -40 -70 -40 -13 0 -122 -119 -159 -174 -38
-55 -100 -309 -124 -506 -6 -47 -15 -124 -21 -172 -6 -48 -17 -105 -25 -128
-8 -22 -28 -93 -45 -157 -40 -149 -74 -267 -93 -318 -8 -22 -18 -60 -22 -85
-14 -87 -37 -165 -60 -205 -12 -22 -35 -74 -49 -115 -15 -41 -38 -91 -51 -110
-55 -82 -145 -384 -165 -549 -15 -133 -86 -527 -115 -646 -14 -55 -31 -129
-39 -165 -8 -36 -24 -96 -35 -135 -12 -38 -25 -89 -31 -113 -12 -49 -62 -145
-96 -182 -40 -44 -94 -193 -94 -260 0 -48 4 -61 19 -70 12 -6 21 -23 23 -42 2
-26 9 -33 33 -40 20 -5 36 -3 52 8 22 14 23 14 23 -21 0 -40 16 -46 30 -11 5
13 15 26 22 29 10 3 11 8 1 26 -7 11 -13 34 -13 50 0 20 -8 35 -27 49 -24 18
-28 27 -27 69 2 64 37 163 78 223 18 27 37 66 41 87 3 21 20 78 37 127 20 57
27 91 20 94 -7 2 -4 26 9 70 10 37 33 126 49 197 50 213 68 272 131 440 83
222 101 266 152 381 60 135 78 211 65 261 -26 91 -5 148 136 378 89 144 115
214 127 345 9 98 26 174 113 530 19 74 44 180 56 235 27 116 48 163 98 217 62
66 155 234 172 313 16 73 -13 153 -56 155 -6 0 -38 -18 -70 -40z"/>
<path d="M2150 8828 c1 -7 14 -31 30 -53 16 -22 36 -53 45 -68 9 -16 36 -50
60 -75 25 -26 68 -74 97 -107 138 -159 358 -322 358 -265 0 4 -24 33 -52 63
-29 29 -100 107 -158 172 -116 131 -133 148 -269 264 -95 81 -111 92 -111 69z"/>
<path d="M3555 8728 c-21 -46 -90 -189 -154 -318 -64 -130 -126 -259 -139
-286 -44 -95 -93 -137 -213 -183 -48 -18 -222 -43 -264 -39 -84 10 -197 65
-277 136 -42 37 -87 81 -100 97 -52 64 -177 262 -194 308 -3 9 -10 17 -14 17
-5 0 1 -24 11 -52 11 -29 27 -73 35 -97 20 -55 91 -198 114 -228 37 -48 117
-138 149 -170 32 -30 53 -42 120 -69 23 -10 23 -11 -28 -47 -28 -20 -56 -37
-62 -37 -37 0 -145 85 -202 160 -57 75 -147 273 -147 324 0 13 -13 48 -29 78
-21 40 -37 95 -56 199 -34 184 -47 215 -40 89 7 -111 31 -223 94 -443 37 -127
37 -127 11 -94 -11 14 -20 29 -20 33 0 4 -6 15 -13 23 -13 15 -18 27 -48 106
l-11 30 -18 -56 c-11 -36 -20 -109 -24 -200 -8 -158 5 -258 43 -343 12 -25 21
-49 21 -53 0 -16 76 -90 120 -118 87 -55 115 -58 236 -25 196 53 383 60 564
20 47 -10 100 -22 119 -26 l35 -6 -27 -14 c-19 -11 -82 -16 -229 -19 -112 -2
-219 -9 -238 -14 -19 -6 -51 -11 -71 -11 -20 0 -54 -7 -75 -16 -49 -20 -120
-21 -209 -1 -174 40 -172 40 -162 12 4 -8 18 -15 31 -15 54 0 99 -79 62 -109
-8 -7 -17 -22 -20 -34 -3 -14 -22 -30 -48 -42 -49 -23 -88 -81 -88 -131 0 -35
17 -92 35 -114 14 -17 47 -125 69 -225 9 -38 36 -158 61 -265 26 -107 60 -253
77 -325 34 -148 72 -287 87 -327 14 -36 91 -93 105 -77 8 8 -1 21 -31 47 -34
31 -46 52 -71 127 -17 50 -34 108 -38 130 -4 22 -22 100 -40 174 -36 141 -40
171 -24 171 17 0 11 63 -13 151 -13 46 -29 120 -36 164 -6 44 -21 139 -33 210
l-21 130 35 76 c38 82 70 114 148 147 50 21 179 52 217 52 13 0 31 6 38 14 22
22 148 39 275 38 148 -1 251 18 355 68 33 15 83 38 110 50 74 31 145 103 190
190 37 70 47 156 54 460 l6 295 28 49 c15 27 27 56 27 66 0 24 -24 31 -48 14
-26 -18 -97 -168 -107 -225 -9 -51 -81 -252 -115 -319 -12 -25 -37 -64 -56
-86 -36 -45 -126 -108 -145 -102 -6 2 18 40 54 83 113 140 140 218 176 512 8
65 21 105 66 202 49 105 77 191 63 191 -3 0 -22 -37 -43 -82z m-619 -1084 c49
-8 157 -23 239 -33 l150 -18 -57 -17 c-70 -21 -119 -22 -318 -6 -85 7 -194 13
-242 14 -49 0 -88 4 -88 8 0 12 66 47 106 57 59 14 113 13 210 -5z m281 -180
c-3 -3 -12 -4 -19 -1 -8 3 -5 6 6 6 11 1 17 -2 13 -5z"/>
<path d="M3065 8716 c-93 -58 -100 -66 -102 -97 -4 -64 4 -64 75 -2 37 32 88
76 114 97 29 23 45 43 41 52 -8 22 -22 17 -128 -50z"/>
<path d="M3268 8728 c-18 -24 -46 -56 -61 -73 -16 -16 -40 -47 -54 -67 -14
-21 -29 -38 -34 -38 -11 0 -73 -64 -134 -140 -45 -56 -75 -86 -168 -166 -32
-27 -5 -41 38 -21 58 28 122 94 218 227 50 69 119 160 153 202 60 74 90 118
80 118 -2 0 -19 -19 -38 -42z"/>
<path d="M2411 8683 c13 -16 90 -95 171 -178 81 -82 158 -162 171 -177 14 -15
37 -30 50 -33 22 -6 29 -1 53 37 15 23 45 69 66 102 46 69 41 86 -20 68 -22
-7 -51 -12 -66 -12 -19 0 -26 -5 -26 -20 0 -34 -20 -22 -40 25 -11 25 -24 45
-30 45 -14 0 -13 -8 10 -75 11 -32 19 -60 17 -61 -2 -2 -23 24 -47 58 -55 76
-118 150 -136 161 -25 15 -15 -19 21 -72 19 -28 35 -54 35 -58 0 -4 -33 27
-73 67 -85 87 -156 150 -171 150 -5 0 1 -12 15 -27z"/>
<path d="M2150 8671 c0 -6 4 -12 9 -16 5 -3 15 -22 21 -43 17 -52 88 -190 120
-232 15 -19 52 -69 83 -111 76 -103 132 -150 241 -203 106 -51 142 -64 211
-76 111 -19 235 59 345 215 63 90 194 295 203 318 14 37 -15 14 -50 -40 -20
-32 -47 -69 -59 -83 -12 -14 -46 -61 -75 -105 -67 -99 -134 -164 -212 -206
-51 -27 -66 -31 -106 -26 -61 8 -231 78 -284 117 -66 48 -235 219 -277 280
-21 30 -50 69 -64 85 -15 17 -40 54 -57 83 -28 48 -49 66 -49 43z"/>
<path d="M5750 8653 c-14 -2 -44 -6 -67 -9 -28 -3 -43 -10 -43 -19 0 -15 -57
-35 -100 -35 -67 -1 -176 -58 -257 -136 -67 -65 -71 -99 -17 -162 19 -23 42
-42 50 -42 16 0 19 16 4 25 -13 8 -40 72 -40 96 0 40 62 90 184 148 177 85
290 106 431 79 65 -11 113 -5 85 12 -16 10 -107 25 -132 21 -9 -1 -30 4 -45
11 -15 8 -39 13 -53 11z"/>
<path d="M4610 7208 c-55 -49 -140 -90 -176 -86 -20 2 -29 11 -38 38 -9 28
-17 36 -39 38 -54 6 -71 -34 -43 -103 18 -43 66 -69 109 -60 69 15 147 67 199
132 60 76 53 99 -12 41z"/>
<path d="M2833 7139 c5 -20 3 -20 -68 -14 -94 9 -157 -1 -153 -23 4 -19 61
-30 171 -31 37 -1 67 -3 67 -6 0 -3 -9 -22 -20 -42 -13 -24 -20 -57 -20 -91 0
-29 -7 -83 -16 -120 l-15 -67 -59 -27 c-32 -16 -68 -28 -79 -28 -16 0 -21 6
-21 28 0 24 -26 173 -37 211 -3 11 -7 11 -15 3 -9 -9 -9 -58 0 -199 7 -104 12
-228 12 -278 -1 -171 56 -419 121 -533 25 -43 24 -49 -11 -102 -35 -53 -37
-64 -10 -57 10 3 21 0 23 -7 12 -36 135 83 221 214 89 137 114 182 158 289 69
167 74 188 88 365 7 94 16 181 20 195 6 23 9 20 26 -34 27 -87 25 -271 -4
-380 -43 -160 -100 -295 -184 -437 -31 -51 -70 -122 -88 -158 -51 -103 -117
-199 -186 -272 -34 -37 -73 -81 -86 -98 -13 -18 -36 -39 -51 -47 -16 -8 -45
-29 -65 -47 -35 -32 -78 -61 -129 -87 -17 -9 -26 -9 -37 0 -8 7 -40 14 -70 16
-70 4 -120 27 -234 109 -51 36 -95 66 -98 66 -2 0 -4 -9 -4 -19 0 -36 156
-167 240 -202 21 -8 69 -14 118 -14 80 0 82 0 60 -17 -28 -22 -121 -58 -149
-58 -32 0 -181 105 -247 174 -44 46 -63 74 -71 107 -6 24 -18 57 -26 72 -8 16
-15 35 -15 43 0 17 -26 19 -33 2 -17 -47 24 -194 86 -313 27 -50 110 -139 162
-173 74 -47 176 -28 312 60 106 68 213 160 284 242 152 176 222 265 265 337
25 41 85 139 135 219 194 314 347 688 310 759 -6 11 -8 26 -5 34 5 15 -17 117
-38 172 -36 93 -141 203 -211 220 -15 4 -44 16 -64 26 -21 10 -54 19 -75 19
-20 0 -40 5 -43 10 -3 6 -38 10 -77 10 -66 0 -70 -1 -65 -21z"/>
<path d="M2300 7026 c-23 -44 0 -264 70 -651 10 -60 27 -154 36 -209 9 -54 30
-135 47 -180 16 -44 29 -95 28 -112 -3 -68 98 -103 126 -43 10 21 9 40 -6 105
-38 158 -61 274 -61 307 0 68 -41 274 -71 357 -17 47 -37 103 -45 125 -8 22
-23 83 -33 135 -20 97 -53 190 -69 190 -5 0 -14 -11 -22 -24z"/>
<path d="M2041 6503 c-27 -52 -33 -108 -21 -203 21 -171 54 -287 108 -375 121
-198 151 -236 203 -262 55 -27 190 -56 202 -44 17 17 -1 40 -53 72 -65 40
-225 210 -257 274 -14 28 -34 62 -44 76 -50 71 -112 304 -110 417 1 61 -10 78
-28 45z"/>
<path d="M3470 6132 c0 -5 -17 -28 -37 -52 -39 -45 -89 -124 -124 -197 -15
-33 -26 -43 -43 -43 -13 0 -26 -6 -29 -12 -4 -12 -85 -125 -123 -173 -8 -11
-26 -41 -40 -67 -64 -125 -275 -417 -382 -530 -232 -243 -299 -299 -440 -365
-72 -34 -77 -35 -174 -31 l-99 4 -35 38 c-40 43 -62 38 -49 -11 4 -15 9 -36
10 -46 5 -48 104 -107 183 -108 60 -2 127 27 248 106 46 30 87 55 89 55 2 0
32 17 65 38 71 45 227 195 313 302 34 41 85 101 114 133 29 32 76 96 104 142
29 47 54 85 55 85 9 0 -52 -124 -97 -199 -28 -46 -66 -114 -85 -151 -18 -38
-84 -144 -146 -236 -62 -92 -128 -190 -147 -217 -18 -28 -38 -56 -45 -62 -6
-6 -33 -46 -61 -89 -27 -42 -70 -104 -95 -138 -83 -113 -141 -193 -192 -268
-28 -41 -77 -102 -108 -136 -59 -64 -86 -113 -76 -139 9 -25 23 -18 62 33 21
26 61 72 89 102 29 30 64 73 79 95 14 22 37 54 49 70 81 110 108 145 138 181
19 23 54 70 79 105 25 35 83 115 130 179 47 63 115 158 150 210 35 52 78 116
96 141 18 26 44 70 59 98 14 28 41 75 59 104 62 98 256 463 256 482 0 2 25 57
56 122 97 204 102 216 127 298 34 108 42 155 28 155 -6 0 -11 -4 -11 -8z"/>
<path d="M3531 5527 c-30 -39 -67 -100 -83 -136 -16 -35 -39 -80 -52 -100 -12
-20 -45 -79 -73 -131 -57 -108 -374 -583 -413 -620 -13 -12 -127 -187 -133
-203 -7 -19 -115 -182 -212 -320 -30 -43 -58 -91 -62 -107 -5 -16 -64 -102
-133 -191 -139 -181 -186 -257 -170 -273 8 -8 22 1 48 30 119 131 246 295 360
462 84 125 100 147 128 181 24 31 122 179 179 271 54 89 264 380 301 417 7 7
22 29 34 48 12 20 24 34 26 32 2 -2 -5 -30 -16 -63 -30 -86 -96 -320 -110
-386 -6 -31 -52 -175 -102 -320 -49 -145 -103 -311 -118 -369 -65 -245 -143
-465 -290 -824 -33 -82 -90 -235 -125 -340 -49 -146 -79 -216 -130 -305 -109
-191 -137 -254 -125 -286 l11 -27 24 23 c13 12 40 54 61 94 20 39 42 78 49 86
14 17 95 175 150 291 19 42 44 88 55 101 34 44 164 326 272 593 104 254 307
895 383 1205 25 102 52 210 61 240 8 30 28 102 43 160 16 58 38 130 51 160 39
97 70 194 70 221 0 15 7 43 15 63 9 20 17 58 18 84 2 26 17 92 34 147 38 120
47 165 36 165 -4 -1 -32 -33 -62 -73z"/>
<path d="M3763 4988 c-6 -7 -18 -49 -28 -93 -33 -149 -76 -330 -90 -375 -8
-25 -19 -82 -24 -126 -6 -45 -21 -106 -34 -135 -26 -57 -54 -142 -82 -247 -9
-35 -34 -117 -56 -182 -21 -65 -39 -126 -39 -135 0 -27 -48 -159 -125 -345
-64 -152 -120 -281 -292 -665 -19 -44 -39 -84 -43 -90 -4 -5 -43 -80 -85 -165
-43 -85 -99 -191 -125 -235 -26 -44 -81 -143 -122 -220 -131 -244 -140 -259
-169 -302 -24 -36 -26 -43 -11 -43 9 0 27 15 39 33 40 59 173 277 173 283 0 3
17 36 39 72 187 323 385 695 406 762 4 14 30 72 58 130 118 248 238 531 281
665 42 129 122 410 155 544 23 93 37 132 56 151 21 22 27 42 35 111 5 46 16
106 25 134 14 46 76 301 94 389 14 62 -10 117 -36 84z"/>
<path d="M1892 4534 c-21 -14 -22 -23 -22 -159 0 -98 6 -180 20 -262 26 -153
26 -152 66 -169 l35 -15 82 88 c45 48 107 112 137 143 31 30 81 87 112 125 30
39 70 84 88 100 44 41 100 119 100 139 0 20 -33 21 -50 1 -17 -21 -27 -19 -33
6 -8 30 -41 21 -45 -13 -2 -15 1 -35 6 -45 8 -14 3 -26 -23 -54 l-33 -37 -7
43 c-3 25 -12 46 -21 49 -30 12 -37 -5 -31 -80 5 -64 3 -77 -16 -100 -19 -25
-21 -25 -27 -8 -4 11 -11 42 -15 69 -11 77 -20 88 -66 82 -21 -3 -42 -1 -45 4
-3 5 -20 9 -39 9 -51 0 -82 16 -100 49 -21 42 -46 54 -73 35z m275 -204 c5
-44 5 -86 1 -93 -6 -9 -8 -8 -8 3 -1 8 -7 50 -14 93 -9 59 -10 77 -1 77 8 0
16 -31 22 -80z"/>
<path d="M833 4333 c-7 -2 -13 -17 -13 -32 0 -33 70 -320 110 -451 16 -52 32
-113 35 -135 7 -42 22 -109 79 -350 57 -242 74 -315 91 -405 17 -87 47 -193
115 -405 37 -115 51 -180 100 -470 20 -116 48 -235 134 -565 14 -52 37 -153
51 -225 34 -166 68 -306 97 -392 18 -54 27 -69 46 -71 13 -2 24 3 28 12 9 23
-10 122 -50 264 -19 67 -44 179 -56 250 -12 70 -27 147 -35 172 -28 96 -94
347 -100 385 -4 22 -19 94 -34 160 -16 66 -36 163 -45 215 -9 52 -35 160 -56
240 -59 216 -134 590 -180 895 -31 204 -56 316 -95 423 -46 128 -75 243 -87
343 -10 93 -12 100 -32 97 -14 -2 -27 6 -38 24 -17 26 -37 33 -65 21z"/>
<path d="M2904 4034 c-178 -365 -193 -394 -219 -429 -12 -16 -36 -57 -53 -91
-17 -34 -42 -75 -56 -91 -14 -16 -46 -72 -72 -124 -26 -52 -63 -119 -84 -149
-20 -30 -68 -113 -105 -185 -37 -71 -81 -150 -97 -174 -42 -62 -72 -126 -98
-206 -20 -60 -23 -90 -23 -216 0 -110 4 -158 17 -197 29 -87 46 -68 69 80 16
102 116 409 151 463 7 11 25 52 40 90 16 39 41 95 57 125 17 30 51 102 76 160
25 58 96 209 159 335 91 186 234 514 234 538 0 3 26 60 58 128 80 169 96 208
89 215 -4 4 -68 -119 -143 -272z"/>
<path d="M3741 4043 c-7 -27 -18 -70 -26 -98 -8 -27 -19 -81 -26 -120 -6 -38
-24 -122 -39 -185 -33 -132 -71 -321 -95 -465 -33 -203 -55 -344 -76 -480 -15
-98 -34 -179 -66 -270 -24 -71 -73 -215 -108 -320 -67 -201 -203 -564 -297
-795 -31 -77 -43 -109 -103 -289 -37 -112 -41 -131 -25 -131 6 0 10 5 10 11 0
6 15 43 33 82 19 40 44 99 56 132 12 33 33 83 46 110 13 28 36 79 51 115 15
36 44 103 65 150 34 77 99 240 151 378 36 95 29 49 -12 -79 -21 -68 -64 -207
-95 -309 -31 -102 -71 -232 -90 -290 -54 -168 -96 -343 -85 -354 5 -5 12 -8
14 -5 3 2 27 69 55 149 27 80 59 168 70 195 11 28 50 145 87 260 36 116 82
255 100 310 79 235 113 370 164 655 5 30 16 91 24 135 29 158 45 251 57 330 6
44 20 121 31 170 11 50 26 135 34 190 8 55 19 114 24 130 5 17 25 116 44 220
46 246 71 515 47 515 -4 0 -14 -21 -20 -47z"/>
<path d="M3802 3823 c-15 -61 -39 -248 -47 -378 -3 -55 -15 -145 -25 -200 -10
-55 -23 -140 -29 -190 -7 -49 -27 -171 -46 -270 -40 -211 -51 -278 -70 -434
-18 -141 -57 -353 -90 -481 -26 -100 -47 -196 -66 -295 -6 -33 -30 -136 -54
-230 -48 -189 -87 -374 -89 -420 -1 -24 4 -31 21 -33 30 -4 47 31 67 143 10
50 26 126 36 170 57 239 80 341 100 440 12 61 31 146 42 190 29 119 85 420 93
500 4 39 18 133 32 210 40 227 70 414 83 505 6 47 18 126 25 175 16 100 26
220 30 340 2 44 6 131 9 193 7 118 -2 144 -22 65z"/>
<path d="M2244 3692 c-16 -15 -44 -45 -62 -67 l-33 -40 3 43 c2 23 0 42 -5 42
-11 0 -37 -64 -38 -92 0 -16 -5 -9 -17 22 -13 32 -23 45 -37 45 -12 0 -21 8
-23 20 -6 34 -19 38 -36 13 -15 -23 -15 -30 7 -105 25 -86 46 -127 74 -141 33
-18 59 4 95 81 20 40 52 98 72 127 31 45 45 80 32 80 -2 0 -17 -12 -32 -28z"/>
</g>
</svg>
