<?xml version="1.0" standalone="no"?>
<!DOCTYPE svg PUBLIC "-//W3C//DTD SVG 20010904//EN"
 "http://www.w3.org/TR/2001/REC-SVG-20010904/DTD/svg10.dtd">
<svg version="1.0" xmlns="http://www.w3.org/2000/svg"
 width="1075.000000pt" height="934.000000pt" viewBox="0 0 1075.000000 934.000000"
 preserveAspectRatio="xMidYMid meet">

<g transform="translate(0.000000,934.000000) scale(0.100000,-0.100000)"
fill="#000000" stroke="none">
<path d="M2950 9326 c0 -3 544 -947 1208 -2098 665 -1151 1215 -2105 1223
-2119 14 -25 45 28 1209 2053 657 1143 1204 2096 1216 2117 l21 38 -576 6
c-637 8 -4301 10 -4301 3z m4078 -281 c5 -4 -2691 -1556 -2699 -1553 -7 2
-844 1443 -895 1540 l-14 26 1803 -5 c991 -3 1803 -7 1805 -8z m-676 -1747
c-523 -909 -954 -1652 -959 -1650 -8 3 -964 1654 -960 1658 11 11 2862 1652
2865 1649 2 -2 -424 -747 -946 -1657z"/>
<path d="M1285 7112 c-649 -1119 -1200 -2069 -1225 -2111 l-45 -76 2452 0
c1633 0 2449 3 2443 10 -21 26 -2390 4120 -2390 4131 0 7 -4 14 -9 16 -5 2
-17 17 -27 34 l-19 31 -1180 -2035z m2208 -272 c515 -888 939 -1623 943 -1632
6 -17 -44 -18 -955 -18 l-961 0 0 1663 c0 1610 1 1661 18 1632 10 -16 440
-757 955 -1645z m-1183 -90 l0 -1560 -906 0 c-570 0 -904 4 -902 10 4 13 1802
3110 1806 3110 1 0 2 -702 2 -1560z"/>
<path d="M7080 7048 c-668 -1157 -1220 -2113 -1227 -2124 l-14 -21 2438 4
c1341 2 2441 5 2444 6 4 1 -526 929 -1178 2062 -651 1133 -1198 2086 -1217
2118 l-32 58 -1214 -2103z m2114 -18 c492 -855 893 -1556 891 -1558 -8 -9
-2696 1552 -2693 1564 6 26 893 1554 901 1551 4 -1 410 -702 901 -1557z m-217
-1160 c906 -523 1165 -677 1150 -683 -10 -4 -871 -6 -1913 -5 l-1894 3 456
790 c250 435 466 809 480 832 l24 42 264 -152 c145 -84 790 -456 1433 -827z"/>
<path d="M68 4432 c-21 -2 -38 -6 -38 -9 0 -10 2424 -4223 2429 -4223 5 0
2379 4106 2439 4217 l14 25 -2404 -4 c-1321 -1 -2420 -4 -2440 -6z m4360 -280
c-14 -35 -954 -1652 -961 -1652 -9 0 -2847 1637 -2861 1651 -6 5 749 9 1908 9
1055 0 1916 -4 1914 -8z m-2400 -1062 l1341 -774 -32 -56 c-205 -360 -873
-1510 -877 -1510 -4 0 -1635 2832 -1764 3063 -21 38 -32 66 -24 61 8 -5 618
-358 1356 -784z"/>
<path d="M5855 4380 c74 -115 2385 -4102 2385 -4115 0 -8 4 -15 10 -15 5 0 15
-11 22 -24 12 -23 83 96 1193 2006 649 1117 1200 2065 1225 2107 l45 76 -2451
0 -2451 0 22 -35z m2385 -1897 c0 -916 -2 -1664 -4 -1662 -9 11 -1916 3297
-1921 3312 -7 16 47 17 959 17 l966 0 0 -1667z m2017 1653 c-6 -14 -1796
-3097 -1803 -3105 -2 -2 -4 698 -4 1557 l0 1562 906 0 c781 0 905 -2 901 -14z"/>
<path d="M4160 2176 c-657 -1143 -1204 -2094 -1216 -2115 l-21 -39 1891 -6
c1040 -4 2139 -6 2441 -4 l550 3 -1210 2096 c-665 1153 -1217 2106 -1225 2119
-16 22 -53 -41 -1210 -2054z m1689 681 c260 -451 471 -820 469 -822 -12 -11
-2864 -1653 -2866 -1650 -3 2 1558 2725 1876 3273 20 35 27 41 37 30 7 -7 225
-381 484 -831z m1039 -1802 l440 -760 -905 -3 c-498 -1 -1310 -1 -1806 0
l-902 3 1355 782 c1321 763 1355 782 1367 760 7 -12 210 -364 451 -782z"/>
</g>
</svg>
