<?xml version="1.0" standalone="no"?>
<!DOCTYPE svg PUBLIC "-//W3C//DTD SVG 20010904//EN"
 "http://www.w3.org/TR/2001/REC-SVG-20010904/DTD/svg10.dtd">
<svg version="1.0" xmlns="http://www.w3.org/2000/svg"
 width="254.000000pt" height="722.000000pt" viewBox="0 0 254.000000 722.000000"
 preserveAspectRatio="xMidYMid meet">

<g transform="translate(0.000000,722.000000) scale(0.100000,-0.100000)"
fill="#000000" stroke="none">
<path d="M1643 7190 c-113 -17 -201 -89 -265 -217 -33 -66 -33 -66 -93 -83
-71 -19 -105 -36 -105 -53 0 -7 25 -31 55 -55 89 -68 92 -75 97 -285 7 -216
15 -251 72 -282 58 -32 97 -107 104 -195 l5 -68 -59 -39 c-58 -40 -191 -103
-215 -103 -7 0 -49 -18 -93 -40 -72 -36 -87 -48 -131 -110 -27 -38 -52 -77
-53 -87 -4 -17 -51 -132 -59 -143 -10 -12 -23 30 -23 73 0 56 -22 74 -49 39
-15 -20 -21 -21 -76 -13 -33 6 -166 17 -295 26 -129 9 -275 21 -323 26 -49 6
-91 9 -93 6 -3 -2 13 -38 34 -78 53 -99 125 -307 222 -636 11 -40 22 -73 23
-73 1 0 27 7 57 15 30 8 60 15 66 15 6 0 30 -33 54 -72 66 -113 97 -148 129
-148 36 0 149 45 175 69 20 18 27 18 113 8 51 -7 97 -17 103 -23 8 -8 7 -54
-4 -168 -12 -125 -20 -166 -37 -194 -16 -28 -20 -47 -15 -77 6 -46 -18 -223
-32 -237 -5 -5 -20 -9 -33 -8 -13 0 -38 0 -56 0 -21 0 -34 6 -38 18 -10 32
-74 94 -92 90 -23 -4 -19 -52 7 -90 23 -31 28 -108 11 -151 -6 -15 -23 -38
-38 -51 l-27 -24 12 -62 c8 -38 10 -66 4 -72 -14 -14 -33 16 -39 62 -3 23 -12
44 -19 47 -25 10 -65 -7 -76 -32 l-11 -25 -24 22 c-22 21 -26 21 -51 7 -38
-21 -38 -40 2 -102 41 -63 43 -75 19 -92 -15 -11 -14 -17 14 -61 42 -66 71
-134 94 -224 11 -41 24 -91 30 -111 10 -41 31 -54 58 -39 16 8 19 4 25 -30 7
-48 41 -62 81 -36 13 9 27 16 30 16 15 0 1 -225 -31 -475 -22 -174 -21 -204
13 -341 24 -95 26 -114 15 -135 -17 -32 -9 -364 12 -499 l16 -95 -34 -50 c-18
-27 -52 -83 -75 -122 -48 -81 -49 -101 -6 -151 30 -36 32 -63 6 -86 -19 -17
-81 -135 -81 -153 0 -14 -63 -31 -137 -38 -83 -8 -191 -60 -217 -105 -14 -25
-17 -44 -13 -82 5 -43 13 -57 56 -100 56 -56 89 -68 191 -68 75 0 154 17 260
55 53 19 108 30 189 36 188 14 220 41 222 189 1 67 10 127 29 205 21 82 29
147 34 255 4 80 11 204 16 275 5 72 14 207 20 300 13 216 19 278 31 318 5 18
9 70 9 117 0 90 27 223 45 217 5 -2 13 -26 16 -54 4 -28 9 -55 12 -61 14 -22
68 -253 74 -312 3 -39 0 -89 -7 -120 -28 -124 -29 -143 -19 -243 5 -56 21
-163 34 -237 14 -74 29 -172 34 -216 6 -49 19 -97 32 -120 17 -32 20 -48 15
-98 -15 -163 -17 -265 -6 -326 7 -36 14 -76 16 -90 9 -57 17 -79 51 -153 l36
-77 -20 -23 c-46 -49 -103 -133 -103 -151 0 -10 -5 -36 -11 -56 -11 -36 -10
-40 21 -79 48 -60 101 -81 201 -83 138 -3 249 54 249 127 0 18 14 69 30 112
20 50 30 96 30 130 0 28 4 54 9 57 5 3 24 32 41 63 24 42 34 74 38 120 l5 62
-67 63 c-58 55 -66 67 -66 99 0 20 12 68 28 105 l27 69 -1 260 c-2 392 -13
698 -30 819 -8 59 -33 165 -55 234 -22 69 -37 133 -34 141 4 9 17 97 31 195
13 99 26 181 28 184 3 2 22 6 44 9 l40 5 17 -73 c17 -75 32 -192 60 -449 9
-80 25 -199 36 -265 18 -103 19 -128 9 -174 -10 -44 -10 -55 1 -63 19 -12 75
-3 106 17 21 14 24 22 19 48 -7 44 -32 223 -46 337 -7 52 -21 140 -31 195 -25
126 -59 359 -59 403 0 18 7 47 16 63 8 17 13 37 11 44 -15 39 55 47 93 10 17
-17 30 -21 40 -15 12 7 11 12 -5 30 -27 30 -93 67 -135 75 -28 6 -32 10 -19
18 14 9 14 16 2 61 -53 207 -52 203 -30 224 19 20 19 22 3 89 -20 80 -87 306
-93 313 -2 2 -8 -2 -13 -9 -5 -8 -15 -11 -25 -7 -16 6 -17 17 -12 86 3 50 1
82 -5 86 -10 6 -6 73 8 156 6 32 10 37 38 40 37 4 46 30 21 58 -17 19 -16 21
15 50 l32 30 -3 112 -4 112 32 8 c70 18 147 165 202 387 23 90 45 171 50 180
4 9 11 32 15 51 3 19 18 51 32 71 17 25 25 50 25 80 2 82 -19 314 -34 385 -34
161 -66 200 -240 294 -72 39 -139 75 -147 80 -8 5 -39 21 -68 36 -52 25 -82
63 -82 102 0 10 13 38 29 63 16 24 32 62 36 84 10 53 61 158 92 187 24 22 24
27 18 98 -4 41 -11 82 -16 92 -5 9 -5 36 0 64 13 68 -4 168 -40 242 -37 76
-165 195 -226 211 -61 15 -134 20 -190 11z"/>
</g>
</svg>
