<?xml version="1.0" standalone="no"?>
<!DOCTYPE svg PUBLIC "-//W3C//DTD SVG 20010904//EN"
 "http://www.w3.org/TR/2001/REC-SVG-20010904/DTD/svg10.dtd">
<svg version="1.0" xmlns="http://www.w3.org/2000/svg"
 width="334.000000pt" height="436.000000pt" viewBox="0 0 334.000000 436.000000"
 preserveAspectRatio="xMidYMid meet">

<g transform="translate(0.000000,436.000000) scale(0.100000,-0.100000)"
fill="rgb(70, 177, 225)" stroke="none">
<path d="M2029 4315 c-15 -8 -36 -30 -47 -48 -13 -23 -30 -36 -49 -40 -38 -8
-111 -63 -140 -106 -29 -44 -30 -119 -3 -227 11 -44 20 -108 20 -144 0 -75 11
-96 89 -182 41 -45 59 -58 82 -58 72 0 7 -93 -118 -167 -76 -45 -110 -79 -124
-120 -7 -21 -9 -116 -7 -271 2 -170 -1 -261 -11 -322 -15 -92 -10 -166 25
-320 16 -75 16 -87 -2 -301 -5 -51 -1 -86 20 -163 39 -148 36 -179 -30 -318
-31 -65 -54 -124 -51 -131 3 -9 28 -16 65 -19 93 -9 102 -17 102 -93 0 -74 18
-166 56 -285 29 -92 54 -202 54 -237 0 -12 -24 -75 -54 -140 -75 -167 -96
-271 -61 -307 25 -24 117 -31 176 -12 28 10 52 16 53 14 23 -51 37 -66 86 -90
30 -14 64 -37 75 -51 30 -37 57 -47 127 -47 76 0 96 12 108 65 13 55 13 352 0
360 -26 16 -9 106 48 255 l37 95 0 235 0 235 63 8 c35 4 105 21 155 36 51 16
119 32 152 35 58 6 155 33 155 42 0 3 -28 60 -61 127 -34 67 -93 203 -131 302
-85 222 -95 245 -153 370 -91 193 -145 371 -145 470 1 73 21 176 35 175 34 -3
75 -43 100 -96 14 -33 34 -74 43 -92 8 -18 67 -81 129 -139 63 -58 120 -118
128 -132 7 -15 19 -55 25 -91 17 -86 33 -115 97 -178 40 -39 53 -58 48 -71 -9
-29 14 -36 39 -12 17 16 25 18 34 9 7 -7 12 -18 12 -24 0 -23 19 -25 40 -4 28
28 26 93 -5 156 -13 27 -57 90 -96 139 -39 50 -85 119 -101 155 -84 183 -106
222 -170 309 -92 122 -137 208 -192 365 -25 71 -56 140 -68 153 -41 44 -110
83 -145 83 -48 0 -109 34 -115 63 -5 26 16 51 37 43 10 -4 15 6 17 37 2 35 7
43 26 45 26 4 28 14 7 32 -12 10 -15 29 -13 74 3 66 19 80 41 36 21 -42 42
-32 42 20 l0 45 -65 21 c-83 27 -93 51 -23 56 l48 3 -30 15 c-26 13 -33 25
-48 89 -19 75 -57 140 -130 224 -30 35 -40 39 -103 47 -100 13 -175 11 -205
-5z m102 -2956 c10 -19 17 -21 65 -15 53 6 54 6 54 -19 0 -13 13 -65 30 -115
l30 -90 -16 -72 c-18 -87 -21 -179 -9 -305 8 -96 -1 -146 -31 -157 -11 -4 -14
4 -14 33 0 54 -18 100 -57 144 -20 23 -33 48 -33 65 0 15 -10 43 -21 62 -19
31 -21 42 -13 115 12 114 9 169 -11 261 -18 79 -16 114 4 114 6 0 15 -10 22
-21z m89 -831 c-1 -16 -28 -129 -32 -133 -6 -5 -87 -45 -93 -45 -14 0 2 83 25
130 7 14 77 59 93 60 4 0 7 -6 7 -12z"/>
<path d="M712 4216 c-35 -19 -69 -40 -77 -46 -25 -21 -103 -193 -109 -240 -11
-92 -24 -131 -46 -147 -18 -13 -21 -23 -17 -52 7 -53 44 -109 88 -131 42 -22
45 -28 54 -123 6 -64 5 -71 -21 -108 -34 -49 -42 -54 -133 -75 -65 -14 -78
-21 -124 -68 -35 -36 -74 -94 -121 -182 -38 -71 -81 -145 -97 -164 -15 -20
-35 -52 -44 -71 l-17 -36 48 -68 47 -68 -21 -96 c-18 -78 -22 -128 -22 -266 0
-114 -5 -195 -15 -245 -25 -122 -28 -156 -15 -195 10 -31 21 -41 66 -61 30
-13 66 -24 80 -24 34 0 37 -15 14 -89 -18 -60 -18 -66 -3 -95 20 -38 21 -113
3 -229 -11 -71 -12 -104 -2 -171 7 -45 12 -100 12 -122 0 -60 15 -72 101 -86
l76 -12 6 -101 c5 -70 16 -129 38 -199 25 -80 29 -104 20 -123 -6 -13 -11 -55
-11 -94 0 -56 -5 -79 -27 -121 -25 -48 -26 -54 -16 -123 14 -99 29 -127 78
-141 50 -15 106 -17 139 -4 36 13 59 56 86 153 l22 82 -27 70 c-18 49 -25 82
-22 108 4 25 0 48 -11 67 -16 27 -15 38 4 172 19 127 19 150 8 212 -13 65 -12
71 6 101 11 18 20 44 20 58 0 37 19 82 30 71 4 -5 10 -20 12 -34 2 -16 11 -26
28 -30 l25 -6 0 -139 0 -140 -54 -105 c-63 -123 -64 -142 -7 -289 20 -50 42
-130 50 -176 26 -148 57 -182 154 -173 91 9 141 52 149 129 5 47 -14 117 -81
308 -51 142 -54 180 -23 261 13 36 37 90 52 120 15 29 33 75 41 101 10 34 21
50 37 55 27 8 37 22 37 54 0 14 11 46 24 70 18 34 26 69 31 135 6 83 4 95 -20
155 -37 88 -44 162 -20 207 l19 34 -25 22 c-14 12 -36 48 -48 80 -23 57 -23
59 -6 91 22 41 17 138 -14 266 -29 117 -26 287 4 293 6 1 15 -29 22 -68 6 -38
28 -131 48 -205 20 -74 41 -178 45 -230 5 -52 12 -129 16 -170 7 -90 27 -154
46 -158 21 -4 90 55 128 110 29 42 32 53 28 100 -3 37 -15 69 -37 106 -55 88
-62 127 -60 317 2 164 1 172 -25 237 -35 86 -32 107 22 136 48 27 50 36 21
112 -46 123 -82 229 -99 296 -32 129 -62 166 -165 209 -127 54 -166 76 -185
107 -33 54 -26 88 32 158 15 19 28 40 28 47 0 7 11 15 25 19 31 8 91 83 106
134 9 28 8 43 -1 59 -6 13 -14 79 -16 152 -6 174 -23 222 -100 273 -95 63
-126 78 -178 82 -44 4 -60 0 -114 -30z"/>
</g>
</svg>
