<?xml version="1.0" standalone="no"?>
<!DOCTYPE svg PUBLIC "-//W3C//DTD SVG 20010904//EN"
 "http://www.w3.org/TR/2001/REC-SVG-20010904/DTD/svg10.dtd">
<svg version="1.0" xmlns="http://www.w3.org/2000/svg"
 width="266.000000pt" height="472.000000pt" viewBox="0 0 266.000000 472.000000"
 preserveAspectRatio="xMidYMid meet">

<g transform="translate(0.000000,472.000000) scale(0.100000,-0.100000)"
fill="rgb(21, 96, 130)" stroke="none">
<path d="M900 4692 c-63 -8 -120 -35 -154 -72 -39 -43 -51 -87 -44 -162 4 -32
0 -65 -9 -88 -14 -35 -13 -41 6 -81 12 -24 28 -55 36 -69 27 -45 19 -79 -27
-122 -60 -55 -119 -81 -316 -138 -82 -24 -142 -68 -142 -106 0 -13 -8 -28 -19
-33 -21 -11 -29 -28 -42 -81 -28 -119 -42 -170 -59 -205 -20 -42 -60 -187 -60
-216 0 -9 -9 -37 -20 -62 -11 -25 -22 -63 -24 -84 -2 -21 -7 -45 -10 -54 -8
-19 28 -115 53 -144 15 -16 160 -276 228 -407 26 -50 27 -120 4 -196 l-21 -71
20 -233 c12 -128 25 -273 30 -323 5 -49 10 -135 10 -190 0 -78 4 -106 17 -124
12 -19 16 -43 14 -105 -1 -45 -4 -88 -6 -97 -3 -8 0 -168 7 -355 17 -496 17
-497 -16 -573 -20 -46 -26 -73 -22 -96 7 -35 85 -133 122 -153 32 -17 141 -25
179 -14 29 8 30 10 30 73 0 44 5 72 17 89 9 14 24 54 32 90 16 69 11 118 -20
183 -15 32 -15 38 1 87 16 48 17 83 10 384 -6 290 -5 338 9 386 9 31 20 125
26 220 11 192 19 265 30 294 7 19 8 18 14 -9 4 -16 11 -49 16 -73 17 -71 11
-490 -10 -773 -53 -725 -52 -685 -34 -835 9 -76 18 -143 21 -148 4 -5 74 -6
172 -2 190 8 224 18 229 74 2 23 -1 32 -11 32 -21 0 -66 49 -73 79 -3 14 -15
44 -25 67 -25 53 -24 89 4 133 19 31 22 48 20 125 -2 49 4 118 11 155 19 85
24 148 36 412 5 121 16 247 25 285 16 73 63 328 89 479 49 289 60 608 28 791
-12 67 -22 160 -22 208 0 84 1 89 35 133 19 25 56 87 82 139 27 52 51 94 56
94 9 0 9 -14 -3 -233 -5 -97 -19 -226 -30 -285 -27 -137 -54 -433 -55 -587 0
-104 4 -136 32 -240 47 -177 92 -411 132 -681 20 -130 88 -423 147 -624 40
-141 30 -274 -32 -403 -40 -83 -42 -109 -13 -138 19 -19 29 -21 92 -16 51 4
76 12 92 27 11 11 26 20 32 20 29 0 44 41 54 141 6 69 16 116 29 140 23 42 25
78 8 125 -10 28 -7 45 19 131 33 105 45 157 93 386 26 125 32 174 34 310 3
240 61 523 147 727 23 52 43 117 46 145 7 71 -13 292 -37 408 -12 61 -17 105
-11 114 7 13 11 8 21 -21 6 -20 13 -36 15 -36 27 0 105 24 105 33 0 6 58 69
128 141 150 152 175 196 148 260 -8 20 -51 93 -96 162 -103 163 -154 275 -146
326 11 69 -52 116 -191 138 -99 17 -103 23 -103 181 0 138 -27 310 -59 384
-25 57 -90 111 -156 130 -78 23 -144 6 -208 -54 -59 -54 -79 -119 -131 -425
-17 -103 -36 -186 -41 -186 -6 0 -28 44 -51 98 -62 146 -95 172 -221 172 -54
0 -117 24 -142 54 -10 12 -8 22 8 54 11 22 32 74 46 116 22 64 25 92 25 206 0
168 -17 208 -108 255 -37 18 -113 32 -152 27z m367 -1274 c-3 -8 -6 -5 -6 6
-1 11 2 17 5 13 3 -3 4 -12 1 -19z m1028 -275 c71 -101 82 -139 57 -197 -16
-35 -29 -47 -70 -66 -28 -13 -53 -30 -55 -39 -2 -9 -8 4 -12 28 -5 29 -20 58
-42 82 l-34 38 35 95 c20 52 36 104 36 116 0 39 30 19 85 -57z"/>
</g>
</svg>
