<?xml version="1.0" standalone="no"?>
<!DOCTYPE svg PUBLIC "-//W3C//DTD SVG 20010904//EN"
 "http://www.w3.org/TR/2001/REC-SVG-20010904/DTD/svg10.dtd">
<svg version="1.0" xmlns="http://www.w3.org/2000/svg"
 width="475.000000pt" height="474.000000pt" viewBox="0 0 475.000000 474.000000"
 preserveAspectRatio="xMidYMid meet">

<g transform="translate(0.000000,474.000000) scale(0.100000,-0.100000)"
fill="rgb(142, 0, 1)" stroke="none">
<path d="M2150 4699 c-329 -29 -692 -150 -985 -328 -883 -536 -1313 -1582
-1060 -2582 172 -677 643 -1247 1280 -1548 190 -90 434 -164 655 -197 161 -25
521 -25 680 -1 421 66 805 234 1137 500 186 148 405 400 532 610 57 94 155
296 189 390 226 609 189 1292 -100 1871 -326 652 -945 1120 -1659 1256 -193
37 -458 49 -669 29z m1810 -2334 l0 -1195 -1580 0 -1580 0 0 1195 0 1195 1580
0 1580 0 0 -1195z"/>
<path d="M1180 3351 c0 -4 22 -28 49 -52 27 -24 281 -271 565 -549 285 -278
532 -513 551 -523 32 -18 35 -18 69 0 19 10 106 88 193 173 639 627 957 935
964 938 49 19 -121 22 -1191 22 -671 0 -1200 -4 -1200 -9z"/>
<path d="M1000 2391 c0 -463 4 -841 8 -841 4 0 57 51 118 113 367 376 688 709
705 730 l19 25 -32 27 c-18 15 -201 192 -407 394 -205 201 -382 372 -392 379
-19 13 -19 -9 -19 -827z"/>
<path d="M3505 2992 c-133 -130 -319 -312 -414 -404 l-173 -168 24 -29 c41
-51 802 -841 810 -841 5 0 8 378 8 840 0 462 -3 840 -7 840 -5 0 -116 -107
-248 -238z"/>
<path d="M2663 2171 c-127 -122 -188 -156 -283 -156 -96 0 -156 32 -274 146
-54 52 -101 95 -105 97 -4 1 -36 -28 -71 -65 -35 -38 -197 -205 -360 -373
-162 -168 -326 -338 -364 -377 l-69 -73 1243 0 1244 0 -45 48 c-25 26 -144
151 -264 277 -210 219 -311 325 -476 497 l-74 77 -102 -98z"/>
</g>
</svg>
