<?xml version="1.0" standalone="no"?>
<!DOCTYPE svg PUBLIC "-//W3C//DTD SVG 20010904//EN"
 "http://www.w3.org/TR/2001/REC-SVG-20010904/DTD/svg10.dtd">
<svg version="1.0" xmlns="http://www.w3.org/2000/svg"
 width="503.000000pt" height="502.000000pt" viewBox="0 0 503.000000 502.000000"
 preserveAspectRatio="xMidYMid meet">

<g transform="translate(0.000000,502.000000) scale(0.100000,-0.100000)"
fill="rgb(142, 0, 1)" stroke="none">
<path d="M2293 4990 c-622 -61 -1192 -345 -1612 -804 -334 -367 -552 -827
-627 -1331 -25 -166 -25 -513 0 -680 64 -439 214 -806 471 -1150 340 -455 815
-777 1358 -920 235 -62 370 -78 637 -78 267 0 402 16 637 78 900 237 1596 965
1797 1880 54 249 68 628 32 870 -95 634 -408 1185 -904 1594 -180 147 -477
315 -707 399 -132 48 -361 106 -505 127 -127 19 -450 27 -577 15z m542 -1048
c191 -38 371 -114 550 -231 147 -97 330 -284 420 -430 32 -52 85 -143 85 -146
0 -3 14 -34 30 -70 17 -36 30 -70 30 -75 0 -6 4 -18 9 -28 5 -9 14 -36 20 -59
6 -24 15 -60 21 -80 46 -179 46 -545 0 -693 -4 -14 -13 -45 -20 -70 -15 -54
-18 -62 -61 -165 -72 -173 -159 -302 -303 -453 -187 -194 -405 -324 -671 -400
-129 -37 -215 -47 -395 -47 -180 0 -266 10 -395 47 -84 24 -217 75 -263 100
-40 22 -74 23 -149 2 -32 -8 -85 -22 -118 -30 -33 -8 -89 -23 -125 -34 -36
-10 -76 -20 -90 -23 -14 -3 -68 -16 -120 -30 -259 -69 -245 -67 -236 -35 4 13
16 55 26 93 29 111 50 185 71 260 11 39 24 84 28 100 25 93 34 126 52 181 27
86 24 112 -19 201 -42 85 -73 163 -92 233 -7 25 -16 56 -20 70 -36 110 -45
454 -17 610 18 97 46 197 70 254 9 21 17 42 17 46 0 4 22 50 48 102 212 417
597 711 1047 800 126 25 445 25 570 0z"/>
<path d="M2425 3709 c-157 -22 -201 -33 -330 -82 -378 -145 -694 -522 -755
-902 -7 -38 -16 -89 -21 -112 -12 -54 -12 -208 0 -270 5 -26 15 -77 21 -113
22 -125 85 -283 169 -421 l22 -37 -26 -93 c-15 -52 -30 -110 -35 -129 -5 -19
-13 -51 -18 -70 -35 -122 -42 -153 -37 -158 3 -3 20 -1 38 6 29 10 183 52 267
72 19 5 53 14 75 20 78 22 84 22 112 2 37 -26 197 -102 215 -102 8 0 18 -4 23
-8 15 -12 72 -28 145 -42 36 -6 84 -16 107 -21 56 -12 249 -12 315 2 29 5 76
15 103 20 69 14 128 31 140 41 5 4 15 8 23 8 8 0 53 19 100 42 284 136 500
365 624 663 70 170 104 427 77 594 -32 201 -48 253 -127 421 -85 180 -293 401
-471 502 -102 58 -194 99 -266 119 -88 24 -119 30 -220 44 -120 16 -178 17
-270 4z m-320 -503 c41 -14 85 -57 85 -82 0 -8 5 -24 12 -37 24 -47 28 -57 28
-72 0 -8 4 -23 9 -33 11 -21 24 -54 46 -112 24 -64 14 -97 -55 -175 -42 -48
-60 -76 -60 -95 0 -34 95 -182 168 -261 28 -31 77 -76 109 -100 32 -24 60 -46
63 -49 18 -20 192 -110 213 -110 16 0 96 79 144 142 53 69 56 69 205 -6 73
-37 156 -80 183 -95 48 -28 50 -31 53 -77 10 -145 -72 -245 -254 -314 -63 -23
-303 5 -338 41 -6 5 -16 9 -23 9 -22 0 -236 99 -241 112 -2 4 -8 8 -14 8 -11
0 -90 53 -133 90 -159 135 -321 328 -415 494 -11 20 -28 51 -39 69 -16 28 -38
87 -71 193 -25 79 0 224 55 319 49 83 143 152 210 154 11 0 38 -6 60 -13z"/>
</g>
</svg>
