<?xml version="1.0" standalone="no"?>
<!DOCTYPE svg PUBLIC "-//W3C//DTD SVG 20010904//EN"
 "http://www.w3.org/TR/2001/REC-SVG-20010904/DTD/svg10.dtd">
<svg version="1.0" xmlns="http://www.w3.org/2000/svg"
 width="737.000000pt" height="736.000000pt" viewBox="0 0 737.000000 736.000000"
 preserveAspectRatio="xMidYMid meet">
 

<g transform="translate(0.000000,736.000000) scale(0.100000,-0.100000)"
fill="rgb(142, 0, 1)" stroke="none">
<path d="M3499 7326 c-2 -2 -67 -9 -144 -15 -196 -16 -380 -47 -610 -105 -119
-29 -363 -115 -510 -179 -435 -190 -791 -433 -1131 -772 -416 -416 -708 -890
-895 -1458 -83 -251 -136 -516 -163 -817 -20 -221 -20 -389 0 -610 29 -315 80
-567 173 -845 255 -768 746 -1416 1421 -1876 342 -233 766 -423 1150 -515 58
-14 121 -29 140 -34 19 -5 80 -16 135 -25 94 -15 141 -21 378 -45 54 -6 162
-10 240 -10 197 0 610 44 752 79 22 5 81 19 130 31 123 30 355 101 420 130 11
5 65 28 120 50 643 266 1225 748 1617 1338 292 438 476 901 563 1412 26 151
55 471 55 612 0 357 -68 790 -178 1123 -180 546 -454 1003 -848 1414 -522 545
-1227 925 -1959 1056 -166 29 -214 36 -373 50 -146 14 -472 21 -483 11z
m-1104 -1261 c29 -14 64 -40 78 -58 13 -18 119 -287 237 -607 238 -640 241
-654 201 -760 -13 -34 -81 -138 -176 -268 -124 -170 -155 -218 -149 -235 30
-102 180 -409 299 -611 199 -341 399 -602 695 -910 125 -130 139 -138 199
-121 63 19 264 72 386 102 115 28 171 26 251 -11 42 -19 338 -274 659 -565 22
-20 94 -84 160 -143 66 -58 132 -119 147 -135 29 -30 58 -100 58 -139 0 -51
-40 -125 -112 -211 -166 -196 -388 -371 -618 -489 -92 -47 -98 -49 -180 -49
l-86 0 -139 71 c-139 71 -308 165 -375 209 -19 12 -82 53 -140 91 -313 203
-656 487 -927 767 -803 833 -1326 1893 -1492 3027 -44 306 -49 381 -26 457 20
68 60 119 152 198 199 170 454 310 723 398 68 22 115 20 175 -8z m2304 -417
c281 -169 547 -410 737 -668 178 -242 347 -603 410 -878 31 -136 54 -288 48
-315 -16 -76 -108 -130 -180 -107 -67 22 -96 59 -108 140 -104 685 -495 1252
-1110 1613 -133 77 -85 267 68 267 41 0 62 -8 135 -52z m-560 -858 c71 -33
234 -154 318 -238 153 -152 260 -315 336 -512 74 -191 103 -359 73 -421 -32
-65 -106 -94 -180 -69 -54 17 -81 61 -101 165 -64 330 -251 606 -534 790 -54
35 -102 72 -106 82 -20 50 -24 79 -15 114 26 96 112 133 209 89z"/>
</g>
</svg>
