<?xml version="1.0" standalone="no"?>
<!DOCTYPE svg PUBLIC "-//W3C//DTD SVG 20010904//EN"
 "http://www.w3.org/TR/2001/REC-SVG-20010904/DTD/svg10.dtd">
<svg version="1.0" xmlns="http://www.w3.org/2000/svg"
 width="1309.000000pt" height="1176.000000pt" viewBox="0 0 1309.000000 1176.000000"
 preserveAspectRatio="xMidYMid meet">

<g transform="translate(0.000000,1176.000000) scale(0.100000,-0.100000)"
fill="white" stroke="none">
<path d="M3630 11755 c0 -6 2900 -5016 2910 -5028 6 -6 2920 5011 2920 5028 0
3 -1312 5 -2915 5 -1603 0 -2915 -2 -2915 -5z"/>
<path d="M2913 11248 c-6 -13 -661 -1142 -1457 -2510 -795 -1369 -1446 -2490
-1446 -2493 0 -3 1314 -5 2920 -5 1606 0 2920 2 2920 5 0 3 -651 1124 -1446
2493 -796 1368 -1451 2497 -1457 2510 -6 12 -13 22 -17 22 -4 0 -11 -10 -17
-22z"/>
<path d="M10143 11248 c-6 -13 -661 -1143 -1457 -2511 -795 -1368 -1446 -2490
-1446 -2492 0 -3 1314 -5 2920 -5 1606 0 2920 2 2920 5 0 3 -651 1124 -1446
2493 -796 1368 -1451 2497 -1457 2510 -6 12 -13 22 -17 22 -4 0 -11 -10 -17
-22z"/>
<path d="M12 5510 c7 -20 2913 -5019 2918 -5019 5 0 2911 4999 2918 5019 2 7
-1029 10 -2918 10 -1889 0 -2920 -3 -2918 -10z"/>
<path d="M7242 5511 c7 -21 2913 -5020 2918 -5020 5 0 2911 4999 2918 5019 2
7 -1029 10 -2918 10 -1807 0 -2920 -4 -2918 -9z"/>
<path d="M5087 2525 c-801 -1383 -1457 -2517 -1457 -2520 0 -3 1312 -5 2915
-5 1603 0 2915 2 2915 5 0 7 -2899 5016 -2910 5028 -4 4 -662 -1124 -1463
-2508z"/>
</g>
</svg>
