<?xml version="1.0" standalone="no"?>
<!DOCTYPE svg PUBLIC "-//W3C//DTD SVG 20010904//EN"
 "http://www.w3.org/TR/2001/REC-SVG-20010904/DTD/svg10.dtd">
<svg version="1.0" xmlns="http://www.w3.org/2000/svg"
 width="1099.000000pt" height="346.000000pt" viewBox="0 0 1099.000000 346.000000"
 preserveAspectRatio="xMidYMid meet">

<g transform="translate(0.000000,346.000000) scale(0.100000,-0.100000)"
fill="black" stroke="none">
<path d="M1107 3433 c-3 -5 123 -228 279 -498 157 -269 355 -613 441 -762 87
-150 160 -273 163 -273 3 0 18 21 34 48 39 64 464 799 678 1172 l175 305 -116
6 c-170 9 -1649 10 -1654 2z m1105 -102 l366 -6 -485 -278 c-277 -159 -489
-275 -494 -270 -7 7 -289 487 -320 546 -9 16 7 17 278 16 158 -1 453 -5 655
-8z m431 -108 c-20 -38 -119 -210 -218 -383 -417 -725 -428 -742 -440 -728 -9
9 -248 416 -341 579 -2 4 130 84 294 177 163 94 394 227 512 296 118 69 219
125 223 125 4 1 -9 -29 -30 -66z"/>
<path d="M2895 3099 c-476 -821 -735 -1272 -732 -1276 2 -2 403 -2 890 -1
l886 3 -430 750 c-237 413 -436 761 -443 774 -12 22 -22 7 -171 -250z m287
-159 c240 -414 518 -900 518 -904 0 -13 -970 554 -970 568 0 15 319 560 325
554 2 -2 59 -100 127 -218z m-127 -625 c488 -282 648 -375 659 -385 5 -5 -300
-9 -688 -10 -384 0 -696 3 -693 7 5 10 255 443 309 536 22 37 42 66 46 63 4
-2 169 -97 367 -211z"/>
<path d="M783 3133 c-72 -126 -271 -469 -442 -763 l-310 -535 886 -3 c487 -1
888 0 890 2 4 4 -178 322 -664 1160 -114 198 -213 361 -219 363 -5 2 -69 -99
-141 -224z m400 -408 c118 -203 269 -464 336 -579 67 -115 119 -212 115 -215
-3 -3 -159 -6 -347 -6 l-342 0 -3 600 c-2 512 0 597 12 585 7 -8 110 -181 229
-385z m-314 -229 c1 -511 0 -564 -15 -570 -16 -6 -636 3 -642 9 -4 3 648 1125
653 1125 1 0 3 -254 4 -564z"/>
<path d="M10460 2671 c-76 -11 -148 -36 -203 -71 -154 -97 -182 -327 -55 -446
52 -50 127 -82 291 -124 177 -46 215 -62 253 -101 21 -22 28 -39 28 -69 0 -52
-27 -88 -90 -120 -43 -22 -61 -25 -154 -24 -118 1 -223 29 -314 85 -27 16 -50
28 -51 27 -1 -2 -17 -36 -35 -77 -38 -87 -41 -82 75 -136 99 -46 194 -65 327
-65 178 0 290 39 368 128 75 84 93 221 44 321 -47 93 -118 132 -350 191 -165
42 -221 65 -253 106 -26 34 -27 89 -2 130 58 96 295 110 465 28 28 -13 53 -24
57 -24 3 0 20 34 37 76 l31 75 -62 29 c-34 16 -87 36 -118 44 -72 18 -217 27
-289 17z"/>
<path d="M4490 2382 c0 -153 3 -401 7 -551 l6 -273 301 5 c330 4 360 8 486 70
81 40 185 141 222 217 55 111 73 265 47 392 -31 147 -142 287 -281 353 -121
57 -176 65 -500 65 l-288 0 0 -278z m588 98 c114 -27 204 -97 254 -198 31 -63
33 -73 33 -172 0 -99 -2 -110 -33 -172 -54 -110 -151 -178 -284 -199 -35 -5
-128 -8 -208 -7 l-145 3 -3 378 -2 377 172 0 c95 0 192 -5 216 -10z"/>
<path d="M9075 2327 c-119 -32 -223 -116 -270 -220 -47 -103 -42 -248 12 -349
162 -300 657 -262 758 59 51 160 -4 341 -132 439 -91 69 -254 100 -368 71z
m194 -123 c65 -19 136 -81 164 -144 25 -56 27 -168 3 -223 -71 -162 -276 -214
-424 -107 -139 100 -131 351 14 441 77 47 159 58 243 33z"/>
<path d="M6140 1945 l0 -385 70 0 70 0 0 385 0 385 -70 0 -70 0 0 -385z"/>
<path d="M6888 2308 c-2 -13 -2 -186 0 -385 l2 -363 64 0 64 0 4 100 3 99 60
61 c33 33 63 59 66 58 4 -2 67 -74 139 -160 l132 -158 80 0 79 0 -20 28 c-11
15 -87 110 -169 212 l-150 185 92 98 c50 54 122 131 160 172 l68 75 -78 -1
-79 -1 -185 -194 c-102 -106 -188 -194 -192 -194 -4 0 -6 88 -5 195 l2 195
-67 0 c-61 0 -67 -2 -70 -22z"/>
<path d="M8080 2133 c0 -109 3 -282 7 -385 l6 -188 64 0 63 0 0 385 0 385 -70
0 -70 0 0 -197z"/>
<path d="M47 1616 c46 -86 869 -1506 873 -1506 3 0 82 134 177 298 94 163 293
508 442 766 149 258 271 470 271 472 0 2 -401 4 -890 4 l-890 0 17 -34z m1578
-76 c4 -6 -71 -143 -165 -304 l-172 -293 -207 119 c-113 65 -344 198 -513 296
-170 97 -308 180 -308 184 0 13 1358 10 1365 -2z m-850 -389 c248 -143 456
-264 463 -268 10 -6 -27 -77 -150 -290 -90 -155 -165 -282 -168 -282 -5 0
-641 1099 -649 1121 -5 14 0 11 504 -281z"/>
<path d="M2160 1635 c0 -6 870 -1507 880 -1518 10 -11 182 280 877 1481 l25
42 -891 0 c-490 0 -891 -2 -891 -5z m870 -693 c0 -513 -2 -603 -14 -587 -12
19 -221 378 -538 925 -139 240 -146 255 -125 261 12 4 169 7 350 7 l327 1 0
-607z m691 600 l46 -7 -322 -553 c-178 -304 -326 -556 -329 -559 -3 -4 -6 249
-6 560 l0 567 283 -1 c155 0 303 -4 328 -7z"/>
<path d="M1822 1313 c-82 -142 -257 -445 -387 -673 -131 -228 -262 -455 -291
-505 l-52 -90 401 -7 c521 -8 1366 -8 1371 0 2 4 -20 47 -49 97 -57 99 -587
1015 -736 1273 -52 89 -97 162 -100 162 -4 0 -75 -116 -157 -257z m323 -218
c82 -143 157 -274 167 -291 l18 -31 -127 -73 c-71 -41 -303 -174 -517 -297
-213 -124 -390 -223 -391 -221 -2 2 150 272 338 600 255 446 345 594 353 585
6 -7 78 -129 159 -272z m392 -675 l161 -280 -656 0 c-550 0 -653 2 -637 13 11
8 196 114 410 237 215 123 424 243 465 267 41 23 80 43 85 42 6 0 83 -126 172
-279z"/>
<path d="M4557 1170 c-84 -21 -128 -61 -147 -131 -15 -55 2 -110 45 -148 33
-29 65 -41 229 -86 76 -21 116 -59 116 -110 0 -108 -177 -150 -324 -76 -56 28
-62 29 -74 14 -18 -25 -11 -35 52 -67 47 -25 73 -31 144 -34 101 -5 159 8 202
44 43 37 60 75 60 135 0 46 -4 55 -38 89 -38 38 -55 45 -234 94 -76 22 -118
57 -118 101 0 53 19 83 67 106 37 18 57 21 116 17 42 -3 92 -14 119 -25 48
-22 58 -18 58 22 0 37 -190 76 -273 55z"/>
<path d="M8100 850 l0 -320 210 0 210 0 0 30 0 30 -180 0 -180 0 0 290 0 290
-30 0 -30 0 0 -320z"/>
<path d="M4930 755 l0 -225 155 0 c148 0 155 1 155 20 0 19 -7 20 -135 20
l-135 0 0 85 0 85 119 0 c114 0 119 1 114 20 -5 19 -14 20 -119 20 l-114 0 0
80 0 80 130 0 c123 0 130 1 130 20 0 19 -7 20 -150 20 l-150 0 0 -225z"/>
<path d="M5310 959 c0 -13 -2 -107 -3 -209 -2 -102 -1 -193 1 -202 2 -10 13
-18 23 -18 17 0 19 8 19 70 l0 70 83 0 82 -1 48 -69 c32 -47 54 -70 67 -70 11
0 20 3 20 6 0 3 -22 38 -50 76 l-49 71 31 17 c63 34 87 130 50 200 -30 55 -78
73 -209 78 l-113 5 0 -24z m237 -38 c34 -16 44 -27 54 -59 14 -49 6 -87 -27
-117 -29 -27 -64 -35 -155 -35 l-69 0 0 115 0 115 78 0 c54 0 89 -6 119 -19z"/>
<path d="M5650 973 c0 -4 43 -106 96 -225 82 -185 100 -218 118 -218 18 0 35
32 113 208 118 268 110 244 84 240 -19 -2 -38 -37 -107 -193 -47 -104 -87
-191 -88 -193 -2 -1 -42 84 -89 190 -68 154 -89 194 -106 196 -12 2 -21 0 -21
-5z"/>
<path d="M6100 755 c0 -218 1 -225 20 -225 19 0 20 7 20 225 0 218 -1 225 -20
225 -19 0 -20 -7 -20 -225z"/>
<path d="M6345 965 c-54 -19 -120 -91 -135 -146 -41 -151 65 -289 221 -289 59
0 106 14 144 43 16 12 17 17 6 31 -12 14 -16 13 -43 -7 -24 -18 -43 -22 -102
-22 -62 0 -78 4 -113 27 -96 63 -104 210 -16 292 54 50 173 59 232 17 21 -15
31 -17 39 -9 20 20 14 28 -40 53 -61 28 -131 32 -193 10z"/>
<path d="M6650 755 c0 -218 1 -225 20 -225 19 0 20 7 20 225 0 218 -1 225 -20
225 -19 0 -20 -7 -20 -225z"/>
<path d="M6897 966 c-121 -44 -180 -186 -126 -306 27 -60 45 -79 104 -106 58
-27 147 -32 198 -11 48 21 95 64 118 110 41 80 21 205 -43 264 -61 57 -169 78
-251 49z m169 -45 c23 -10 54 -36 70 -57 26 -33 29 -45 29 -110 0 -66 -3 -76
-31 -111 -40 -51 -87 -73 -152 -73 -92 0 -160 50 -183 133 -42 158 116 287
267 218z"/>
<path d="M7320 967 c-50 -17 -83 -71 -76 -122 6 -51 39 -80 114 -100 99 -28
124 -39 145 -67 17 -23 18 -31 8 -57 -24 -56 -128 -71 -218 -31 -36 16 -48 18
-55 8 -19 -31 68 -68 159 -68 89 0 147 35 159 97 14 75 -30 116 -160 149 -37
9 -76 24 -87 33 -28 22 -28 76 -1 104 29 28 123 35 177 13 31 -13 40 -14 47
-4 13 22 10 26 -39 42 -54 19 -124 20 -173 3z"/>
<path d="M8557 974 c-4 -4 -7 -106 -7 -226 l0 -218 160 0 c153 0 160 1 160 20
0 19 -7 20 -135 20 l-135 0 0 85 0 85 115 0 c108 0 115 1 115 20 0 19 -7 20
-115 20 l-115 0 0 80 0 80 131 0 c119 0 130 2 127 18 -3 15 -19 17 -149 20
-80 1 -148 -1 -152 -4z"/>
<path d="M9039 966 c-116 -41 -177 -169 -138 -287 43 -126 202 -187 332 -126
l49 22 1 88 c2 84 1 87 -20 87 -22 0 -23 -4 -23 -75 0 -72 -1 -75 -30 -90 -42
-22 -125 -19 -178 6 -64 32 -97 86 -97 163 0 73 22 114 79 154 34 23 49 27
112 27 60 0 78 -4 104 -24 28 -20 34 -21 46 -9 13 12 12 17 -5 32 -47 43 -160
58 -232 32z"/>
<path d="M9404 763 c-54 -119 -100 -220 -102 -225 -2 -4 7 -8 21 -8 20 0 28
10 48 60 l24 60 128 0 128 0 26 -60 c21 -49 31 -60 50 -60 l23 0 -24 53 c-151
337 -181 397 -201 397 -18 0 -38 -36 -121 -217z m176 47 c27 -63 50 -115 50
-117 0 -2 -47 -3 -105 -3 -58 0 -105 2 -105 5 0 10 103 235 106 232 2 -1 26
-54 54 -117z"/>
<path d="M9780 755 l0 -225 145 0 c138 0 145 1 145 20 0 19 -7 20 -125 20
l-125 0 0 205 c0 198 -1 205 -20 205 -19 0 -20 -7 -20 -225z"/>
<path d="M10100 755 l0 -225 155 0 c148 0 155 1 155 20 0 19 -7 20 -135 20
l-135 0 0 85 0 85 121 0 c109 0 120 2 117 18 -3 15 -18 17 -121 20 l-117 3 0
79 0 80 130 0 c123 0 130 1 130 20 0 19 -7 20 -150 20 l-150 0 0 -225z"/>
<path d="M10524 966 c-47 -21 -74 -62 -74 -111 0 -59 42 -96 137 -119 39 -10
84 -26 102 -37 28 -17 32 -24 29 -56 -4 -53 -39 -75 -117 -75 -43 0 -73 6
-102 22 -27 14 -45 18 -52 11 -28 -28 63 -70 151 -71 107 0 165 43 165 122 0
63 -36 91 -156 122 -102 27 -133 62 -111 121 17 42 130 60 201 30 44 -19 43
-19 43 3 0 11 -12 24 -27 32 -42 19 -152 23 -189 6z"/>
</g>
</svg>
